<?xml version="1.0" encoding="UTF-8"?>
<svg id="Layer_1" xmlns="http://www.w3.org/2000/svg" xmlns:xlink="http://www.w3.org/1999/xlink" version="1.1" viewBox="0 0 949.23 307.69">
  <!-- Generator: Adobe Illustrator 30.3.0, SVG Export Plug-In . SVG Version: 2.1.3 Build 182)  -->
  <defs>
    <style>
      .st0 {
        fill: url(#linear-gradient2);
      }

      .st1 {
        fill: url(#linear-gradient1);
      }

      .st2 {
        fill: url(#linear-gradient3);
      }

      .st3 {
        fill: url(#linear-gradient6);
      }

      .st4 {
        fill: url(#linear-gradient5);
      }

      .st5 {
        fill: url(#linear-gradient4);
      }

      .st6 {
        fill: url(#linear-gradient);
      }

      .st7 {
        fill: #055b98;
      }

      .st8 {
        fill: #0cc1e0;
      }

      .st9 {
        fill: #35cfe9;
      }

      .st10 {
        fill: #013f7c;
      }

      .st11 {
        fill: #03588f;
      }

      .st12 {
        fill: #7ed956;
      }
    </style>
    <linearGradient id="linear-gradient" x1="374.71" y1="378.61" x2="924.37" y2="378.61" gradientTransform="translate(0 475.85) scale(1 -1)" gradientUnits="userSpaceOnUse">
      <stop offset="0" stop-color="#0075be"/>
      <stop offset=".36" stop-color="#0583b6"/>
      <stop offset=".99" stop-color="#35cfe9"/>
    </linearGradient>
    <linearGradient id="linear-gradient1" x1="374.69" y1="378.51" x2="924.35" y2="378.51" xlink:href="#linear-gradient"/>
    <linearGradient id="linear-gradient2" x1="374.69" y1="378.51" x2="924.35" y2="378.51" xlink:href="#linear-gradient"/>
    <linearGradient id="linear-gradient3" x1="374.69" y1="378.75" x2="924.35" y2="378.75" xlink:href="#linear-gradient"/>
    <linearGradient id="linear-gradient4" x1="374.69" y1="378.5" x2="924.35" y2="378.5" xlink:href="#linear-gradient"/>
    <linearGradient id="linear-gradient5" x1="374.69" y1="379.34" x2="924.35" y2="379.34" xlink:href="#linear-gradient"/>
    <linearGradient id="linear-gradient6" x1="374.69" y1="378.51" x2="924.35" y2="378.51" xlink:href="#linear-gradient"/>
  </defs>
  <g>
    <path class="st11" d="M28.87,163.22l.49,8.67c.77,13.55,5.84,33.66,11.62,45.86l2.06,4.35c11.45,24.15,29.3,43.7,50.95,57.96-1.79-.45-2.93-.99-4.23-1.69l-6.3-3.39c-10.85-5.83-20.46-13.35-29.13-22.06l-1.5-1.5c-17.51-17.59-29.58-38.99-36.22-62.99-10.17-36.78-4.74-76.51,14.44-109.28C52.91,41.81,90.23,16.43,133.07,10.04c1.76-.26,3.4-.58,5.18-.77l4.26-.47,4.63-.29,13.69-.02c1.95,0,3.91.18,5.88.38,22.82,2.26,43.62,9.13,63.01,21.24-1.85-.58-3.36-1.47-5.13-2.1l-8.19-2.93c-12.01-4.29-24.6-6.35-37.31-7.12l-3.28-.2c-2.73-.17-5.47-.11-8.21,0l-3.65.14c-20.12.8-40.86,6.88-58.82,16.21-34.1,17.72-59.82,49.24-70.57,86.26-3.37,11.61-5.47,24.37-5.56,36.46-.02,2.09-.27,4.13-.14,6.39h0Z"/>
    <path class="st8" d="M220.27,292.98c9.3-.41,17.64-1.84,26.93-3.76-14.77,6.05-30.86,9.28-47.1,9.84-2.66.09-5.04.24-7.6.04l-11.31-.85c-68.14-5.11-126.43-70.56-121.51-145.39.88-13.32,3.73-26.24,8.3-38.55,15.53-41.73,50.2-73.37,93.34-84.71.62-.24.66.19-.08.35-27.96,11.64-51.25,32.3-66.13,58.7-9.85,17.48-16.64,36.74-17.44,56.71l-.25,6.28c-.89,22.31,4.07,44.55,13.81,64.6,7.18,14.79,16.79,27.92,28.69,39.21,26.86,25.48,63.19,39.17,100.34,37.52h.01Z"/>
    <path class="st10" d="M260.04,144.99l37.17,41.35-80.17-47.02c-1.29-.76-2.11-1.4-3.56-1.84l-76.19,44.82c-2.44,1.43-4.45,2.85-7.01,3.84l83.41-92.14c2.73,2.71,5.16,5.56,7.86,8.54l24.92,27.53.06-19.9h13.51v34.82Z"/>
    <path class="st12" d="M147.67,242.5c-11.95-12.71-20.71-28.82-23.44-46.71,14.6,33.96,46.6,57.22,84.01,59.74,4.34.29,8.38.49,12.76,0,37.39-2.36,70.06-25.77,84.55-60.46-2.72,16.84-10.34,32.48-21.72,45.3-2.57,2.9-5.16,5.19-7.91,7.91-15.44,13.63-34.92,21.83-55.55,22.97-27.36,1.69-53.8-8.66-72.69-28.75h-.01Z"/>
    <g>
      <rect class="st10" x="198.1" y="160.85" width="13.53" height="16.03"/>
      <rect class="st10" x="215.68" y="160.76" width="13.55" height="16.12"/>
      <rect class="st10" x="198.1" y="180.53" width="13.53" height="16.1"/>
      <rect class="st10" x="215.68" y="180.51" width="13.55" height="16.12"/>
    </g>
  </g>
  <g>
    <g>
      <g>
        <path class="st7" d="M397.01,97.29c0,5.31.8,9.99,2.41,14.05s3.74,7.47,6.39,10.22c2.65,2.75,5.71,4.85,9.17,6.27,3.46,1.43,7.06,2.14,10.8,2.14,2.85,0,5.52-.49,7.99-1.48,2.47-.98,4.78-2.32,6.94-4.01,2.15-1.69,4.17-3.64,6.06-5.85s3.7-4.54,5.43-7l8.38,6.15c-1.81,2.9-3.99,5.69-6.54,8.38s-5.42,5.07-8.59,7.12c-3.18,2.05-6.63,3.69-10.37,4.92-3.74,1.23-7.7,1.84-11.88,1.84-7.04,0-13.52-1.03-19.45-3.08s-11.05-4.95-15.35-8.69c-4.3-3.74-7.66-8.23-10.07-13.48s-3.62-11.09-3.62-17.52,1.15-11.96,3.44-17.19c2.29-5.23,5.52-9.74,9.68-13.54,4.16-3.8,9.15-6.76,14.96-8.9,5.81-2.13,12.23-3.2,19.27-3.2,4.7,0,9.01.55,12.91,1.66,3.9,1.11,7.45,2.63,10.65,4.58,3.2,1.95,6.05,4.28,8.56,7,2.51,2.71,4.73,5.7,6.66,8.96l-8.44,5.91c-1.73-2.45-3.61-4.76-5.64-6.94-2.03-2.17-4.19-4.07-6.48-5.7s-4.7-2.92-7.24-3.86c-2.53-.94-5.17-1.42-7.9-1.42-3.74,0-7.31.7-10.71,2.11-3.4,1.41-6.38,3.49-8.96,6.24-2.57,2.75-4.62,6.16-6.15,10.22-1.53,4.06-2.29,8.75-2.29,14.05l-.02.04Z"/>
        <path class="st7" d="M474.38,56.45h30.76c5.31,0,9.94.55,13.9,1.66,3.96,1.11,7.26,2.65,9.89,4.64,2.63,1.99,4.61,4.35,5.94,7.09,1.33,2.73,1.99,5.71,1.99,8.93,0,2.33-.45,4.53-1.36,6.6-.9,2.07-2.17,3.98-3.8,5.73s-3.6,3.3-5.91,4.64c-2.31,1.35-4.86,2.46-7.63,3.35l29.13,39.14h-21.83l-27.44-36.97h-3.56v36.97h-20.08V56.44h0ZM494.46,94.09h4.34c2.45,0,4.72-.34,6.82-1.03,2.09-.68,3.9-1.66,5.43-2.92,1.53-1.27,2.72-2.82,3.59-4.67.86-1.85,1.3-3.94,1.3-6.27,0-2.17-.33-4.16-1-5.97-.66-1.81-1.58-3.37-2.74-4.67-1.17-1.31-2.57-2.32-4.22-3.05-1.65-.72-3.44-1.09-5.37-1.09h-8.14v29.67h0Z"/>
        <path class="st7" d="M557.35,56.45l26.9,36.85,25.27-36.85h13.57l-31.97,46.44v35.34h-20.08v-34.14l-34.68-47.65h20.99Z"/>
        <path class="st7" d="M659.2,139.45c-4.91,0-9.2-.57-12.88-1.72s-6.81-2.72-9.38-4.73-4.62-4.41-6.15-7.21c-1.53-2.79-2.57-5.86-3.14-9.2h13.93c.48,2.05,1.19,3.96,2.11,5.73.92,1.77,2.1,3.31,3.53,4.61,1.43,1.31,3.12,2.33,5.07,3.08,1.95.74,4.21,1.12,6.79,1.12,1.69,0,3.37-.18,5.04-.54,1.67-.36,3.17-.95,4.49-1.78,1.33-.82,2.39-1.89,3.2-3.2.8-1.31,1.21-2.92,1.21-4.86,0-2.41-.62-4.56-1.87-6.45s-2.9-3.61-4.95-5.16c-2.05-1.55-4.38-2.99-7-4.31-2.61-1.33-5.29-2.66-8.02-4.01-2.73-1.35-5.41-2.76-8.02-4.25s-4.95-3.15-7-4.98c-2.05-1.83-3.7-3.9-4.95-6.21s-1.87-4.95-1.87-7.93c0-3.26.71-6.26,2.14-9.02,1.43-2.75,3.49-5.15,6.18-7.18s5.99-3.62,9.89-4.77c3.9-1.15,8.34-1.72,13.33-1.72,4.1,0,7.82.56,11.16,1.69s6.28,2.68,8.84,4.67c2.55,1.99,4.69,4.32,6.42,7,1.73,2.67,3.06,5.54,3.98,8.6h-12.61c-.72-1.93-1.57-3.78-2.53-5.55-.97-1.77-2.15-3.32-3.56-4.64-1.41-1.33-3.12-2.38-5.13-3.17-2.01-.78-4.4-1.18-7.18-1.18-2.61,0-4.82.34-6.6,1.03-1.79.68-3.23,1.56-4.31,2.62-1.09,1.07-1.87,2.25-2.35,3.56s-.72,2.58-.72,3.83c0,2.17.64,4.14,1.93,5.91,1.29,1.77,2.99,3.42,5.1,4.95s4.51,2.99,7.21,4.37c2.69,1.39,5.44,2.78,8.23,4.19s5.54,2.89,8.23,4.43c2.69,1.55,5.1,3.25,7.21,5.1s3.81,3.9,5.1,6.15,1.93,4.79,1.93,7.6c0,3.34-.68,6.43-2.05,9.29-1.37,2.86-3.4,5.34-6.09,7.45-2.69,2.11-6.04,3.77-10.04,4.98-4,1.21-8.62,1.81-13.84,1.81h-.01Z"/>
        <path class="st7" d="M775.47,56.45v7h-28.29v74.79h-20.02V63.45h-28.35v-7h76.66Z"/>
        <path class="st7" d="M816.04,54.77l38.36,83.47h-20.51l-10.25-22.32h-31.79l-10.74,22.32h-13.63l39.87-83.47h8.69ZM795.66,108.32h24.61l-12.12-26.42-12.48,26.42h-.01Z"/>
        <path class="st7" d="M862.53,56.45h20.08v73.4h41.74v8.38h-61.82V56.44h0Z"/>
      </g>
      <g>
        <path class="st6" d="M397.01,97.29c0,5.31.8,9.99,2.41,14.05s3.74,7.47,6.39,10.22c2.65,2.75,5.71,4.85,9.17,6.27,3.46,1.43,7.06,2.14,10.8,2.14,2.85,0,5.52-.49,7.99-1.48,2.47-.98,4.78-2.32,6.94-4.01,2.15-1.69,4.17-3.64,6.06-5.85s3.7-4.54,5.43-7l8.38,6.15c-1.81,2.9-3.99,5.69-6.54,8.38s-5.42,5.07-8.59,7.12c-3.18,2.05-6.63,3.69-10.37,4.92-3.74,1.23-7.7,1.84-11.88,1.84-7.04,0-13.52-1.03-19.45-3.08s-11.05-4.95-15.35-8.69c-4.3-3.74-7.66-8.23-10.07-13.48s-3.62-11.09-3.62-17.52,1.15-11.96,3.44-17.19c2.29-5.23,5.52-9.74,9.68-13.54,4.16-3.8,9.15-6.76,14.96-8.9,5.81-2.13,12.23-3.2,19.27-3.2,4.7,0,9.01.55,12.91,1.66,3.9,1.11,7.45,2.63,10.65,4.58,3.2,1.95,6.05,4.28,8.56,7,2.51,2.71,4.73,5.7,6.66,8.96l-8.44,5.91c-1.73-2.45-3.61-4.76-5.64-6.94-2.03-2.17-4.19-4.07-6.48-5.7s-4.7-2.92-7.24-3.86c-2.53-.94-5.17-1.42-7.9-1.42-3.74,0-7.31.7-10.71,2.11-3.4,1.41-6.38,3.49-8.96,6.24-2.57,2.75-4.62,6.16-6.15,10.22-1.53,4.06-2.29,8.75-2.29,14.05l-.02.04Z"/>
        <path class="st1" d="M474.38,56.45h30.76c5.31,0,9.94.55,13.9,1.66,3.96,1.11,7.26,2.65,9.89,4.64,2.63,1.99,4.61,4.35,5.94,7.09,1.33,2.73,1.99,5.71,1.99,8.93,0,2.33-.45,4.53-1.36,6.6-.9,2.07-2.17,3.98-3.8,5.73s-3.6,3.3-5.91,4.64c-2.31,1.35-4.86,2.46-7.63,3.35l29.13,39.14h-21.83l-27.44-36.97h-3.56v36.97h-20.08V56.44h0ZM494.46,94.09h4.34c2.45,0,4.72-.34,6.82-1.03,2.09-.68,3.9-1.66,5.43-2.92,1.53-1.27,2.72-2.82,3.59-4.67.86-1.85,1.3-3.94,1.3-6.27,0-2.17-.33-4.16-1-5.97-.66-1.81-1.58-3.37-2.74-4.67-1.17-1.31-2.57-2.32-4.22-3.05-1.65-.72-3.44-1.09-5.37-1.09h-8.14v29.67h0Z"/>
        <path class="st0" d="M557.35,56.45l26.9,36.85,25.27-36.85h13.57l-31.97,46.44v35.34h-20.08v-34.14l-34.68-47.65h20.99Z"/>
        <path class="st2" d="M659.2,139.45c-4.91,0-9.2-.57-12.88-1.72s-6.81-2.72-9.38-4.73-4.62-4.41-6.15-7.21c-1.53-2.79-2.57-5.86-3.14-9.2h13.93c.48,2.05,1.19,3.96,2.11,5.73.92,1.77,2.1,3.31,3.53,4.61,1.43,1.31,3.12,2.33,5.07,3.08,1.95.74,4.21,1.12,6.79,1.12,1.69,0,3.37-.18,5.04-.54,1.67-.36,3.17-.95,4.49-1.78,1.33-.82,2.39-1.89,3.2-3.2.8-1.31,1.21-2.92,1.21-4.86,0-2.41-.62-4.56-1.87-6.45s-2.9-3.61-4.95-5.16c-2.05-1.55-4.38-2.99-7-4.31-2.61-1.33-5.29-2.66-8.02-4.01-2.73-1.35-5.41-2.76-8.02-4.25s-4.95-3.15-7-4.98c-2.05-1.83-3.7-3.9-4.95-6.21s-1.87-4.95-1.87-7.93c0-3.26.71-6.26,2.14-9.02,1.43-2.75,3.49-5.15,6.18-7.18s5.99-3.62,9.89-4.77c3.9-1.15,8.34-1.72,13.33-1.72,4.1,0,7.82.56,11.16,1.69s6.28,2.68,8.84,4.67c2.55,1.99,4.69,4.32,6.42,7,1.73,2.67,3.06,5.54,3.98,8.6h-12.61c-.72-1.93-1.57-3.78-2.53-5.55-.97-1.77-2.15-3.32-3.56-4.64-1.41-1.33-3.12-2.38-5.13-3.17-2.01-.78-4.4-1.18-7.18-1.18-2.61,0-4.82.34-6.6,1.03-1.79.68-3.23,1.56-4.31,2.62-1.09,1.07-1.87,2.25-2.35,3.56s-.72,2.58-.72,3.83c0,2.17.64,4.14,1.93,5.91,1.29,1.77,2.99,3.42,5.1,4.95s4.51,2.99,7.21,4.37c2.69,1.39,5.44,2.78,8.23,4.19s5.54,2.89,8.23,4.43c2.69,1.55,5.1,3.25,7.21,5.1s3.81,3.9,5.1,6.15,1.93,4.79,1.93,7.6c0,3.34-.68,6.43-2.05,9.29-1.37,2.86-3.4,5.34-6.09,7.45-2.69,2.11-6.04,3.77-10.04,4.98-4,1.21-8.62,1.81-13.84,1.81h-.01Z"/>
        <path class="st5" d="M775.47,56.45v7h-28.29v74.79h-20.02V63.45h-28.35v-7h76.66Z"/>
        <path class="st4" d="M816.04,54.77l38.36,83.47h-20.51l-10.25-22.32h-31.79l-10.74,22.32h-13.63l39.87-83.47h8.69ZM795.66,108.32h24.61l-12.12-26.42-12.48,26.42h-.01Z"/>
        <path class="st3" d="M862.53,56.45h20.08v73.4h41.74v8.38h-61.82V56.44h0Z"/>
      </g>
    </g>
    <g>
      <path class="st12" d="M559.64,201.15c-3.88,0-7.23-.86-10.03-2.57-2.81-1.71-4.97-4.11-6.5-7.18s-2.29-6.64-2.29-10.71.76-7.59,2.29-10.68,3.69-5.49,6.5-7.21c2.81-1.71,6.15-2.57,10.03-2.57,4.63,0,8.39,1.11,11.27,3.33s4.72,5.35,5.51,9.38h-6.22c-.57-2.34-1.72-4.2-3.48-5.59-1.75-1.39-4.12-2.09-7.09-2.09-2.68,0-4.99.62-6.95,1.87-1.96,1.24-3.47,3.01-4.52,5.31-1.06,2.3-1.58,5.05-1.58,8.25s.53,5.96,1.58,8.28,2.56,4.09,4.52,5.31,4.28,1.84,6.95,1.84c2.98,0,5.34-.67,7.09-2.01s2.91-3.15,3.48-5.45h6.22c-.79,3.92-2.63,6.98-5.51,9.18s-6.64,3.31-11.27,3.31h0Z"/>
      <path class="st12" d="M594.51,200.47v-39.56h13.39c3.13,0,5.69.53,7.69,1.58s3.48,2.46,4.44,4.21,1.44,3.74,1.44,5.96-.48,4.06-1.44,5.85-2.46,3.22-4.49,4.29-4.63,1.61-7.8,1.61h-7.57v16.05h-5.66ZM600.16,180.13h7.35c2.79,0,4.84-.69,6.16-2.06s1.98-3.14,1.98-5.28-.64-3.92-1.92-5.2-3.35-1.92-6.22-1.92h-7.35v14.47h0ZM615.3,200.47l-8.53-17.58h6.22l8.87,17.58h-6.56Z"/>
      <path class="st12" d="M637.51,200.47l14.52-39.56h6.16l14.52,39.56h-6.05l-11.59-32.78-11.64,32.78h-5.93.01ZM644.07,190.69l1.58-4.52h18.59l1.58,4.52h-21.76.01Z"/>
      <path class="st12" d="M689.67,200.47v-39.56h24.58v4.63h-18.93v12.83h15.82v4.52h-15.82v17.58h-5.65Z"/>
      <path class="st12" d="M740.82,200.47v-34.93h-11.7v-4.63h29.1v4.63h-11.75v34.93h-5.65Z"/>
    </g>
    <g>
      <path class="st9" d="M363.01,250.77c-1.43,0-2.7-.25-3.81-.76s-1.98-1.23-2.6-2.18c-.62-.94-.94-2.06-.96-3.36h3.59c0,.66.16,1.25.47,1.77s.74.93,1.3,1.23,1.23.45,2.02.45c.68,0,1.27-.11,1.77-.33.5-.22.89-.53,1.16-.93.27-.41.41-.88.41-1.43,0-.62-.15-1.13-.44-1.54-.29-.4-.69-.75-1.2-1.03s-1.09-.53-1.75-.75-1.36-.45-2.09-.69c-1.56-.53-2.74-1.2-3.53-2.02s-1.19-1.92-1.19-3.29c0-1.15.27-2.14.82-2.97.55-.83,1.31-1.47,2.3-1.94.99-.46,2.13-.69,3.43-.69s2.47.24,3.46.71c.99.47,1.77,1.13,2.35,1.96.57.84.87,1.84.89,3.01h-3.62c-.02-.49-.15-.95-.4-1.37s-.6-.77-1.06-1.05c-.46-.27-1.02-.41-1.68-.41-.56-.02-1.07.07-1.51.27-.44.2-.79.48-1.05.85-.25.37-.38.82-.38,1.37s.12.97.35,1.31c.24.35.58.64,1.03.88s.98.46,1.58.66,1.26.43,1.98.68c.98.32,1.87.71,2.67,1.17.8.46,1.44,1.06,1.91,1.79s.71,1.69.71,2.85c0,1.02-.26,1.96-.79,2.84s-1.3,1.58-2.32,2.12-2.29.81-3.82.81h0Z"/>
      <path class="st9" d="M376.94,250.43l-5.26-19.78h3.62l3.7,15.91,4.29-15.91h3.76l4.15,15.94,3.73-15.94h3.64l-5.4,19.78h-4.01l-4.07-14.98-4.18,14.98h-3.98.01Z"/>
      <path class="st9" d="M401.3,250.43v-19.78h3.39v19.78h-3.39Z"/>
      <path class="st9" d="M408.67,250.43v-19.78h4.01l6.33,12.77,6.27-12.77h4.04v19.78h-3.39v-13.96l-5.59,11.19h-2.66l-5.62-11.16v13.93h-3.39Z"/>
      <path class="st9" d="M433.34,250.43v-19.78h4.01l6.33,12.77,6.27-12.77h4.04v19.78h-3.39v-13.96l-5.59,11.19h-2.66l-5.62-11.16v13.93h-3.39Z"/>
      <path class="st9" d="M458.01,250.43v-19.78h3.39v19.78h-3.39Z"/>
      <path class="st9" d="M465.38,250.43v-19.78h3.39l9.52,14.3v-14.3h3.39v19.78h-3.39l-9.52-14.27v14.27h-3.39Z"/>
      <path class="st9" d="M494.29,250.77c-1.87,0-3.5-.42-4.9-1.27-1.4-.85-2.49-2.03-3.26-3.55-.77-1.52-1.16-3.29-1.16-5.33s.4-3.8,1.19-5.35c.79-1.55,1.93-2.77,3.41-3.64,1.48-.88,3.23-1.31,5.27-1.31,2.3,0,4.2.55,5.72,1.65,1.52,1.1,2.5,2.63,2.95,4.59h-3.81c-.28-.98-.84-1.74-1.67-2.29s-1.9-.82-3.22-.82-2.48.29-3.43.86-1.68,1.4-2.18,2.49c-.5,1.08-.75,2.37-.75,3.86s.25,2.77.75,3.84,1.21,1.89,2.13,2.44c.92.56,2.01.83,3.25.83,1.85,0,3.24-.52,4.18-1.55.94-1.04,1.5-2.38,1.67-4.04h-5.11v-2.57h8.53v10.82h-3.11l-.28-2.71c-.43.64-.93,1.19-1.5,1.65-.56.46-1.23.81-1.99,1.05s-1.65.35-2.67.35h-.01Z"/>
      <path class="st9" d="M514.38,250.43v-19.78h7.12c1.58,0,2.89.27,3.93.81s1.81,1.26,2.32,2.16.76,1.94.76,3.11c0,1.09-.24,2.1-.73,3.01-.49.91-1.25,1.65-2.29,2.2-1.04.56-2.36.83-3.98.83h-3.73v7.66h-3.4ZM517.77,240.01h3.53c1.34,0,2.3-.3,2.88-.89s.88-1.39.88-2.39-.29-1.85-.88-2.43-1.54-.88-2.88-.88h-3.53v6.58h0Z"/>
      <path class="st9" d="M540.46,250.77c-1.9,0-3.58-.43-5.04-1.29-1.46-.86-2.6-2.05-3.43-3.59-.83-1.53-1.24-3.32-1.24-5.35s.41-3.79,1.24-5.33c.83-1.53,1.97-2.74,3.43-3.6s3.14-1.3,5.04-1.3,3.65.43,5.11,1.3c1.47.87,2.61,2.07,3.42,3.6.81,1.54,1.21,3.31,1.21,5.33s-.41,3.82-1.21,5.35c-.81,1.54-1.95,2.73-3.42,3.59-1.47.86-3.17,1.29-5.11,1.29ZM540.49,247.72c1.26,0,2.36-.29,3.31-.86.94-.57,1.67-1.4,2.18-2.47.51-1.07.76-2.35.76-3.84s-.25-2.77-.76-3.84-1.23-1.9-2.18-2.47-2.04-.86-3.31-.86-2.36.29-3.31.86-1.67,1.4-2.19,2.47c-.52,1.07-.78,2.36-.78,3.84s.26,2.77.78,3.84,1.25,1.9,2.19,2.47c.94.58,2.04.86,3.31.86Z"/>
      <path class="st9" d="M562.53,250.77c-1.9,0-3.58-.43-5.04-1.29-1.46-.86-2.6-2.05-3.43-3.59-.83-1.53-1.24-3.32-1.24-5.35s.41-3.79,1.24-5.33c.83-1.53,1.97-2.74,3.43-3.6s3.14-1.3,5.04-1.3,3.65.43,5.11,1.3c1.47.87,2.61,2.07,3.42,3.6.81,1.54,1.21,3.31,1.21,5.33s-.41,3.82-1.21,5.35c-.81,1.54-1.95,2.73-3.42,3.59-1.47.86-3.17,1.29-5.11,1.29ZM562.55,247.72c1.26,0,2.36-.29,3.31-.86.94-.57,1.67-1.4,2.18-2.47.51-1.07.76-2.35.76-3.84s-.25-2.77-.76-3.84-1.23-1.9-2.18-2.47-2.04-.86-3.31-.86-2.36.29-3.31.86-1.67,1.4-2.19,2.47c-.52,1.07-.78,2.36-.78,3.84s.26,2.77.78,3.84,1.25,1.9,2.19,2.47c.94.58,2.04.86,3.31.86Z"/>
      <path class="st9" d="M575.58,250.43v-19.78h3.39v17.12h8.82v2.66h-12.21,0Z"/>
      <path class="st10" d="M597.99,253.26v-23.17h3.39v23.17h-3.39Z"/>
      <path class="st12" d="M612.26,250.43v-19.78h3.39v17.12h8.82v2.66h-12.21Z"/>
      <path class="st12" d="M626.47,250.43l7.23-19.78h3.79l7.23,19.78h-3.59l-5.57-15.82-5.57,15.82h-3.53,0ZM629.69,245.77l.9-2.68h9.75l.9,2.68h-11.56.01Z"/>
      <path class="st12" d="M647.43,250.43v-19.78h3.39l9.52,14.3v-14.3h3.39v19.78h-3.39l-9.52-14.27v14.27h-3.39Z"/>
      <path class="st12" d="M667.72,250.43v-19.78h6.39c2.3,0,4.2.41,5.69,1.21,1.5.81,2.61,1.95,3.33,3.43s1.09,3.24,1.09,5.27-.36,3.74-1.09,5.21c-.73,1.48-1.84,2.62-3.33,3.43s-3.4,1.21-5.69,1.21h-6.39v.02ZM671.11,247.55h2.83c1.71,0,3.07-.28,4.05-.83.99-.56,1.7-1.36,2.12-2.4.42-1.05.64-2.29.64-3.74s-.21-2.73-.64-3.77-1.13-1.86-2.12-2.43-2.34-.86-4.05-.86h-2.83v14.04h0Z"/>
      <path class="st12" d="M694.17,250.77c-1.43,0-2.7-.25-3.81-.76s-1.98-1.23-2.6-2.18c-.62-.94-.94-2.06-.96-3.36h3.59c0,.66.16,1.25.47,1.77s.74.93,1.3,1.23,1.23.45,2.02.45c.68,0,1.27-.11,1.77-.33.5-.22.89-.53,1.16-.93.27-.41.41-.88.41-1.43,0-.62-.15-1.13-.44-1.54-.29-.4-.69-.75-1.2-1.03s-1.09-.53-1.75-.75-1.36-.45-2.09-.69c-1.56-.53-2.74-1.2-3.53-2.02s-1.19-1.92-1.19-3.29c0-1.15.27-2.14.82-2.97.55-.83,1.31-1.47,2.3-1.94.99-.46,2.13-.69,3.43-.69s2.47.24,3.46.71c.99.47,1.77,1.13,2.35,1.96.57.84.87,1.84.89,3.01h-3.62c-.02-.49-.15-.95-.4-1.37s-.6-.77-1.06-1.05c-.46-.27-1.02-.41-1.68-.41-.56-.02-1.07.07-1.51.27s-.79.48-1.05.85c-.25.37-.38.82-.38,1.37s.12.97.35,1.31c.24.35.58.64,1.03.88s.98.46,1.58.66,1.26.43,1.98.68c.98.32,1.87.71,2.67,1.17.8.46,1.44,1.06,1.91,1.79s.71,1.69.71,2.85c0,1.02-.26,1.96-.79,2.84s-1.3,1.58-2.32,2.12c-1.02.54-2.29.81-3.82.81h0Z"/>
      <path class="st12" d="M713.19,250.77c-1.96,0-3.65-.43-5.07-1.29s-2.51-2.05-3.28-3.59c-.76-1.53-1.14-3.31-1.14-5.33s.38-3.82,1.14-5.35c.76-1.53,1.86-2.74,3.28-3.6s3.11-1.3,5.07-1.3c2.35,0,4.28.58,5.76,1.74,1.49,1.16,2.43,2.79,2.83,4.9h-3.73c-.26-1.11-.8-1.99-1.61-2.63s-1.9-.96-3.28-.96c-1.24,0-2.31.29-3.21.86s-1.58,1.4-2.06,2.49c-.48,1.08-.72,2.37-.72,3.86s.24,2.77.72,3.83,1.17,1.88,2.06,2.46c.89.58,1.96.86,3.21.86,1.37,0,2.47-.3,3.28-.89s1.35-1.42,1.61-2.47h3.73c-.38,2-1.31,3.57-2.81,4.7-1.5,1.14-3.42,1.71-5.78,1.71h0Z"/>
      <path class="st12" d="M723.5,250.43l7.23-19.78h3.79l7.23,19.78h-3.59l-5.57-15.82-5.57,15.82h-3.53,0ZM726.72,245.77l.9-2.68h9.75l.9,2.68h-11.56.01Z"/>
      <path class="st12" d="M744.47,250.43v-19.78h7.12c1.58,0,2.89.27,3.93.81s1.81,1.26,2.32,2.16.76,1.94.76,3.11c0,1.09-.24,2.1-.73,3.01-.49.91-1.25,1.65-2.29,2.2-1.04.56-2.36.83-3.98.83h-3.73v7.66h-3.4ZM747.86,240.01h3.53c1.34,0,2.3-.3,2.88-.89.58-.59.88-1.39.88-2.39s-.29-1.85-.88-2.43-1.54-.88-2.88-.88h-3.53v6.58h0Z"/>
      <path class="st12" d="M761.53,250.43v-19.78h12.77v2.74h-9.38v5.68h8.53v2.68h-8.53v5.93h9.38v2.74h-12.77Z"/>
      <path class="st10" d="M784.76,253.26v-23.17h3.39v23.17h-3.39Z"/>
      <path class="st10" d="M799.03,250.43v-19.78h3.39v19.78h-3.39Z"/>
      <path class="st10" d="M806.4,250.43v-19.78h3.39l9.52,14.3v-14.3h3.39v19.78h-3.39l-9.52-14.27v14.27h-3.39Z"/>
      <path class="st10" d="M831.3,250.43v-17.04h-5.82v-2.74h15v2.74h-5.82v17.04h-3.36Z"/>
      <path class="st10" d="M843.28,250.43v-19.78h12.77v2.74h-9.38v5.68h8.53v2.68h-8.53v5.93h9.38v2.74h-12.77Z"/>
      <path class="st10" d="M859.61,250.43v-19.78h7.09c1.56,0,2.86.27,3.89.81s1.79,1.25,2.29,2.15.75,1.91.75,3.04c0,1.06-.25,2.03-.74,2.94s-1.25,1.63-2.29,2.18-2.36.82-3.98.82h-3.62v7.86h-3.39v-.02ZM863,240.06h3.48c1.26,0,2.19-.31,2.78-.92s.89-1.42.89-2.42-.29-1.77-.88-2.36c-.58-.59-1.52-.89-2.8-.89h-3.48v6.58h0ZM869.92,250.43l-4.15-8.73h3.67l4.35,8.73h-3.87,0Z"/>
      <path class="st10" d="M877.13,250.43v-19.78h3.39v19.78h-3.39Z"/>
      <path class="st10" d="M893.52,250.77c-1.9,0-3.58-.43-5.04-1.29-1.46-.86-2.6-2.05-3.43-3.59-.83-1.53-1.24-3.32-1.24-5.35s.41-3.79,1.24-5.33c.83-1.53,1.97-2.74,3.43-3.6,1.46-.87,3.14-1.3,5.04-1.3s3.65.43,5.11,1.3c1.47.87,2.61,2.07,3.42,3.6.81,1.54,1.21,3.31,1.21,5.33s-.41,3.82-1.21,5.35c-.81,1.54-1.95,2.73-3.42,3.59-1.47.86-3.17,1.29-5.11,1.29ZM893.54,247.72c1.26,0,2.36-.29,3.31-.86.94-.57,1.67-1.4,2.18-2.47.51-1.07.76-2.35.76-3.84s-.25-2.77-.76-3.84-1.23-1.9-2.18-2.47-2.04-.86-3.31-.86-2.36.29-3.31.86-1.67,1.4-2.19,2.47c-.52,1.07-.78,2.36-.78,3.84s.26,2.77.78,3.84,1.25,1.9,2.19,2.47c.94.58,2.04.86,3.31.86Z"/>
      <path class="st10" d="M906.57,250.43v-19.78h7.09c1.56,0,2.86.27,3.89.81s1.79,1.25,2.29,2.15.75,1.91.75,3.04c0,1.06-.25,2.03-.74,2.94s-1.25,1.63-2.29,2.18-2.36.82-3.98.82h-3.62v7.86h-3.39v-.02ZM909.96,240.06h3.48c1.26,0,2.19-.31,2.78-.92s.89-1.42.89-2.42-.29-1.77-.88-2.36c-.58-.59-1.52-.89-2.8-.89h-3.48v6.58h0ZM916.88,250.43l-4.15-8.73h3.67l4.35,8.73h-3.87,0Z"/>
      <path class="st10" d="M930.73,250.77c-1.43,0-2.7-.25-3.81-.76s-1.98-1.23-2.6-2.18c-.62-.94-.94-2.06-.96-3.36h3.59c0,.66.16,1.25.47,1.77s.74.93,1.3,1.23,1.23.45,2.02.45c.68,0,1.27-.11,1.77-.33.5-.22.89-.53,1.16-.93.27-.41.41-.88.41-1.43,0-.62-.15-1.13-.44-1.54-.29-.4-.69-.75-1.2-1.03s-1.09-.53-1.75-.75-1.36-.45-2.09-.69c-1.56-.53-2.74-1.2-3.53-2.02-.79-.82-1.19-1.92-1.19-3.29,0-1.15.27-2.14.82-2.97.55-.83,1.31-1.47,2.3-1.94.99-.46,2.13-.69,3.43-.69s2.47.24,3.46.71c.99.47,1.77,1.13,2.35,1.96.57.84.87,1.84.89,3.01h-3.62c-.02-.49-.15-.95-.4-1.37s-.6-.77-1.06-1.05c-.46-.27-1.02-.41-1.68-.41-.56-.02-1.07.07-1.51.27s-.79.48-1.05.85c-.25.37-.38.82-.38,1.37s.12.97.35,1.31c.24.35.58.64,1.03.88s.98.46,1.58.66,1.26.43,1.98.68c.98.32,1.87.71,2.67,1.17.8.46,1.44,1.06,1.91,1.79s.71,1.69.71,2.85c0,1.02-.26,1.96-.79,2.84-.53.88-1.3,1.58-2.32,2.12s-2.29.81-3.82.81h0Z"/>
    </g>
  </g>
</svg>