<svg width="33" height="32" viewBox="0 0 33 32" fill="none" xmlns="http://www.w3.org/2000/svg">
<path d="M17.1929 5.91985C16.4541 6.50665 16.0844 7.46672 16.1902 8.37354H16.1374C13.1817 3.89322 9.38147 1.38681 6.90076 2.6669C11.6511 0.159972 17.2985 1.70684 20.6236 5.97363C20.0956 5.54658 19.5154 5.33358 18.882 5.33358C18.4594 5.33358 18.0373 5.44007 17.615 5.65359C17.4568 5.70684 17.2985 5.81336 17.1929 5.91985Z" fill="white"/>
<path d="M7.95328 10.827C6.63361 11.5203 6.15872 13.2269 6.84498 14.6135C6.63361 14.2403 6.42267 13.9735 6.10617 13.7067H6.21152C4.20585 8.74717 4.25861 4.10712 6.68642 2.72053C6.68642 2.72053 6.68641 2.72053 6.73937 2.72053L11.6479 12.0539C11.12 11.0938 10.1699 10.5603 9.16739 10.5603C8.79768 10.507 8.37558 10.6135 7.95328 10.827Z" fill="white"/>
<path d="M16.137 8.37349H16.1898C16.2425 8.74676 16.3479 9.06678 16.5065 9.44005C15.9786 8.47998 15.0287 7.94643 14.0259 7.94643C13.6034 7.94643 13.1813 8.05346 12.7589 8.26699C11.4396 8.96028 10.9645 10.6664 11.6507 12.0535L6.74219 2.72011H6.79499C6.79499 2.72011 6.84779 2.7201 6.84779 2.66685C9.3811 1.38676 13.1813 3.89318 16.137 8.37349Z" fill="white"/>
<path d="M6.21595 13.653H6.11061C5.42414 13.12 4.52678 12.9065 3.68243 13.12C3.47149 13.1733 3.31293 13.2265 3.10199 13.333C2.09902 13.8666 1.57138 14.9331 1.67693 16.0535C0.0407701 10.8266 1.99342 5.22701 6.69085 2.66683C4.31584 4.10667 4.21029 8.69347 6.21595 13.653Z" fill="white"/>
<path d="M28.5423 0.693368C30.3893 0.693368 31.8674 2.18645 31.8674 4.05334C31.8674 5.91969 30.3893 7.41333 28.5423 7.41333C26.6948 7.41333 25.2172 5.91969 25.2172 4.05334C25.2172 2.18645 26.6948 0.693368 28.5423 0.693368Z" fill="white"/>
<path d="M13.3377 27.9997L5.42067 31.3596H3.46802L5.42067 27.9997H13.3377Z" fill="white"/>
<path d="M27.8561 27.9997L29.8617 31.3596H27.8561L19.9391 27.9997H27.8561Z" fill="white"/>
<path d="M31.8149 24.6933V28H2.15234V24.6933H5.10796H22.2616H29.1753H31.8149Z" fill="white"/>
<path d="M28.6965 16.4804C29.3299 17.1204 29.3299 18.187 28.6965 18.827L26.3742 21.1737L23.5771 24.0001L23.5244 24.0533C23.2077 24.3734 22.7851 24.6401 22.3103 24.6401H5.10397C4.62912 24.6401 4.25956 24.4804 3.94286 24.1604C3.62616 23.8403 3.46802 23.4671 3.46802 22.9868C3.46802 22.0805 4.20682 21.3334 5.10397 21.3334H21.5715L26.3742 16.4804C27.0076 15.8403 28.0631 15.8403 28.6965 16.4804Z" fill="white"/>
<path d="M30.3348 9.54621C30.4402 9.65324 30.5461 9.81298 30.5461 10.0265C30.5461 10.1863 30.4934 10.3998 30.3348 10.5063C30.2294 10.6128 30.0181 10.666 29.86 10.666C29.49 10.666 29.1733 10.346 29.1733 9.97273C29.1733 9.81298 29.2266 9.59945 29.3847 9.49295C29.49 9.38645 29.6487 9.27944 29.86 9.27944C30.0181 9.33322 30.2294 9.38647 30.3348 9.54621Z" fill="#2CA2FC"/>
<path d="M25.6921 11.5202C25.7975 11.6267 25.9035 11.787 25.9035 12.0006C25.9035 12.1603 25.8502 12.3738 25.6921 12.4803C25.5868 12.5868 25.4281 12.6938 25.2173 12.6938C24.8479 12.6938 24.5312 12.3738 24.5312 12.0006C24.5312 11.8403 24.5839 11.6267 24.742 11.5202C24.8479 11.4137 25.006 11.3067 25.2173 11.3067C25.4281 11.3067 25.5868 11.4137 25.6921 11.5202Z" fill="#2CA2FC"/>
<path d="M18.6445 10.3654L19.5774 9.42224L20.5103 10.3654L19.5774 11.3081L18.6445 10.3654Z" fill="#2CA2FC"/>
<path d="M19.0932 15.5198C19.1991 15.6263 19.3045 15.7865 19.3045 16.0001C19.3045 16.2131 19.2518 16.3733 19.0932 16.4798C18.9878 16.5863 18.8292 16.6934 18.6184 16.6934C18.2485 16.6934 17.932 16.3733 17.932 16.0001C17.932 15.8398 17.985 15.6263 18.1431 15.5198C18.2485 15.4133 18.4071 15.3063 18.6184 15.3063C18.8292 15.3063 18.9878 15.4133 19.0932 15.5198Z" fill="#2CA2FC"/>
<path d="M11.8635 18.187C11.9691 18.2935 12.0745 18.4538 12.0745 18.6668C12.0745 18.8803 12.0217 19.0406 11.8635 19.1471C11.705 19.2536 11.5996 19.3606 11.3885 19.3606C11.019 19.3606 10.7023 19.0406 10.7023 18.6668C10.7023 18.507 10.755 18.2935 10.9132 18.187C11.019 18.0805 11.1771 17.9735 11.3885 17.9735C11.5466 18.0267 11.7578 18.0805 11.8635 18.187Z" fill="#2CA2FC"/>
<path d="M6.11161 16.9604L5.16124 17.8672L4.26404 16.9604L5.16124 16.0008L6.11161 16.9604Z" fill="#2CA2FC"/>
<path d="M31.815 28.6934H27.8565C27.4871 28.6934 27.1704 28.3733 27.1704 28.0001C27.1704 27.6268 27.4871 27.3068 27.8565 27.3068H31.1816V25.2802H22.2618C21.8919 25.2802 21.5757 24.9601 21.5757 24.5869C21.5757 24.2136 21.8919 23.8936 22.2618 23.8936H31.815C32.1844 23.8936 32.5006 24.2136 32.5006 24.5869V27.9468C32.5006 28.3734 32.1844 28.6934 31.815 28.6934Z" fill="#2CA2FC"/>
<path d="M5.42133 28.6934H2.09621C1.72691 28.6934 1.41016 28.3733 1.41016 28.0001V24.6401C1.41016 24.2668 1.72691 23.9468 2.09621 23.9468H5.05182C5.42132 23.9468 5.73808 24.2668 5.73808 24.6401C5.73808 25.0134 5.42132 25.3334 5.05182 25.3334H2.78241V27.36H5.42133C5.79104 27.36 6.10779 27.6801 6.10779 28.0533C6.10779 28.3734 5.79104 28.6934 5.42133 28.6934Z" fill="#2CA2FC"/>
<path d="M19.9391 28.6934H13.3414C12.9722 28.6934 12.6554 28.3733 12.6554 28.0001C12.6554 27.6268 12.9722 27.3068 13.3414 27.3068H19.9391C20.3085 27.3068 20.6252 27.6268 20.6252 28.0001C20.6252 28.3733 20.3085 28.6934 19.9391 28.6934Z" fill="#2CA2FC"/>
<path d="M4.63153 30.6667H5.31774L10.0679 28.64H5.84539L4.63153 30.6667ZM5.42308 32H3.41763C3.15368 32 2.94253 31.8935 2.83698 31.68C2.73142 31.467 2.73142 31.2002 2.83698 30.9867L4.84243 27.6267C4.94824 27.4137 5.15918 27.3067 5.42308 27.3067H13.3401C13.6568 27.3067 13.9207 27.5202 13.9733 27.8402C14.0265 28.1603 13.8679 28.4797 13.604 28.5868L5.68704 31.9467C5.63424 32 5.52889 32 5.42308 32Z" fill="#2CA2FC"/>
<path d="M28.0145 30.6667H28.7006L27.487 28.64H23.2645L28.0145 30.6667ZM29.862 32H27.8564C27.7505 32 27.6978 32 27.5924 31.9467L19.6753 28.5868C19.3586 28.4797 19.2006 28.1603 19.3059 27.8402C19.3586 27.5202 19.6227 27.3067 19.9394 27.3067H27.8564C28.0672 27.3067 28.2785 27.4137 28.4366 27.6267L30.4422 30.9867C30.5481 31.2002 30.5481 31.467 30.4422 31.68C30.3368 31.8935 30.0728 32 29.862 32Z" fill="#2CA2FC"/>
<path d="M5.10273 22.0265C4.57487 22.0265 4.09997 22.4536 4.09997 23.0404C4.09997 23.3066 4.20558 23.5734 4.36393 23.7337C4.57487 23.9467 4.78623 23.9999 5.04992 23.9999H22.2032C22.4672 23.9999 22.7312 23.8934 22.9425 23.6799L22.9952 23.6266L23.0479 23.5734L28.1678 18.3998C28.3786 18.1868 28.484 17.9733 28.484 17.7065C28.484 17.4403 28.3786 17.1735 28.2205 17.0132C28.0092 16.8002 27.7984 16.747 27.5344 16.747C27.2704 16.747 27.0064 16.8535 26.8483 17.0132L22.0451 21.8668C21.9397 21.9733 21.7284 22.0803 21.5703 22.0803L5.10273 22.0265ZM22.2564 25.3333H5.10273C4.46948 25.3333 3.88882 25.0665 3.46678 24.64C3.04426 24.2134 2.78052 23.6267 2.78052 22.9866C2.78052 21.7065 3.83607 20.6399 5.10273 20.6399H21.3063L25.8982 16.0004C26.3203 15.5734 26.901 15.3066 27.5344 15.3066C28.1678 15.3066 28.748 15.5734 29.1701 16.0004C29.5927 16.4269 29.8567 17.0132 29.8567 17.6533C29.8567 18.2933 29.5927 18.8801 29.1701 19.3066L24.0507 24.4802L23.998 24.5335C23.5232 25.0665 22.9425 25.3333 22.2564 25.3333Z" fill="#2CA2FC"/>
<path d="M29.2277 25.3333C29.0164 25.3333 28.8578 25.2268 28.6997 25.0665L26.0607 21.7598C25.8494 21.4935 25.9026 21.0665 26.1666 20.8002C26.4301 20.5867 26.8527 20.6399 27.1167 20.9067L29.7552 24.2667C29.9665 24.5335 29.9138 24.96 29.6498 25.2268C29.4912 25.28 29.3331 25.3333 29.2277 25.3333Z" fill="#2CA2FC"/>
<path d="M21.9438 32H5.42355C5.05404 32 4.73755 31.68 4.73755 31.3067C4.73755 30.9334 5.05404 30.6134 5.42355 30.6134H21.9438C22.3132 30.6134 22.6299 30.9334 22.6299 31.3067C22.5772 31.68 22.3132 32 21.9438 32Z" fill="#2CA2FC"/>
<path d="M6.21409 14.3464C5.95018 14.3464 5.68623 14.1867 5.58068 13.9199C4.57772 11.4135 4.05028 8.90657 4.10282 6.82669C4.20842 4.53328 4.94743 2.93317 6.37244 2.13338C6.68898 1.97363 7.11124 2.08013 7.26964 2.40015C7.42799 2.72018 7.3226 3.14669 7.0059 3.30644C4.94743 4.48003 4.89463 8.74682 6.79474 13.4401C6.95289 13.7601 6.79474 14.1867 6.42524 14.2932C6.42524 14.3464 6.31969 14.3464 6.21409 14.3464Z" fill="#2CA2FC"/>
<path d="M6.7958 3.35986C6.58444 3.35986 6.37349 3.25285 6.26794 3.03985C6.05658 2.71983 6.16234 2.2933 6.42629 2.13302L6.4791 2.07979C6.4791 2.07979 6.4791 2.07979 6.53185 2.07979C6.8486 1.92004 7.2179 2.02654 7.42905 2.34656C7.5874 2.66658 7.48185 3.0931 7.1651 3.25285C7.1651 3.25285 7.16509 3.25285 7.11229 3.25285C7.00695 3.3061 6.90119 3.35986 6.7958 3.35986Z" fill="#2CA2FC"/>
<path d="M16.1391 9.01294C15.9279 9.01294 15.7168 8.90592 15.6112 8.69293C12.8139 4.47939 9.27764 2.13273 7.21917 3.19929C6.90247 3.35957 6.48037 3.25255 6.32202 2.87928C6.16362 2.55926 6.26922 2.13274 6.63852 1.97299C8.06373 1.2797 9.80549 1.54648 11.7582 2.71954C13.5002 3.78611 15.2419 5.65297 16.7195 7.8926C16.9307 8.21262 16.8251 8.63968 16.5614 8.79943C16.35 9.01295 16.2446 9.01294 16.1391 9.01294Z" fill="#2CA2FC"/>
<path d="M16.6146 21.9194C16.4035 21.9194 16.1398 21.8129 16.034 21.5462L5.47832 1.59986C5.31997 1.27984 5.42531 0.852784 5.74206 0.693036C6.05856 0.532762 6.48107 0.63979 6.63921 0.959812L17.1953 20.9061C17.3536 21.2261 17.2481 21.6527 16.9314 21.8129C16.8258 21.9194 16.7202 21.9194 16.6146 21.9194Z" fill="#2CA2FC"/>
<path d="M7.11293 3.2539L7.06039 3.30713C3.41852 5.33429 1.46539 9.33432 1.88791 13.6006C2.15165 13.2806 2.46857 13.0143 2.83786 12.854C3.0488 12.7475 3.31276 12.641 3.57666 12.5872C3.84061 12.534 4.15731 12.4807 4.42127 12.4807C4.94912 12.4807 5.47698 12.5873 5.89908 12.854C5.89908 12.6943 5.95188 12.534 6.00462 12.3742C6.26858 11.4674 6.84923 10.7741 7.64104 10.2938C8.11568 10.0276 8.64354 9.92057 9.22419 9.92057C9.75189 9.92057 10.2797 10.0276 10.7548 10.2938C10.913 9.22728 11.4936 8.26775 12.4968 7.7342C12.9717 7.46743 13.4995 7.36093 14.08 7.36093C14.6076 7.36093 15.1355 7.46743 15.558 7.7342C15.6633 6.88064 16.0854 6.08085 16.7718 5.5473C16.93 5.38755 17.1412 5.28105 17.2995 5.17402C17.669 4.96103 18.0911 4.854 18.4605 4.80075C16.5079 3.14739 14.1327 2.24057 11.7048 2.24057C10.1216 2.24057 8.591 2.61384 7.16573 3.36091C7.16573 3.25388 7.16573 3.2539 7.11293 3.2539C7.16573 3.2539 7.16573 3.2539 7.11293 3.2539ZM1.72956 16.8008C1.4654 16.8008 1.2017 16.6405 1.0961 16.321C0.251539 13.6538 0.304499 10.7742 1.25445 8.21398C2.20461 5.60108 3.99917 3.46741 6.42693 2.13407H6.47973C6.47973 2.13407 6.47973 2.13407 6.53248 2.13407C6.53248 2.13407 6.58507 2.13408 6.58507 2.08083C8.22128 1.22779 9.91045 0.80073 11.7048 0.80073C13.4467 0.80073 15.2413 1.22778 16.8772 2.02757C18.5132 2.82736 19.9913 4.05422 21.1522 5.5473C21.3635 5.81407 21.3635 6.18733 21.0995 6.4541C20.836 6.6671 20.4666 6.72089 20.2026 6.50736C19.8332 6.18734 19.3579 6.02759 18.8299 6.02759C18.5132 6.02759 18.1965 6.13409 17.88 6.24059C17.7746 6.29384 17.669 6.40085 17.5632 6.4541C17.0354 6.88062 16.7189 7.62717 16.8244 8.32099C16.8772 8.58777 16.93 8.85401 17.0354 9.12078C17.0886 9.22728 17.1412 9.33432 17.1412 9.44082C17.1412 9.81409 16.8772 10.0808 16.5607 10.0808C16.2966 10.0808 16.0327 9.97384 15.9273 9.7076C15.558 9.0143 14.8188 8.53399 14.0274 8.53399C13.7107 8.53399 13.3939 8.64102 13.077 8.80077C12.0743 9.33431 11.7048 10.6139 12.2326 11.681C12.2854 11.7875 12.3382 11.894 12.3382 12.001C12.3382 12.3743 12.0743 12.641 11.7576 12.641C11.4936 12.641 11.2297 12.534 11.1243 12.2672C10.7548 11.5739 10.0158 11.0942 9.22419 11.0942C8.9077 11.0942 8.59099 11.2007 8.27424 11.3609C7.79919 11.6272 7.42968 12.0542 7.27133 12.5872C7.11293 13.1208 7.16573 13.7071 7.42968 14.1874C7.48249 14.2939 7.53523 14.4004 7.53523 14.5074C7.53523 14.8806 7.27133 15.1474 6.95458 15.1474C6.69068 15.1474 6.42693 15.0409 6.32138 14.7742C6.16298 14.5074 6.00462 14.2406 5.74072 14.0809C5.37122 13.7608 4.89632 13.6006 4.42127 13.6006C4.26286 13.6006 4.05197 13.6006 3.89336 13.6538C3.73522 13.7071 3.57666 13.7608 3.47132 13.8141C2.73231 14.1874 2.3628 14.9871 2.41555 15.8407C2.41555 15.894 2.41555 15.894 2.41555 15.9478C2.41555 16.4808 2.09885 16.7475 1.72956 16.8008Z" fill="#2CA2FC"/>
<path d="M28.5406 1.3333C27.063 1.3333 25.9015 2.50637 25.9015 3.99998C25.9015 5.49307 27.063 6.66612 28.5406 6.66612C30.0182 6.66612 31.1796 5.49307 31.1796 3.99998C31.1796 2.50637 30.0182 1.3333 28.5406 1.3333ZM28.5406 8C26.3763 8 24.582 6.18636 24.582 3.99998C24.582 1.81307 26.3763 -4.00947e-05 28.5406 -4.00947e-05C30.7043 -4.00947e-05 32.4986 1.81307 32.4986 3.99998C32.4986 6.18636 30.7043 8 28.5406 8Z" fill="#2CA2FC"/>
<path d="M29.8605 4.69385C29.4906 4.69385 29.1739 4.37383 29.1739 4.00056C29.1739 3.62676 28.8572 3.30673 28.4878 3.30673C28.1184 3.30673 27.8022 2.98671 27.8022 2.61344C27.8022 2.24017 28.1184 1.92067 28.4878 1.92067C29.5965 1.92067 30.494 2.82697 30.494 3.94678C30.494 4.37383 30.2299 4.69385 29.8605 4.69385Z" fill="#2CA2FC"/>
</svg>
