<svg width="33" height="32" viewBox="0 0 33 32" fill="none" xmlns="http://www.w3.org/2000/svg">
<path d="M17.1937 5.91958C16.4549 6.50639 16.0852 7.46646 16.191 8.37329H16.1382C13.1826 3.89293 9.38235 1.38649 6.90164 2.66659C11.652 0.159639 17.2993 1.70653 20.6245 5.97336C20.0965 5.54631 19.5163 5.3333 18.8829 5.3333C18.4603 5.3333 18.0382 5.43979 17.6158 5.65332C17.4577 5.70657 17.2993 5.81308 17.1937 5.91958Z" fill="#005395"/>
<path d="M7.95733 10.8265C6.63767 11.5198 6.16277 13.2264 6.84903 14.613C6.63767 14.2398 6.42672 13.973 6.11023 13.7062H6.21557C4.20991 8.74662 4.26266 4.10652 6.69047 2.71992C6.69047 2.71992 6.69047 2.71992 6.74343 2.71992L11.6519 12.0534C11.1241 11.0933 10.1739 10.5597 9.17144 10.5597C8.80173 10.5065 8.37964 10.613 7.95733 10.8265Z" fill="#005395"/>
<path d="M16.1382 8.3732H16.191C16.2437 8.74648 16.3491 9.0665 16.5077 9.43978C15.9798 8.4797 15.0299 7.94614 14.0271 7.94614C13.6046 7.94614 13.1825 8.05318 12.7601 8.2667C11.4408 8.96 10.9657 10.6661 11.6519 12.0532L6.74341 2.71977H6.79621C6.79621 2.71977 6.84901 2.71976 6.84901 2.66651C9.38232 1.3864 13.1825 3.89284 16.1382 8.3732Z" fill="#005395"/>
<path d="M6.21573 13.653H6.11039C5.42392 13.12 4.52656 12.9065 3.68222 13.12C3.47127 13.1732 3.31271 13.2265 3.10177 13.333C2.09881 13.8665 1.57116 14.9331 1.67671 16.0535C0.0405582 10.8266 1.99321 5.22689 6.69063 2.66669C4.31562 4.10654 4.21007 8.69339 6.21573 13.653Z" fill="#005395"/>
<path d="M28.542 0.693296C30.389 0.693296 31.8671 2.1864 31.8671 4.0533C31.8671 5.91968 30.389 7.41333 28.542 7.41333C26.6945 7.41333 25.2169 5.91968 25.2169 4.0533C25.2169 2.1864 26.6945 0.693296 28.542 0.693296Z" fill="#005395"/>
<path d="M13.3412 27.9999L5.42418 31.3599H3.47153L5.42418 27.9999H13.3412Z" fill="#005395"/>
<path d="M27.8558 27.9999L29.8614 31.3599H27.8558L19.9388 27.9999H27.8558Z" fill="#005395"/>
<path d="M31.8141 24.693V27.9998H2.15161V24.693H5.10722H22.2608H29.1745H31.8141Z" fill="#005395"/>
<path d="M28.7 16.48C29.3334 17.1201 29.3334 18.1867 28.7 18.8267L26.3777 21.1734L23.5806 23.9998L23.5279 24.0531C23.2112 24.3731 22.7886 24.6399 22.3138 24.6399H5.10747C4.63263 24.6399 4.26307 24.4801 3.94637 24.1601C3.62967 23.8401 3.47153 23.4668 3.47153 22.9865C3.47153 22.0802 4.21032 21.3331 5.10747 21.3331H21.575L26.3777 16.48C27.0111 15.84 28.0666 15.84 28.7 16.48Z" fill="#005395"/>
<path d="M30.3358 9.54645C30.4412 9.65347 30.5471 9.81322 30.5471 10.0267C30.5471 10.1865 30.4944 10.4 30.3358 10.5065C30.2304 10.613 30.0191 10.6663 29.861 10.6663C29.4911 10.6663 29.1743 10.3462 29.1743 9.97296C29.1743 9.81321 29.2276 9.59968 29.3857 9.49318C29.4911 9.38668 29.6497 9.27967 29.861 9.27967C30.0191 9.33345 30.2304 9.3867 30.3358 9.54645Z" fill="white"/>
<path d="M25.6914 11.5197C25.7968 11.6262 25.9027 11.7865 25.9027 12.0001C25.9027 12.1598 25.8495 12.3733 25.6914 12.4798C25.586 12.5863 25.4274 12.6934 25.2166 12.6934C24.8472 12.6934 24.5305 12.3733 24.5305 12.0001C24.5305 11.8398 24.5832 11.6262 24.7413 11.5197C24.8472 11.4132 25.0053 11.3062 25.2166 11.3062C25.4274 11.3062 25.586 11.4132 25.6914 11.5197Z" fill="white"/>
<path d="M18.6448 10.3657L19.5777 9.42246L20.5106 10.3657L19.5777 11.3083L18.6448 10.3657Z" fill="white"/>
<path d="M19.0937 15.52C19.1996 15.6265 19.305 15.7868 19.305 16.0003C19.305 16.2133 19.2523 16.3736 19.0937 16.4801C18.9883 16.5866 18.8297 16.6936 18.6189 16.6936C18.249 16.6936 17.9325 16.3736 17.9325 16.0003C17.9325 15.84 17.9855 15.6265 18.1436 15.52C18.249 15.4135 18.4076 15.3065 18.6189 15.3065C18.8297 15.3065 18.9883 15.4135 19.0937 15.52Z" fill="white"/>
<path d="M11.8636 18.1868C11.9693 18.2933 12.0746 18.4535 12.0746 18.6665C12.0746 18.8801 12.0218 19.0403 11.8636 19.1468C11.7051 19.2533 11.5997 19.3604 11.3886 19.3604C11.0191 19.3604 10.7024 19.0403 10.7024 18.6665C10.7024 18.5068 10.7551 18.2933 10.9133 18.1868C11.0191 18.0803 11.1772 17.9732 11.3886 17.9732C11.5467 18.0265 11.7579 18.0803 11.8636 18.1868Z" fill="white"/>
<path d="M6.11011 16.9599L5.15975 17.8667L4.26254 16.9599L5.15975 16.0003L6.11011 16.9599Z" fill="white"/>
<path d="M31.8144 28.6931H27.8559C27.4865 28.6931 27.1698 28.3731 27.1698 27.9998C27.1698 27.6265 27.4865 27.3065 27.8559 27.3065H31.181V25.2799H22.2612C21.8913 25.2799 21.5751 24.9599 21.5751 24.5866C21.5751 24.2133 21.8913 23.8933 22.2612 23.8933H31.8144C32.1838 23.8933 32.5 24.2133 32.5 24.5866V27.9466C32.5 28.3731 32.1838 28.6931 31.8144 28.6931Z" fill="white"/>
<path d="M5.4237 28.6931H2.09859C1.72929 28.6931 1.41254 28.3731 1.41254 27.9998V24.6398C1.41254 24.2665 1.72929 23.9465 2.09859 23.9465H5.05419C5.4237 23.9465 5.74045 24.2665 5.74045 24.6398C5.74045 25.0131 5.4237 25.3331 5.05419 25.3331H2.78479V27.3598H5.4237C5.79341 27.3598 6.11016 27.6798 6.11016 28.0531C6.11016 28.3731 5.79341 28.6931 5.4237 28.6931Z" fill="white"/>
<path d="M19.9388 28.6931H13.3412C12.9719 28.6931 12.6551 28.3731 12.6551 27.9998C12.6551 27.6265 12.9719 27.3065 13.3412 27.3065H19.9388C20.3082 27.3065 20.6249 27.6265 20.6249 27.9998C20.6249 28.3731 20.3082 28.6931 19.9388 28.6931Z" fill="white"/>
<path d="M4.63217 30.6666H5.31838L10.0685 28.64H5.84602L4.63217 30.6666ZM5.42372 32H3.41827C3.15432 32 2.94317 31.8935 2.83762 31.68C2.73207 31.467 2.73207 31.2002 2.83762 30.9867L4.84306 27.6267C4.94887 27.4137 5.15982 27.3066 5.42372 27.3066H13.3407C13.6574 27.3066 13.9214 27.5202 13.9739 27.8402C14.0271 28.1602 13.8686 28.4797 13.6046 28.5867L5.68767 31.9467C5.63487 32 5.52953 32 5.42372 32Z" fill="white"/>
<path d="M28.0141 30.6666H28.7002L27.4866 28.64H23.2641L28.0141 30.6666ZM29.8616 32H27.856C27.7501 32 27.6974 32 27.592 31.9467L19.675 28.5867C19.3583 28.4797 19.2002 28.1602 19.3056 27.8402C19.3583 27.5202 19.6223 27.3066 19.939 27.3066H27.856C28.0668 27.3066 28.2781 27.4137 28.4362 27.6267L30.4418 30.9867C30.5477 31.2002 30.5477 31.467 30.4418 31.68C30.3364 31.8935 30.0724 32 29.8616 32Z" fill="white"/>
<path d="M5.10739 22.0263C4.57954 22.0263 4.10464 22.4533 4.10464 23.0401C4.10464 23.3064 4.21024 23.5731 4.36859 23.7334C4.57954 23.9464 4.7909 23.9997 5.05459 23.9997H22.2078C22.4718 23.9997 22.7358 23.8932 22.9471 23.6796L22.9998 23.6264L23.0525 23.5731L28.1724 18.3995C28.3832 18.1865 28.4886 17.973 28.4886 17.7062C28.4886 17.4399 28.3832 17.1731 28.2251 17.0129C28.0138 16.7999 27.803 16.7466 27.539 16.7466C27.275 16.7466 27.011 16.8531 26.8529 17.0129L22.0497 21.8665C21.9443 21.973 21.733 22.08 21.5749 22.08L5.10739 22.0263ZM22.261 25.333H5.10739C4.47414 25.333 3.89349 25.0662 3.47145 24.6397C3.04893 24.2132 2.78519 23.6264 2.78519 22.9863C2.78519 21.7062 3.84074 20.6396 5.10739 20.6396H21.3109L25.9028 16.0001C26.3249 15.573 26.9056 15.3063 27.539 15.3063C28.1724 15.3063 28.7526 15.573 29.1747 16.0001C29.5973 16.4266 29.8613 17.0129 29.8613 17.6529C29.8613 18.293 29.5973 18.8798 29.1747 19.3063L24.0553 24.48L24.0026 24.5332C23.5278 25.0662 22.9471 25.333 22.261 25.333Z" fill="white"/>
<path d="M29.228 25.333C29.0167 25.333 28.8581 25.2265 28.7 25.0662L26.061 21.7595C25.8497 21.4932 25.9029 21.0662 26.1669 20.7999C26.4304 20.5864 26.853 20.6397 27.117 20.9064L29.7555 24.2664C29.9668 24.5332 29.9141 24.9597 29.6501 25.2265C29.4915 25.2798 29.3334 25.333 29.228 25.333Z" fill="white"/>
<path d="M21.9442 32H5.42394C5.05444 32 4.73795 31.68 4.73795 31.3067C4.73795 30.9334 5.05444 30.6134 5.42394 30.6134H21.9442C22.3136 30.6134 22.6303 30.9334 22.6303 31.3067C22.5776 31.68 22.3136 32 21.9442 32Z" fill="white"/>
<path d="M6.21616 14.3462C5.95226 14.3462 5.6883 14.1864 5.58275 13.9196C4.5798 11.4132 4.05236 8.90626 4.1049 6.82636C4.2105 4.53293 4.94951 2.9328 6.37451 2.133C6.69106 1.97325 7.11331 2.07976 7.27171 2.39978C7.43006 2.71981 7.32467 3.14633 7.00797 3.30608C4.94951 4.47968 4.89671 8.74651 6.79681 13.4399C6.95496 13.7599 6.79681 14.1864 6.42731 14.2929C6.42731 14.3462 6.32176 14.3462 6.21616 14.3462Z" fill="white"/>
<path d="M6.79675 3.35986C6.58538 3.35986 6.37444 3.25285 6.26889 3.03985C6.05753 2.71982 6.16329 2.29329 6.42724 2.13301L6.48004 2.07977C6.48004 2.07977 6.48004 2.07977 6.53279 2.07977C6.84955 1.92002 7.21884 2.02653 7.42999 2.34655C7.58835 2.66658 7.48279 3.0931 7.16604 3.25285C7.16604 3.25285 7.16604 3.25285 7.11324 3.25285C7.0079 3.3061 6.90214 3.35986 6.79675 3.35986Z" fill="white"/>
<path d="M16.1388 9.01343C15.9276 9.01343 15.7165 8.90641 15.6109 8.69341C12.8136 4.47983 9.27736 2.13314 7.2189 3.19972C6.90219 3.35999 6.4801 3.25297 6.32175 2.8797C6.16334 2.55967 6.26895 2.13315 6.63824 1.9734C8.06345 1.2801 9.80521 1.54689 11.7579 2.71996C13.4999 3.78654 15.2416 5.65342 16.7192 7.89307C16.9304 8.2131 16.8248 8.64016 16.5611 8.79991C16.3497 9.01344 16.2443 9.01343 16.1388 9.01343Z" fill="white"/>
<path d="M16.6135 21.9199C16.4024 21.9199 16.1387 21.8134 16.0329 21.5466L5.47722 1.60013C5.31887 1.28011 5.42421 0.853043 5.74096 0.693294C6.05746 0.533017 6.47997 0.640047 6.63811 0.960073L17.1942 20.9066C17.3525 21.2266 17.247 21.6531 16.9303 21.8134C16.8247 21.9199 16.7191 21.9199 16.6135 21.9199Z" fill="white"/>
<path d="M7.11292 3.25302L7.06038 3.30625C3.41851 5.33343 1.46539 9.3335 1.88791 13.5998C2.15165 13.2798 2.46856 13.0135 2.83786 12.8532C3.0488 12.7467 3.31275 12.6402 3.57665 12.5865C3.84061 12.5332 4.15731 12.48 4.42126 12.48C4.94912 12.48 5.47697 12.5865 5.89907 12.8532C5.89907 12.6935 5.95187 12.5332 6.00462 12.3735C6.26857 11.4666 6.84922 10.7733 7.64103 10.293C8.11567 10.0268 8.64352 9.91976 9.22418 9.91976C9.75188 9.91976 10.2797 10.0268 10.7548 10.293C10.913 9.22646 11.4936 8.26693 12.4968 7.73337C12.9716 7.4666 13.4995 7.36009 14.08 7.36009C14.6076 7.36009 15.1355 7.4666 15.558 7.73337C15.6633 6.8798 16.0854 6.08 16.7718 5.54645C16.93 5.3867 17.1412 5.28019 17.2995 5.17317C17.669 4.96017 18.0911 4.85314 18.4605 4.79989C16.5079 3.14651 14.1327 2.23968 11.7047 2.23968C10.1216 2.23968 8.59098 2.61295 7.16572 3.36003C7.16572 3.253 7.16572 3.25302 7.11292 3.25302C7.16572 3.25302 7.16572 3.25302 7.11292 3.25302ZM1.72956 16.8C1.46539 16.8 1.2017 16.6398 1.0961 16.3203C0.25154 13.6531 0.304499 10.7734 1.25445 8.21315C2.20461 5.60023 3.99916 3.46653 6.42692 2.13318H6.47972C6.47972 2.13318 6.47972 2.13318 6.53247 2.13318C6.53247 2.13318 6.58506 2.13319 6.58506 2.07994C8.22127 1.22689 9.91043 0.799824 11.7047 0.799824C13.4467 0.799824 15.2413 1.22688 16.8772 2.02668C18.5132 2.82648 19.9913 4.05334 21.1522 5.54645C21.3635 5.81322 21.3635 6.18648 21.0995 6.45326C20.836 6.66626 20.4666 6.72005 20.2026 6.50652C19.8332 6.18649 19.3579 6.02674 18.8299 6.02674C18.5132 6.02674 18.1965 6.13324 17.88 6.23974C17.7746 6.29299 17.669 6.40001 17.5632 6.45326C17.0353 6.87978 16.7189 7.62634 16.8244 8.32017C16.8772 8.58695 16.93 8.85319 17.0353 9.11997C17.0886 9.22646 17.1412 9.33351 17.1412 9.44001C17.1412 9.81328 16.8772 10.08 16.5607 10.08C16.2966 10.08 16.0327 9.97304 15.9273 9.70679C15.558 9.01349 14.8187 8.53317 14.0274 8.53317C13.7107 8.53317 13.3939 8.6402 13.077 8.79995C12.0742 9.3335 11.7047 10.6131 12.2326 11.6802C12.2854 11.7867 12.3382 11.8932 12.3382 12.0002C12.3382 12.3735 12.0742 12.6402 11.7575 12.6402C11.4936 12.6402 11.2297 12.5332 11.1243 12.2665C10.7548 11.5732 10.0158 11.0934 9.22418 11.0934C8.90769 11.0934 8.59098 11.1999 8.27423 11.3602C7.79917 11.6264 7.42967 12.0534 7.27132 12.5865C7.11292 13.12 7.16572 13.7063 7.42967 14.1866C7.48247 14.2931 7.53522 14.3996 7.53522 14.5066C7.53522 14.8799 7.27132 15.1467 6.95457 15.1467C6.69067 15.1467 6.42692 15.0402 6.32137 14.7734C6.16297 14.5066 6.00462 14.2399 5.74071 14.0801C5.37121 13.7601 4.89631 13.5998 4.42126 13.5998C4.26286 13.5998 4.05197 13.5998 3.89336 13.653C3.73521 13.7063 3.57665 13.7601 3.47131 13.8133C2.73231 14.1866 2.3628 14.9864 2.41555 15.84C2.41555 15.8932 2.41555 15.8932 2.41555 15.947C2.41555 16.48 2.09885 16.7468 1.72956 16.8Z" fill="white"/>
<path d="M28.5418 1.33323C27.0642 1.33323 25.9028 2.50631 25.9028 3.99994C25.9028 5.49304 27.0642 6.66611 28.5418 6.66611C30.0194 6.66611 31.1808 5.49304 31.1808 3.99994C31.1808 2.50631 30.0194 1.33323 28.5418 1.33323ZM28.5418 8C26.3776 8 24.5833 6.18634 24.5833 3.99994C24.5833 1.81301 26.3776 -0.000124886 28.5418 -0.000124886C30.7055 -0.000124886 32.4998 1.81301 32.4998 3.99994C32.4998 6.18634 30.7055 8 28.5418 8Z" fill="white"/>
<path d="M29.8615 4.69336C29.4916 4.69336 29.1749 4.37334 29.1749 4.00006C29.1749 3.62626 28.8582 3.30623 28.4888 3.30623C28.1194 3.30623 27.8032 2.98621 27.8032 2.61293C27.8032 2.23966 28.1194 1.92015 28.4888 1.92015C29.5975 1.92015 30.4949 2.82646 30.4949 3.94629C30.4949 4.37334 30.2309 4.69336 29.8615 4.69336Z" fill="white"/>
</svg>
