<svg width="32" height="32" viewBox="0 0 32 32" fill="none" xmlns="http://www.w3.org/2000/svg">
<path d="M6.2782 16.723V31.2783H25.0556V16.723H6.2782Z" fill="white"/>
<path d="M12.5544 31.2783V26.7788C12.5544 25.056 13.9439 23.6676 15.6656 23.6676C16.5548 23.6676 17.333 24.0004 17.8882 24.5562C18.4434 25.112 18.7774 25.8896 18.7774 26.7788V31.2783H12.5544Z" fill="white"/>
<path d="M31.776 18.2775C31.8875 18.389 31.999 18.5554 31.999 18.7778C31.999 18.9997 31.943 19.1667 31.776 19.2776C31.6651 19.3885 31.4987 19.5 31.2763 19.5C30.8874 19.5 30.5541 19.1666 30.5541 18.7778C30.5541 18.6109 30.6095 18.389 30.7765 18.2775C30.8874 18.1666 31.0544 18.0556 31.2763 18.0556C31.4432 18.0556 31.6651 18.1666 31.776 18.2775Z" fill="#2CA2FC"/>
<path d="M29.8878 21.5557C30.666 21.5557 31.2767 22.167 31.2767 22.9447C31.2767 23.7223 30.666 24.333 29.8878 24.333C29.1101 24.333 28.4994 23.7223 28.4994 22.9447C28.4994 22.167 29.1101 21.5557 29.8878 21.5557Z" fill="white"/>
<path d="M28.5922 5.99071L29.5741 5.00873L30.5561 5.99071L29.5741 6.97266L28.5922 5.99071Z" fill="#2CA2FC"/>
<path d="M29.0002 1.61052C29.1111 1.722 29.2221 1.8884 29.2221 2.11082C29.2221 2.27778 29.1672 2.49966 29.0002 2.6106C28.8332 2.72208 28.7223 2.83301 28.5004 2.83301C28.1116 2.83301 27.7777 2.49965 27.7777 2.11082C27.7777 1.94387 27.8337 1.722 28.0001 1.61052C28.1665 1.49958 28.2775 1.38864 28.5004 1.38864C28.7223 1.38864 28.8893 1.49958 29.0002 1.61052Z" fill="#2CA2FC"/>
<path d="M28.5 9.05591V16.7227H2.83289V9.05591H5.61071H7.66635V11.8337H11.1664V9.77812H13.9442V11.8337H17.3882V9.77812H20.1665V11.8337H23.6665V9.05591H25.7216H28.5Z" fill="white"/>
<path d="M25.7221 0.722715V9.05616H23.667V11.834H20.167V9.77837H17.3887V11.834H13.9447V9.77837H11.1669V11.834H7.66685V9.05616H5.61121V0.722715H9.77794V2.83381H13.9447V1.4449H17.3887V2.83381H21.5554V0.722715H25.7221Z" fill="white"/>
<path d="M11.6109 19.0002C11.7219 19.1117 11.8334 19.278 11.8334 19.5005C11.8334 19.7223 11.7774 19.8893 11.6109 20.0002C11.5 20.1112 11.333 20.2227 11.1112 20.2227C10.7223 20.2227 10.3884 19.8893 10.3884 19.5005C10.3884 19.3335 10.4445 19.1117 10.6109 19.0002C10.7224 18.8892 10.8888 18.7783 11.1112 18.7783C11.333 18.7783 11.5 18.8338 11.6109 19.0002Z" fill="#2CA2FC"/>
<path d="M1.77765 24.3337C2.33344 24.3337 2.83375 24.7785 2.83375 25.3898C2.83375 26.0005 2.38946 26.4453 1.77765 26.4453C1.16695 26.4453 0.722656 26.0005 0.722656 25.3898C0.722656 24.7785 1.16695 24.3337 1.77765 24.3337Z" fill="white"/>
<path d="M1.88939 4.38881C2.00033 4.5003 2.11126 4.66672 2.11126 4.88914C2.11126 5.05555 2.05524 5.27798 1.88939 5.38892C1.72243 5.5004 1.61149 5.61133 1.38852 5.61133C0.999689 5.61133 0.66687 5.27797 0.66687 4.88914C0.66687 4.72219 0.722341 4.5003 0.888746 4.38881C0.999683 4.27787 1.16664 4.16696 1.38852 4.16696C1.61149 4.22243 1.77735 4.27787 1.88939 4.38881Z" fill="#2CA2FC"/>
<path d="M25.0551 32C24.6663 32 24.3335 31.6666 24.3335 31.2778V16.7225C24.3335 16.3332 24.6663 16.0003 25.0551 16.0003C25.4439 16.0003 25.7779 16.3332 25.7779 16.7225V31.3333C25.7218 31.6666 25.389 32 25.0551 32Z" fill="#2CA2FC"/>
<path d="M6.27731 32C5.88848 32 5.55457 31.6666 5.55457 31.2778V16.7225C5.55457 16.3332 5.88848 16.0003 6.27731 16.0003C6.66614 16.0003 6.9995 16.3332 6.9995 16.7225V31.3333C6.9995 31.6666 6.66614 32 6.27731 32Z" fill="#2CA2FC"/>
<path d="M3.50024 16.0007H27.8339V9.77839H24.3339V11.8895C24.3339 12.2783 24 12.6117 23.6111 12.6117H20.1111C19.7223 12.6117 19.389 12.2783 19.389 11.8895V10.4451H18.0006V11.834C18.0006 12.2228 17.6667 12.5562 17.2779 12.5562H13.7778C13.389 12.5562 13.0556 12.2228 13.0556 11.834V10.4451H11.6667V11.834C11.6667 12.2228 11.3334 12.5562 10.9445 12.5562H7.66698C7.27815 12.5562 6.94476 12.2228 6.94476 11.834V9.7229H3.44476V16.0007H3.50024ZM28.5006 17.3896H2.83351C2.44413 17.3896 2.11133 17.0563 2.11133 16.6669V9.05618C2.11133 8.66735 2.44413 8.33399 2.83351 8.33399H7.66698C8.0558 8.33399 8.38916 8.66735 8.38916 9.05618V11.1673H10.4448V9.77839C10.4448 9.38956 10.7776 9.05618 11.167 9.05618H13.9448C14.3336 9.05618 14.6664 9.38956 14.6664 9.77839V11.1673H16.7781V9.77839C16.7781 9.38956 17.1109 9.05618 17.4997 9.05618H20.2781C20.6669 9.05618 20.9997 9.38956 20.9997 9.77839V11.1673H23.1114V9.05618C23.1114 8.66735 23.4447 8.33399 23.8336 8.33399H28.7225C29.1113 8.33399 29.4447 8.66735 29.4447 9.05618V16.7229C29.2222 17.0563 28.8894 17.3896 28.5006 17.3896Z" fill="#2CA2FC"/>
<path d="M25.7223 9.7778C25.3334 9.7778 25.0006 9.44441 25.0006 9.05559V1.44433H22.2223V2.83324C22.2223 3.22207 21.8894 3.55542 21.5006 3.55542H17.3339C16.9451 3.55542 16.6112 3.22207 16.6112 2.83324V2.11105H14.5001V2.83324C14.5001 3.22207 14.1667 3.55542 13.7779 3.55542H9.61115C9.22232 3.55542 8.8895 3.22207 8.8895 2.83324V1.44433H6.11114V9.11107C6.11114 9.4999 5.77832 9.83325 5.38949 9.83325C5.00012 9.83325 4.66675 9.4999 4.66675 9.11107V0.777598C4.66675 0.388769 5.00012 0.0554139 5.38949 0.0554139H9.55623C9.94506 0.0554139 10.2779 0.388769 10.2779 0.777598V2.11105H13.0557V1.38887C13.0557 1.00004 13.3891 0.666659 13.7779 0.666659H17.2779C17.6667 0.666659 18.0006 1.00004 18.0006 1.38887V2.11105H20.7779V0.722142C20.7779 0.333313 21.1118 -4.17616e-05 21.5006 -4.17616e-05H25.6668C26.0556 -4.17616e-05 26.389 0.333313 26.389 0.722142V9.05559C26.4445 9.44441 26.1111 9.7778 25.7223 9.7778Z" fill="#2CA2FC"/>
<path d="M13.2214 7.00024C12.8326 7.00024 12.4998 6.66689 12.4998 6.27806H10.4441C10.4441 6.66689 10.1102 7.00024 9.7214 7.00024C9.33257 7.00024 8.99976 6.66689 8.99976 6.27806V5.55585C8.99976 5.16647 9.33257 4.83367 9.7214 4.83367H13.2214C13.6102 4.83367 13.9441 5.16647 13.9441 5.55585V6.27806C13.9441 6.66689 13.6102 7.00024 13.2214 7.00024Z" fill="#2CA2FC"/>
<path d="M21.5543 7C21.1654 7 20.8326 6.66665 20.8326 6.27782H18.777C18.777 6.66665 18.4431 7 18.0543 7C17.6654 7 17.3326 6.66665 17.3326 6.27782V5.55561C17.3326 5.16623 17.6654 4.83342 18.0543 4.83342H21.5543C21.9431 4.83342 22.277 5.16623 22.277 5.55561V6.27782C22.277 6.66665 21.9431 7 21.5543 7Z" fill="#2CA2FC"/>
<path d="M18.7777 32C18.3888 32 18.0549 31.6666 18.0549 31.2778V26.7783C18.0549 26.1115 17.7771 25.5003 17.3333 25.0554C16.8885 24.6111 16.2772 24.3333 15.6105 24.3333C14.3331 24.3333 13.2215 25.4448 13.2215 26.7783V31.2778C13.2215 31.6666 12.8887 32 12.4998 32C12.111 32 11.7771 31.6666 11.7771 31.2778V26.7783C11.7771 24.6666 13.4994 22.9449 15.6105 22.9449C16.6106 22.9449 17.6106 23.3337 18.3328 24.0559C19.055 24.7781 19.4438 25.7227 19.4438 26.7783V31.2778C19.4999 31.6666 19.1665 32 18.7777 32Z" fill="#2CA2FC"/>
<path d="M30.6109 32H0.722184C0.333355 32 0 31.6666 0 31.2778C0 30.889 0.333355 30.5556 0.722184 30.5556H30.6109C30.9998 30.5556 31.3337 30.889 31.3337 31.2778C31.2777 31.6666 30.9443 32 30.6109 32Z" fill="#2CA2FC"/>
<path d="M25.0552 20.167H19.5001C19.1108 20.167 18.778 19.8342 18.778 19.4454C18.778 19.0565 19.1108 18.7232 19.5001 18.7232H25.0552C25.4441 18.7232 25.778 19.0565 25.778 19.4454C25.778 19.8342 25.3891 20.167 25.0552 20.167Z" fill="#2CA2FC"/>
<path d="M9.05457 20.167H6.27731C5.88848 20.167 5.55457 19.8342 5.55457 19.4454C5.55457 19.0565 5.88848 18.7232 6.27731 18.7232H9.05457C9.4434 18.7232 9.77732 19.0565 9.77732 19.4454C9.77732 19.8342 9.4434 20.167 9.05457 20.167Z" fill="#2CA2FC"/>
<path d="M1.77739 25.0557C1.61153 25.0557 1.44458 25.2226 1.44458 25.3896C1.44458 25.556 1.61153 25.723 1.77739 25.723C1.94434 25.723 2.1113 25.556 2.1113 25.3896C2.1113 25.1672 1.94434 25.0557 1.77739 25.0557ZM1.77739 27.1113C0.833327 27.1113 0.0556641 26.3337 0.0556641 25.3896C0.0556641 24.445 0.833327 23.6673 1.77739 23.6673C2.722 23.6673 3.50022 24.445 3.50022 25.3896C3.50022 26.3337 2.722 27.1113 1.77739 27.1113Z" fill="#2CA2FC"/>
<path d="M29.8888 22.2784C29.5 22.2784 29.1672 22.6118 29.1672 23.0006C29.1672 23.3894 29.5 23.7228 29.8888 23.7228C30.2776 23.7228 30.611 23.3894 30.611 23.0006C30.611 22.6118 30.2776 22.2784 29.8888 22.2784ZM29.8888 25.0557C28.7223 25.0557 27.7777 24.1116 27.7777 22.9451C27.7777 21.7781 28.7223 20.834 29.8888 20.834C31.0558 20.834 32.0004 21.7781 32.0004 22.9451C32.0004 24.1116 31.0558 25.0557 29.8888 25.0557Z" fill="#2CA2FC"/>
</svg>
