<svg width="40" height="40" viewBox="0 0 40 40" fill="none" xmlns="http://www.w3.org/2000/svg">
<g clip-path="url(#clip0_204_1137)">
<path d="M9.82961 14.305C10.5952 14.993 12.1127 15.2688 13.5081 15.2688C13.771 15.2688 14.0291 15.2586 14.2776 15.2399C14.6064 15.5773 15.1048 15.9039 15.8491 16.178C16.9534 16.5845 18.4275 16.8084 20.0001 16.8084C22.3188 16.8084 24.6527 16.3138 25.7157 15.2395C25.9663 15.2585 26.2268 15.2688 26.4922 15.2688C27.8874 15.2688 29.4052 14.993 30.1706 14.3051C30.6019 13.9175 30.6923 13.4971 30.6923 13.2127C30.6923 11.1013 29.1235 9.35039 27.0906 9.06211C28.0353 8.80227 28.7315 7.93617 28.7315 6.91008C28.7315 5.67945 27.7302 4.6782 26.4994 4.6782C25.2685 4.6782 24.2672 5.67937 24.2672 6.91008C24.2672 7.9357 24.9627 8.80141 25.9068 9.06172C25.4297 9.12922 24.9697 9.27773 24.5437 9.50297C23.395 8.30969 21.7835 7.56492 20.0003 7.56492C18.217 7.56492 16.6055 8.30961 15.4567 9.50289C15.0308 9.27766 14.5708 9.12914 14.0938 9.06164C15.0377 8.80133 15.7333 7.93563 15.7333 6.91C15.7333 5.67937 14.732 4.67813 13.5012 4.67813C12.2704 4.67813 11.2691 5.6793 11.2691 6.91C11.2691 7.93609 11.9653 8.80219 12.9099 9.06203C10.8769 9.35031 9.30789 11.1013 9.30789 13.2126C9.30789 13.497 9.39836 13.9174 9.82961 14.305ZM25.3609 6.90992C25.3609 6.28234 25.8716 5.7718 26.4993 5.7718C27.127 5.7718 27.6377 6.28234 27.6377 6.90992C27.6377 7.53766 27.127 8.04828 26.4993 8.04828C25.8716 8.04828 25.3609 7.53758 25.3609 6.90992ZM26.4993 10.1132C28.2082 10.1132 29.5985 11.5035 29.5985 13.2125C29.5985 13.2497 29.5985 13.3485 29.4395 13.4915C28.9433 13.9373 27.6419 14.2055 26.2855 14.1737C26.3014 14.0768 26.3099 13.9771 26.3099 13.8745C26.3099 12.582 25.9188 11.3795 25.2493 10.3779C25.6405 10.205 26.0639 10.1132 26.4993 10.1132ZM20.0002 8.65859C22.8763 8.65859 25.2162 10.9984 25.2162 13.8745C25.2162 14.9063 22.925 15.7146 20 15.7146C17.0752 15.7146 14.7839 14.9063 14.7839 13.8745C14.784 10.9984 17.124 8.65859 20.0002 8.65859ZM12.3628 6.90992C12.3628 6.28234 12.8735 5.7718 13.5012 5.7718C14.1288 5.7718 14.6395 6.28234 14.6395 6.90992C14.6395 7.53766 14.1288 8.04828 13.5012 8.04828C12.8735 8.04828 12.3628 7.53758 12.3628 6.90992ZM13.5012 10.1132C13.9365 10.1132 14.3598 10.205 14.7509 10.3778C14.0815 11.3794 13.6902 12.582 13.6902 13.8744C13.6902 13.9695 13.6977 14.0698 13.7148 14.1737C12.3585 14.2056 11.0569 13.9373 10.5607 13.4915C10.4016 13.3485 10.4016 13.2497 10.4016 13.2125C10.4016 11.5036 11.7921 10.1132 13.5012 10.1132ZM38.7501 19.4531H35.3088L35.3014 16.291L35.9584 16.2801C36.1952 16.9464 36.8317 17.4249 37.5782 17.4249C38.5259 17.4249 39.297 16.6539 39.297 15.7062C39.297 14.7584 38.5259 13.9874 37.5782 13.9874C36.8116 13.9874 36.1607 14.492 35.9399 15.1865L34.7441 15.2064C34.4452 15.2114 34.2056 15.4555 34.2063 15.7545L34.2149 19.4531H32.5897L32.5701 12.6834H33.6695C33.8984 13.3637 34.5419 13.8552 35.2984 13.8552C36.2462 13.8552 37.0172 13.0842 37.0172 12.1365C37.0172 11.1888 36.2462 10.4177 35.2984 10.4177C34.542 10.4177 33.8985 10.9093 33.6695 11.5896H32.0216C31.8763 11.5896 31.7369 11.6474 31.6343 11.7504C31.5317 11.8533 31.4743 11.9928 31.4747 12.1381L31.496 19.4531H29.163C28.8609 19.4531 28.6161 19.698 28.6161 20C28.6161 24.7509 24.7509 28.6159 20.0002 28.6159C15.2494 28.6159 11.3841 24.7509 11.3841 20C11.3841 19.698 11.1393 19.4531 10.8373 19.4531H8.50414L8.52531 12.138C8.5257 11.9927 8.46836 11.8532 8.3657 11.7503C8.26312 11.6474 8.12375 11.5895 7.97844 11.5895H6.33062C6.10164 10.9092 5.4582 10.4177 4.70164 10.4177C3.75391 10.4177 2.98289 11.1887 2.98289 12.1364C2.98289 13.0841 3.75391 13.8552 4.70164 13.8552C5.45813 13.8552 6.10156 13.3636 6.33062 12.6833H7.43L7.41039 19.4531H5.78516L5.79375 15.7545C5.79445 15.4555 5.55492 15.2114 5.25594 15.2064L4.06016 15.1865C3.83938 14.492 3.18852 13.9874 2.42195 13.9874C1.47414 13.9874 0.703125 14.7584 0.703125 15.7062C0.703125 16.6539 1.47414 17.4249 2.42195 17.4249C3.16844 17.4249 3.805 16.9464 4.04172 16.2801L4.69867 16.291L4.69141 19.4531H1.25008C0.948047 19.4531 0.703203 19.698 0.703203 20V21.8749C0.703203 22.8556 1.50102 23.6534 2.48172 23.6534C3.96445 23.6534 5.23867 24.5061 5.80727 25.8787C6.37578 27.2513 6.07773 28.7554 5.02922 29.8038C4.33578 30.4973 4.33578 31.6256 5.02922 32.3191L7.68086 34.9708C8.3743 35.6641 9.50258 35.6641 10.1962 34.9708C11.246 33.9209 12.7504 33.6215 14.1226 34.1898C15.4945 34.758 16.3466 36.0334 16.3466 37.5183C16.3466 38.499 17.1445 39.2969 18.1252 39.2969H21.8751C22.8558 39.2969 23.6536 38.499 23.6536 37.5183C23.6536 36.0355 24.5062 34.7614 25.8788 34.1928C27.2516 33.6243 28.7556 33.9224 29.804 34.9709C30.4974 35.6641 31.6257 35.6643 32.3193 34.9709L34.9709 32.3192C35.6644 31.6257 35.6644 30.4974 34.9709 29.8039C33.9224 28.7555 33.6244 27.2514 34.1929 25.8788C34.7615 24.5062 36.0358 23.6535 37.5184 23.6535C38.4991 23.6535 39.297 22.8557 39.297 21.875V20C39.297 19.698 39.0522 19.4531 38.7501 19.4531ZM37.5782 15.0812C37.9228 15.0812 38.2032 15.3616 38.2032 15.7062C38.2032 16.0508 37.9228 16.3312 37.5782 16.3312C37.2336 16.3312 36.9532 16.0508 36.9532 15.7062C36.9532 15.3616 37.2336 15.0812 37.5782 15.0812ZM35.2985 11.5115C35.6431 11.5115 35.9235 11.7919 35.9235 12.1365C35.9235 12.4811 35.6431 12.7615 35.2985 12.7615C34.9539 12.7615 34.6736 12.4811 34.6736 12.1365C34.6736 11.7919 34.9539 11.5115 35.2985 11.5115ZM4.70164 12.7615C4.35703 12.7615 4.07664 12.4811 4.07664 12.1365C4.07664 11.7919 4.35703 11.5115 4.70164 11.5115C5.04625 11.5115 5.32656 11.7919 5.32656 12.1365C5.32656 12.4811 5.04625 12.7615 4.70164 12.7615ZM2.42195 16.3312C2.07727 16.3312 1.79688 16.0508 1.79688 15.7062C1.79688 15.3616 2.07727 15.0812 2.42195 15.0812C2.76656 15.0812 3.04688 15.3616 3.04688 15.7062C3.04688 16.0508 2.76664 16.3312 2.42195 16.3312ZM38.2032 21.8749C38.2032 22.2525 37.896 22.5597 37.5184 22.5597C35.5849 22.5597 33.9234 23.6711 33.1824 25.4602C32.4413 27.2493 32.8302 29.2101 34.1974 30.5773C34.4645 30.8443 34.4645 31.2788 34.1974 31.5458L31.5458 34.1974C31.2789 34.4643 30.8443 34.4645 30.5773 34.1974C29.2102 32.8302 27.2495 32.4412 25.4602 33.1824C23.6711 33.9234 22.5597 35.5849 22.5597 37.5184C22.5597 37.8959 22.2525 38.2032 21.8749 38.2032H18.1251C17.7475 38.2032 17.4403 37.8959 17.4403 37.5184C17.4403 35.5828 16.3294 33.9202 14.5411 33.1795C13.9417 32.9312 13.3232 32.81 12.7138 32.81C11.5049 32.81 10.3327 33.2875 9.42273 34.1975C9.1557 34.4644 8.72117 34.4645 8.4543 34.1975L5.80266 31.5459C5.53562 31.2789 5.53562 30.8444 5.80266 30.5774C7.16984 29.2102 7.55883 27.2494 6.81766 25.4602C6.07664 23.6712 4.41516 22.5598 2.48164 22.5598C2.10406 22.5598 1.79688 22.2526 1.79688 21.875V20.5469H10.3055C10.5903 25.6472 14.8297 29.7097 20 29.7097C25.1703 29.7097 29.4097 25.6472 29.6945 20.5469H38.2032V21.8749ZM13.416 19.4531C13.114 19.4531 12.8691 19.698 12.8691 20C12.8691 23.932 16.068 27.1309 20.0001 27.1309C23.932 27.1309 27.1309 23.932 27.1309 20C27.1309 19.698 26.8861 19.4531 26.5841 19.4531H13.416ZM20.0001 26.0372C16.8554 26.0372 14.2646 23.6205 13.9874 20.5469H26.0127C25.7355 23.6205 23.1447 26.0372 20.0001 26.0372ZM20.0002 7.12359C21.7705 7.12359 23.2107 5.68336 23.2107 3.91313C23.2107 2.14313 21.7705 0.703125 20.0002 0.703125C18.2299 0.703125 16.7898 2.14313 16.7898 3.91313C16.7898 5.68336 18.23 7.12359 20.0002 7.12359ZM20.0002 1.79688C21.1673 1.79688 22.117 2.74617 22.117 3.91313C22.117 5.08023 21.1674 6.02984 20.0002 6.02984C18.833 6.02984 17.8835 5.08031 17.8835 3.91313C17.8836 2.74617 18.8331 1.79688 20.0002 1.79688Z" fill="white"/>
</g>
<defs>
<clipPath id="clip0_204_1137">
<rect width="40" height="40" fill="white"/>
</clipPath>
</defs>
</svg>
