<svg width="40" height="40" viewBox="0 0 40 40" fill="none" xmlns="http://www.w3.org/2000/svg">
<g clip-path="url(#clip0_204_1158)">
<path d="M0.126211 3.66935L2.79389 8.33752C2.88387 8.49526 3.03449 8.60939 3.21061 8.65356L5.69942 9.27576L14.2355 17.8118L15.1787 16.8689L6.509 8.19952C6.42368 8.11393 6.31669 8.0533 6.19955 8.02395L3.80813 7.42397L1.53687 3.44714L3.48413 1.49987L7.46261 3.77333L8.06286 6.16475C8.09194 6.28216 8.15285 6.38943 8.23816 6.47475L16.9079 15.1444L17.8508 14.2013L9.31467 5.66517L8.69247 3.17773C8.6483 3.00133 8.53418 2.85045 8.37643 2.76019L3.70799 0.0927821C3.44764 -0.0553613 3.12008 -0.0114669 2.90774 0.200049L0.240337 2.86773C0.025803 3.0787 -0.0208347 3.40681 0.126211 3.66935Z" fill="white"/>
<path d="M27.8529 13.1433L13.1815 27.815L12.2383 26.8719L26.91 12.2004L27.8529 13.1433Z" fill="white"/>
<path d="M10.6135 28.3342C10.4928 28.1334 10.2761 28.0107 10.0418 28.0107H6.04052C5.80651 28.0107 5.58951 28.1334 5.46907 28.3342L3.46831 31.6685C3.34129 31.8798 3.34129 32.1439 3.46831 32.3555L5.46907 35.6898C5.58951 35.8903 5.80651 36.0132 6.04052 36.0132H10.0418C10.2761 36.0132 10.4928 35.8903 10.6135 35.6898L12.614 32.3555C12.741 32.1439 12.741 31.8798 12.614 31.6685L10.6135 28.3342ZM9.66455 34.6794H6.41801L4.81751 32.012L6.41801 29.3443H9.66455L11.265 32.012L9.66455 34.6794Z" fill="white"/>
<path d="M32.0496 16.0066C36.4541 16.0214 40.037 12.4627 40.0518 8.05817C40.054 7.38768 39.9717 6.71994 39.8068 6.07003C39.7179 5.71256 39.3561 5.49501 38.9986 5.5839C38.8812 5.61325 38.7742 5.67388 38.6886 5.7592L34.5373 9.90777L31.2436 8.81013L30.1451 5.51723L34.2964 1.3651C34.5568 1.10448 34.5565 0.682268 34.2959 0.421919C34.21 0.336051 34.1019 0.275148 33.9837 0.246067C29.7122 -0.835654 25.373 1.75 24.2913 6.0212C24.1269 6.66919 24.0449 7.33528 24.0471 8.00385C24.0487 8.52894 24.1028 9.05238 24.2092 9.56649L9.60419 24.1712C9.09008 24.0651 8.56664 24.011 8.04183 24.0091C3.62194 24.0091 0.0390625 27.592 0.0390625 32.0119C0.0390625 36.4315 3.62194 40.0144 8.04183 40.0144C12.4614 40.0144 16.0443 36.4315 16.0443 32.0119C16.0427 31.4868 15.9884 30.9634 15.8822 30.4492L19.3786 26.9528L20.9078 28.4819C21.1684 28.7423 21.5904 28.7423 21.851 28.4819L22.1843 28.1483C22.4768 27.8578 22.9495 27.8578 23.2419 28.1483C23.5341 28.4397 23.5346 28.9127 23.2433 29.2048C23.243 29.2051 23.2424 29.2057 23.2419 29.2062L22.9086 29.5395C22.6482 29.7999 22.6482 30.2221 22.9086 30.4824L30.8639 38.4377C32.9563 40.5493 36.3641 40.5647 38.4757 38.4723C40.587 36.3799 40.6024 32.9718 38.51 30.8605C38.4988 30.849 38.4872 30.8374 38.4757 30.8259L30.5204 22.8709C30.2601 22.6105 29.8379 22.6105 29.5775 22.8709L29.2442 23.2042C28.9515 23.495 28.479 23.495 28.1863 23.2042C27.8944 22.9128 27.8936 22.4399 28.185 22.148C28.1855 22.1474 28.1861 22.1472 28.1863 22.1466L28.5199 21.813C28.7803 21.5527 28.7803 21.1305 28.5199 20.8701L26.9908 19.3409L30.4872 15.8445C31.0013 15.9507 31.5248 16.005 32.0496 16.0066ZM34.6698 38.6808C34.1853 38.68 33.7049 38.5925 33.2515 38.4221L38.4598 33.2135C39.2458 35.3042 38.1882 37.6361 36.0975 38.4221C35.6412 38.5936 35.1576 38.6814 34.6698 38.6808ZM27.1148 21.3483C26.3762 22.2292 26.492 23.5422 27.3729 24.2804C28.1471 24.9292 29.2755 24.9287 30.0488 24.2785L37.5328 31.7691C37.614 31.8506 37.69 31.9364 37.7635 32.0237L32.0616 37.7256C31.9741 37.6523 31.8883 37.5763 31.8068 37.4948L24.317 30.0045C25.0556 29.1236 24.9398 27.8106 24.0589 27.0724C23.2847 26.4233 22.1561 26.4241 21.3827 27.074L20.3158 26.0071L26.0476 20.2838L27.1148 21.3483ZM29.8077 14.641L14.6792 29.7664C14.5132 29.9321 14.4466 30.1727 14.5031 30.4001C15.418 33.9932 13.2469 37.6476 9.65357 38.5623C6.06055 39.4772 2.40607 37.3061 1.49114 33.7128C0.576494 30.1198 2.74762 26.4653 6.34092 25.5504C7.42786 25.2738 8.56664 25.2738 9.65357 25.5504C9.881 25.606 10.1211 25.5394 10.2873 25.3745L25.4122 10.2488C25.5779 10.0831 25.6446 9.84247 25.5875 9.61532C24.6789 6.06427 26.8209 2.44902 30.372 1.54013C31.043 1.36867 31.7371 1.30282 32.4284 1.3459L28.9106 4.86513C28.732 5.04345 28.6694 5.30764 28.7493 5.54714L30.0828 9.54866C30.1495 9.74755 30.3059 9.90393 30.505 9.97004L34.5066 11.3039C34.7458 11.3837 35.01 11.3214 35.1886 11.1431L38.7064 7.62526C38.7144 7.75255 38.7185 7.87848 38.7185 8.00385C38.7372 11.6682 35.782 14.6538 32.1176 14.6728C31.5511 14.6755 30.9865 14.6058 30.4378 14.4654C30.2104 14.4086 29.9698 14.475 29.8041 14.6407H29.8077V14.641Z" fill="white"/>
<path d="M34.522 33.5407L33.5788 34.4839L26.9102 27.8153L27.8531 26.8721L34.522 33.5407Z" fill="white"/>
</g>
<defs>
<clipPath id="clip0_204_1158">
<rect width="40" height="40" fill="white"/>
</clipPath>
</defs>
</svg>
