<svg width="30" height="32" viewBox="0 0 30 32" fill="none" xmlns="http://www.w3.org/2000/svg">
<path d="M20.1325 3.75499C20.1325 4.95201 19.42 5.98602 18.4332 6.47559C17.1176 5.49645 15.6378 4.789 14.0479 4.46244C13.9937 4.24455 13.9385 3.97234 13.9385 3.75499C13.9385 2.06786 15.3088 0.707296 17.0081 0.707296C18.7621 0.707296 20.1325 2.06786 20.1325 3.75499Z" fill="white"/>
<path d="M18.4332 6.47534C17.1175 5.49621 15.6377 4.78876 14.0479 4.4622C11.5813 3.91775 8.95057 4.13564 6.53874 5.44187C6.53874 5.44187 6.48347 5.44188 6.48347 5.49622H6.42928C6.42928 5.49622 6.42928 5.49622 6.37401 5.49622C1.49563 8.10869 -0.477264 13.877 1.16674 19.1562C1.05729 18.0674 1.60511 16.9247 2.64657 16.3808C2.86603 16.2716 3.03019 16.2172 3.25019 16.1629C4.12692 15.9456 5.05839 16.1629 5.77148 16.7073C6.09985 16.9247 6.31983 17.2513 6.53874 17.6322C5.77146 16.2172 6.26457 14.4758 7.68967 13.7683C8.12803 13.5504 8.56693 13.4418 9.00529 13.4418C10.0468 13.4418 11.0335 13.9857 11.5813 14.9653C10.814 13.5504 11.3077 11.809 12.7328 11.1015C13.1711 10.8836 13.61 10.775 14.0479 10.775C15.0893 10.775 16.0761 11.3194 16.6244 12.2991C16.4597 11.9725 16.3502 11.5916 16.2955 11.2102C16.186 10.2305 16.5697 9.3057 17.3375 8.70692C17.447 8.59824 17.6106 8.48958 17.7753 8.43524C18.2142 8.21736 18.6526 8.10869 19.091 8.10869C19.7488 8.10869 20.4066 8.32603 20.9002 8.76127C20.1324 7.8908 19.3104 7.12846 18.4332 6.47534Z" fill="white"/>
<path d="M6.48404 5.44236C6.48404 5.44236 6.53931 5.44237 6.53931 5.38804C9.11587 4.13614 13.0623 6.69373 16.1319 11.2107H16.1866C16.2413 11.5921 16.3508 11.9187 16.5155 12.2995C15.9672 11.3199 14.9804 10.7755 13.939 10.7755C13.5006 10.7755 13.0623 10.8841 12.6234 11.102C11.253 11.8095 10.7599 13.5509 11.4724 14.9658L6.48404 5.44236C6.48404 5.4967 6.42986 5.4967 6.48404 5.44236Z" fill="white"/>
<path d="M5.88147 16.7073H5.77201C5.05892 16.1629 4.12745 15.9456 3.25072 16.1629C3.03072 16.2172 2.86656 16.2716 2.6471 16.3808C1.60564 16.9247 1.05782 18.013 1.16727 19.1562C-0.532004 13.8226 1.49616 8.10869 6.37454 5.49622C3.90799 6.91113 3.79855 11.6459 5.88147 16.7073Z" fill="white"/>
<path d="M30.0002 24.4891L29.0682 25.4688L28.082 24.4891L29.0682 23.5643L30.0002 24.4891Z" fill="#2CA2FC"/>
<path d="M26.107 4.29852C26.217 4.40773 26.3265 4.57076 26.3265 4.78865C26.3265 4.95166 26.2717 5.16952 26.107 5.27819C25.9976 5.3874 25.8328 5.49609 25.6139 5.49609C25.2303 5.49609 24.9014 5.16954 24.9014 4.78865C24.9014 4.6251 24.9561 4.40773 25.1208 4.29852C25.2303 4.18985 25.395 4.08117 25.6139 4.08117C25.8328 4.08117 25.9976 4.18985 26.107 4.29852Z" fill="#2CA2FC"/>
<path d="M24.7384 30.1497C24.8479 30.2583 24.9573 30.4219 24.9573 30.6392C24.9573 30.8028 24.9026 31.0207 24.7384 31.1293C24.6289 31.238 24.4642 31.3467 24.2448 31.3467C23.8611 31.3467 23.5322 31.0207 23.5322 30.6392C23.5322 30.4762 23.5869 30.2583 23.7517 30.1497C23.8611 30.041 24.0253 29.9318 24.2448 29.9318C24.4642 29.9318 24.6289 30.041 24.7384 30.1497Z" fill="#2CA2FC"/>
<path d="M24.025 18.5573C24.135 18.666 24.2444 18.8295 24.2444 19.0469C24.2444 19.2648 24.1897 19.4283 24.025 19.537C23.9155 19.6457 23.7514 19.7549 23.5319 19.7549C23.1483 19.7549 22.8193 19.4283 22.8193 19.0469C22.8193 18.8839 22.8741 18.666 23.0388 18.5573C23.1483 18.4481 23.3125 18.3394 23.5319 18.3394C23.7514 18.3938 23.9155 18.4481 24.025 18.5573Z" fill="#2CA2FC"/>
<path d="M21.1201 12.2455L20.1333 13.2246L19.1466 12.2455L20.1333 11.3201L21.1201 12.2455Z" fill="#2CA2FC"/>
<path d="M15.1447 14.4763C15.2541 14.5849 15.3636 14.7485 15.3636 14.9658C15.3636 15.1294 15.3089 15.3473 15.1447 15.456C14.9799 15.5646 14.8705 15.6738 14.6516 15.6738C14.2679 15.6738 13.9385 15.3473 13.9385 14.9658C13.9385 14.8028 13.9938 14.5849 14.1579 14.4763C14.2679 14.367 14.4316 14.2584 14.6516 14.2584C14.8705 14.3127 15.0352 14.367 15.1447 14.4763Z" fill="#2CA2FC"/>
<path d="M4.18196 20.6262C4.29142 20.7349 4.40143 20.8984 4.40143 21.1158C4.40143 21.3337 4.34614 21.4967 4.18196 21.6059C4.0725 21.7146 3.90779 21.8232 3.68833 21.8232C3.30469 21.8232 2.97632 21.4967 2.97632 21.1158C2.97632 20.9528 3.03051 20.7349 3.19523 20.6262C3.30469 20.5175 3.46942 20.4083 3.68833 20.4083C3.90779 20.4083 4.0725 20.5175 4.18196 20.6262Z" fill="#2CA2FC"/>
<path d="M3.96311 27.2108L3.03109 28.1904L2.04492 27.2108L3.03109 26.2854L3.96311 27.2108Z" fill="#2CA2FC"/>
<path d="M2.09973 2.93817C2.20972 3.04684 2.3192 3.21041 2.3192 3.42829C2.3192 3.5913 2.26391 3.80917 2.09973 3.91784C1.98973 4.02705 1.82555 4.13574 1.6061 4.13574C1.22246 4.13574 0.893555 3.80919 0.893555 3.42829C0.893555 3.26475 0.948272 3.04684 1.113 2.93817C1.22245 2.82949 1.38719 2.72029 1.6061 2.72029C1.82555 2.72029 1.98973 2.82949 2.09973 2.93817Z" fill="#2CA2FC"/>
<path d="M5.77168 32C5.60695 32 5.44221 31.9457 5.27802 31.7827C5.00384 31.5105 5.00384 31.0752 5.27802 30.803L27.2039 9.25173C27.4776 8.97951 27.9165 8.97951 28.1906 9.25173C28.4648 9.52396 28.4648 9.9592 28.1906 10.2309L6.20951 31.7827C6.10005 31.9457 5.93586 32 5.77168 32Z" fill="#2CA2FC"/>
<path d="M14.8166 30.2041C12.5695 30.2041 10.5955 29.4418 9.1162 28.0818C9.06093 28.0274 9.00619 27.9725 8.95147 27.9182C7.63583 26.612 6.868 24.8705 6.70436 22.9117C6.64909 22.5303 6.92327 22.2042 7.30691 22.1494C7.69055 22.095 8.01947 22.3672 8.0742 22.7481C8.23892 24.3809 8.842 25.8502 9.93764 26.8842C9.99291 26.9391 10.0477 26.9934 10.0477 26.9934C11.5275 28.3534 13.6109 29.0065 15.9675 28.68C18.3793 28.3534 20.7364 27.1564 22.6546 25.3057C22.7646 25.1971 22.9288 25.034 23.0388 24.9248C24.7922 23.0747 25.8337 20.7888 26.1079 18.5034C26.3273 16.2718 25.7795 14.3125 24.4639 12.8433C24.4086 12.7889 24.3544 12.7346 24.2991 12.6259C23.9155 12.245 23.4224 11.8641 22.9288 11.5919C22.5999 11.4283 22.4904 10.9931 22.6546 10.6666C22.8193 10.34 23.2577 10.2308 23.5866 10.3943C24.1897 10.7209 24.7922 11.1561 25.2864 11.6462C25.3406 11.7006 25.4501 11.8092 25.5053 11.8641C27.0946 13.605 27.8077 15.9458 27.5335 18.5577C27.2593 21.1153 26.0537 23.6735 24.135 25.7415C24.025 25.9045 23.8608 26.0137 23.6966 26.1767C21.559 28.2991 18.9277 29.6053 16.2417 29.9862C15.6933 30.1498 15.2002 30.2041 14.8166 30.2041Z" fill="#2CA2FC"/>
<path d="M29.0679 32C28.9031 32 28.6842 31.9457 28.5748 31.7827L17.6113 20.245C17.3382 19.9727 17.3924 19.5375 17.6665 19.2653C17.9407 18.9931 18.3791 19.0474 18.6533 19.3196L29.6162 30.8573C29.8904 31.1295 29.8351 31.5648 29.561 31.837C29.3968 31.9457 29.2326 32 29.0679 32Z" fill="#2CA2FC"/>
<path d="M5.88214 17.3604C5.60796 17.3604 5.33377 17.1973 5.22431 16.9251C4.18285 14.367 3.63503 11.8094 3.68921 9.68701C3.79921 7.34677 4.5665 5.714 6.04687 4.89787C6.37524 4.73486 6.81414 4.84351 6.97832 5.17007C7.14251 5.49663 7.03304 5.93188 6.70467 6.09489C4.56648 7.29245 4.51175 11.6464 6.48467 16.4356C6.6494 16.7621 6.48469 17.1973 6.10105 17.306C6.04687 17.3603 5.9916 17.3604 5.88214 17.3604Z" fill="#2CA2FC"/>
<path d="M6.42966 6.14941C6.20967 6.14941 5.99078 6.04021 5.88132 5.82286C5.66241 5.49631 5.77187 5.06109 6.04605 4.89754L6.10023 4.84319C6.10023 4.84319 6.10024 4.84319 6.15551 4.84319C6.48387 4.68018 6.8675 4.78886 7.08749 5.11542C7.25168 5.44197 7.14167 5.8772 6.81331 6.04021C6.81331 6.04021 6.81331 6.04021 6.75804 6.04021C6.70385 6.14943 6.53912 6.14941 6.42966 6.14941Z" fill="#2CA2FC"/>
<path d="M16.1317 11.9727C15.9123 11.9727 15.6928 11.864 15.5834 11.6461C12.6784 7.34651 9.0057 4.95192 6.86751 6.04026C6.53914 6.20381 6.10024 6.09461 5.93605 5.71372C5.77187 5.38769 5.88132 4.95193 6.26495 4.78892C7.74478 4.08146 9.55353 4.35367 11.527 5.55069C13.3363 6.63904 15.145 8.54406 16.6795 10.8294C16.899 11.156 16.7896 11.5918 16.5154 11.7548C16.4059 11.9183 16.2959 11.9727 16.1317 11.9727Z" fill="#2CA2FC"/>
<path d="M11.5276 15.6738C11.3087 15.6738 11.0345 15.5646 10.9251 15.2924L5.1147 4.40837C4.94998 4.08181 5.05944 3.64603 5.38889 3.48302C5.71726 3.31947 6.15615 3.42869 6.32087 3.75525L12.1854 14.6393C12.3496 14.9658 12.2402 15.4016 11.9113 15.5646C11.7471 15.6189 11.6376 15.6738 11.5276 15.6738Z" fill="#2CA2FC"/>
<path d="M17.8311 27.374C17.6111 27.374 17.3379 27.2654 17.2274 26.9932L14.652 22.2583C14.4872 21.9317 14.5967 21.496 14.9256 21.333C15.2545 21.1694 15.6929 21.2786 15.8576 21.6052L18.4336 26.34C18.5983 26.6666 18.4889 27.1018 18.1594 27.2653C18.05 27.3197 17.9405 27.374 17.8311 27.374Z" fill="#2CA2FC"/>
<path d="M18.434 7.18359C18.1599 7.18359 17.9409 7.02005 17.8315 6.80217C17.6668 6.47561 17.7762 6.04038 18.1599 5.87737C18.9824 5.49648 19.4755 4.68034 19.4755 3.755C19.4755 2.44876 18.3793 1.36043 17.0642 1.36043C15.7486 1.36043 14.6524 2.44876 14.6524 3.755C14.6524 3.91801 14.6524 4.13589 14.7066 4.2989C14.8166 4.68033 14.5424 5.0069 14.2135 5.11557C13.8298 5.22425 13.5009 4.95203 13.3909 4.62547C13.3367 4.35379 13.2815 4.02722 13.2815 3.755C13.2815 1.68697 14.9807 -0.00014477 17.0642 -0.00014477C19.1466 -0.00014477 20.8459 1.68697 20.8459 3.755C20.8459 5.16991 20.0239 6.4756 18.7629 7.12872C18.6535 7.12872 18.5435 7.18359 18.434 7.18359Z" fill="#2CA2FC"/>
<path d="M18.2688 4.46289C17.8852 4.46289 17.5568 4.13634 17.5568 3.75544C17.5568 3.42888 17.3379 3.21099 17.0084 3.21099C16.6248 3.21099 16.2959 2.88444 16.2959 2.50354C16.2959 2.12265 16.6248 1.79609 17.0084 1.79609C18.0499 1.79609 18.9272 2.66655 18.9272 3.70057C18.9819 4.13634 18.653 4.46289 18.2688 4.46289Z" fill="#2CA2FC"/>
<path d="M6.81334 6.04024C6.75807 6.09457 6.75807 6.09457 6.81334 6.04024L6.75806 6.09459C2.97641 8.16315 0.947689 12.2448 1.3866 16.5982C1.66078 16.2717 1.98916 16 2.3728 15.8364C2.59279 15.7278 2.86643 15.6186 3.14061 15.5642C3.96261 15.3463 4.83989 15.4556 5.60716 15.8364C5.77189 14.7481 6.37443 13.7684 7.41589 13.224C7.90953 12.9523 8.4579 12.8431 9.06045 12.8431C9.60881 12.8431 10.1572 12.9523 10.6503 13.224C10.8144 12.1356 11.4175 11.156 12.459 10.6115C12.9526 10.3398 13.5005 10.2306 14.1035 10.2306C14.6519 10.2306 15.1997 10.3398 15.6381 10.6115C15.7481 9.74107 16.1864 8.92493 16.899 8.38048C17.0637 8.21747 17.2826 8.10879 17.4474 7.99958C17.831 7.7817 18.2146 7.67302 18.653 7.61868C18.4888 7.45514 18.2688 7.34647 18.1052 7.18346C16.8437 6.25812 15.4739 5.605 13.9941 5.27844C11.5817 4.73453 9.16991 5.00675 6.97753 6.14944C6.86754 6.04022 6.86752 6.04024 6.81334 6.04024ZM15.3092 22.585C15.0897 22.585 14.8161 22.4758 14.7061 22.2041L10.9792 15.2377C10.595 14.5302 9.82771 14.0406 9.0057 14.0406C8.67679 14.0406 8.34789 14.1493 8.01898 14.3123C6.97752 14.8568 6.59389 16.2174 7.19698 17.2514C7.36116 17.5779 7.2517 18.0131 6.92279 18.1767C6.59388 18.3397 6.15553 18.231 5.99081 17.9045C5.82608 17.6322 5.66243 17.4144 5.38825 17.197C4.83989 16.7618 4.12733 16.5982 3.46951 16.8161C3.30478 16.8705 3.14059 16.9248 3.0306 16.9791C2.26332 17.36 1.82497 18.1767 1.93497 19.0472C1.98915 19.3737 1.71497 19.7003 1.3866 19.7552C1.05769 19.8095 0.728769 19.6459 0.619313 19.265C-0.257961 16.5439 -0.203218 13.6049 0.783512 10.993C1.77024 8.32615 3.63425 6.14946 6.15553 4.78889H6.20972C6.20972 4.78889 6.2097 4.78889 6.26497 4.78889C6.26497 4.78889 6.32024 4.78888 6.32024 4.73454C8.78625 3.4283 11.527 3.10175 14.2683 3.69999C15.9123 4.08142 17.5016 4.78887 18.8725 5.82289C19.8039 6.53034 20.6265 7.34648 21.3937 8.21748C21.6127 8.48971 21.6127 8.8706 21.3385 9.14228C21.0643 9.36017 20.6807 9.4145 20.407 9.19716C20.0234 8.8706 19.5298 8.70703 18.9819 8.70703C18.653 8.70703 18.3241 8.81626 17.9952 8.92493C17.8852 8.97927 17.7757 9.08794 17.6663 9.14228C17.1179 9.57805 16.7895 10.3398 16.899 11.0473C16.9537 11.3195 17.0085 11.5917 17.1732 11.864C17.3379 12.19 17.2274 12.6257 16.899 12.7888C16.5701 12.9523 16.1317 12.8431 15.967 12.5165C15.5834 11.8091 14.8161 11.3195 13.9941 11.3195C13.6646 11.3195 13.3363 11.4282 13.0068 11.5917C11.9654 12.1356 11.5817 13.4962 12.1301 14.5302L15.8576 21.4417C16.0217 21.7683 15.9123 22.2041 15.5834 22.3671C15.5286 22.585 15.4192 22.585 15.3092 22.585Z" fill="#2CA2FC"/>
</svg>
