<svg width="44" height="44" viewBox="0 0 44 44" fill="none" xmlns="http://www.w3.org/2000/svg">
<path d="M10.5258 15.6003C10.1544 16.3654 9.94629 17.2228 9.94629 18.1283C9.94629 21.3568 12.5915 23.974 15.8545 23.974C19.1175 23.974 21.7627 21.3568 21.7627 18.1283C21.7627 14.8998 19.1175 12.2826 15.8545 12.2826C14.443 12.2826 13.1471 12.7723 12.1309 13.5895" stroke="white" stroke-width="2.2" stroke-miterlimit="10" stroke-linecap="round" stroke-linejoin="round"/>
<path d="M25.1331 28.147C22.8537 25.5651 19.5094 23.974 15.8532 23.974H14.6917C9.5789 23.974 5.1566 27.4981 4.06725 32.4406C3.74399 33.9074 4.87303 35.2944 6.39033 35.2944H17.0807" stroke="white" stroke-width="2.2" stroke-miterlimit="10" stroke-linecap="round" stroke-linejoin="round"/>
<path d="M16.4672 2.19997L17.5119 3.93848C17.5699 4.03498 17.6655 4.10371 17.7762 4.12842L19.7702 4.57422C20.076 4.64263 20.1966 5.00987 19.9898 5.24303L18.6415 6.76335C18.5667 6.84778 18.5302 6.95893 18.5406 7.07072L18.7282 9.0848C18.7569 9.39378 18.4412 9.62074 18.1531 9.49816L16.2752 8.69929C16.1709 8.65494 16.0528 8.65494 15.9485 8.69929L14.0705 9.49824C13.7824 9.62082 13.4667 9.39386 13.4955 9.08488L13.6831 7.0708C13.6935 6.95901 13.657 6.84786 13.5821 6.76343L12.2339 5.24311C12.027 5.00987 12.1476 4.64263 12.4535 4.5743L14.4475 4.1285C14.5582 4.10371 14.6538 4.03506 14.7118 3.93856L15.7564 2.20005C15.9167 1.93333 16.307 1.93333 16.4672 2.19997Z" stroke="white" stroke-width="2.2" stroke-miterlimit="10" stroke-linecap="round" stroke-linejoin="round"/>
<path d="M5.55155 3.52698L6.4072 4.95089C6.4547 5.02992 6.53295 5.08618 6.62365 5.10646L8.2567 5.47161C8.50723 5.52763 8.60599 5.82839 8.43663 6.01938L7.33231 7.26453C7.27098 7.33366 7.24113 7.42469 7.24967 7.51628L7.40333 9.16586C7.42691 9.4189 7.16832 9.60481 6.93235 9.50445L5.39423 8.85012C5.30882 8.81383 5.2121 8.81383 5.12669 8.85012L3.58857 9.50445C3.3526 9.60481 3.09401 9.41898 3.11759 9.16586L3.27125 7.51628C3.27979 7.42469 3.24986 7.33366 3.18861 7.26453L2.08437 6.01938C1.91493 5.82839 2.01377 5.52763 2.2643 5.47161L3.89735 5.10646C3.98805 5.08618 4.0663 5.02992 4.1138 4.95089L4.96945 3.52698C5.10066 3.30855 5.42034 3.30855 5.55155 3.52698Z" stroke="white" stroke-width="2.2" stroke-miterlimit="10" stroke-linecap="round" stroke-linejoin="round"/>
<path d="M26.1345 3.52698L25.2788 4.95089C25.2313 5.02992 25.1531 5.08618 25.0624 5.10646L23.4293 5.47161C23.1788 5.52763 23.08 5.82839 23.2494 6.01938L24.3536 7.26453C24.4149 7.33366 24.4448 7.42469 24.4363 7.51628L24.2826 9.16586C24.259 9.4189 24.5176 9.60481 24.7536 9.50445L26.2917 8.85012C26.3771 8.81383 26.4738 8.81383 26.5592 8.85012L28.0974 9.50445C28.3333 9.60481 28.5919 9.41898 28.5683 9.16586L28.4147 7.51628C28.4061 7.42469 28.4361 7.33366 28.4973 7.26453L29.6016 6.01938C29.771 5.82839 29.6722 5.52763 29.4216 5.47161L27.7886 5.10646C27.6979 5.08618 27.6196 5.02992 27.5721 4.95089L26.7165 3.52698C26.5853 3.30855 26.2657 3.30855 26.1345 3.52698Z" stroke="white" stroke-width="2.2" stroke-miterlimit="10" stroke-linecap="round" stroke-linejoin="round"/>
<path d="M40.3149 31.9888H38.3122M40.3149 35.3259H38.3122M40.3149 38.6629H38.3122M42.0013 30.3203C42.0013 29.3989 41.2463 28.6519 40.315 28.6519L34.1859 28.6425C33.3829 28.6413 32.7325 27.9968 32.7325 27.2023V22.8935C32.7325 22.0048 32.2716 21.1781 31.5115 20.7042C30.9048 20.326 30.1003 20.6284 29.8987 21.3094L27.463 29.5382C27.0728 30.8568 25.8505 31.7628 24.4618 31.7628H22.7959V40.3705H25.3725C26.7353 40.3705 28.0908 40.6247 29.3405 41.1624C30.5848 41.6977 31.9271 41.9739 33.2837 41.9739L40.3149 42C41.2463 42 42.0012 41.253 42.0012 40.3315C42.0012 39.41 41.2462 38.663 40.3149 38.663C41.2463 38.663 42.0012 37.9159 42.0012 36.9945C42.0012 36.0729 41.2462 35.326 40.3149 35.326C41.2463 35.326 42.0012 34.5789 42.0012 33.6575C42.0012 32.736 41.2462 31.989 40.3149 31.989C41.2463 31.9888 42.0013 31.2418 42.0013 30.3203Z" stroke="white" stroke-width="2.2" stroke-miterlimit="10" stroke-linecap="round" stroke-linejoin="round"/>
<path d="M22.1251 41.6553H18.0901C17.7206 41.6553 17.4209 41.3589 17.4209 40.9932V30.8145C17.4209 30.4488 17.7205 30.1523 18.0901 30.1523H22.1251C22.4946 30.1523 22.7943 30.4488 22.7943 30.8145V40.9932C22.7943 41.3589 22.4947 41.6553 22.1251 41.6553Z" stroke="white" stroke-width="2.2" stroke-miterlimit="10" stroke-linecap="round" stroke-linejoin="round"/>
</svg>
