<svg width="24" height="25" viewBox="0 0 24 25" fill="none" xmlns="http://www.w3.org/2000/svg">
<path d="M22.9146 8.93085C22.5391 7.84568 22.0382 6.80219 21.3706 5.88412C16.529 5.13276 12.3551 6.76092 12.3551 6.76092C12.3967 6.88595 12.3967 7.01096 12.3967 7.1364C12.3967 7.4702 12.313 7.76233 12.1463 8.01278C12.1463 8.01278 19.3253 12.3539 20.9114 19.7417C22.4979 17.7801 23.4576 15.2756 23.4576 12.521C23.4993 11.227 23.2905 10.0164 22.9146 8.93085Z" fill="#F2F9FF"/>
<path d="M20.9121 2.25305L21.6498 1.5153L22.3876 2.25305L21.6498 2.99121L20.9121 2.25305Z" fill="#005395"/>
<path d="M21.9967 21.7034C22.0801 21.7871 22.1634 21.9121 22.1634 22.0792C22.1634 22.2043 22.1214 22.3714 21.9967 22.4547C21.913 22.5385 21.788 22.6218 21.6209 22.6218C21.3287 22.6218 21.0783 22.3714 21.0783 22.0792C21.0783 21.9538 21.12 21.7871 21.245 21.7034C21.3287 21.62 21.4538 21.5367 21.6209 21.5367C21.7459 21.5367 21.913 21.62 21.9967 21.7034Z" fill="#005395"/>
<path d="M21.4542 11.2683C21.5375 11.3521 21.6213 11.4771 21.6213 11.6446C21.6213 11.7692 21.5796 11.9367 21.4542 12.0201C21.3708 12.1034 21.2454 12.1868 21.0787 12.1868C20.7862 12.1868 20.5361 11.9367 20.5361 11.6446C20.5361 11.5192 20.5778 11.3521 20.7028 11.2683C20.7861 11.1849 20.9116 11.1016 21.0787 11.1016C21.2454 11.1016 21.3708 11.1849 21.4542 11.2683Z" fill="#005395"/>
<path d="M14.3163 1.20914C17.238 1.7934 19.7426 3.50491 21.412 5.84236C16.57 5.091 12.3964 6.71875 12.3964 6.71875C12.271 6.13449 11.7705 5.63358 11.1442 5.42479C11.1442 5.42479 11.8539 3.21278 14.3163 1.20914Z" fill="white"/>
<path d="M12.1878 7.97126C11.8119 8.55552 11.1023 8.931 10.2679 8.931C10.1008 8.931 9.93373 8.931 9.76703 8.88974C9.76703 8.88974 6.63654 15.3591 11.1022 23.9158C11.3948 23.9575 11.6869 23.9575 11.979 23.9575C14.4002 23.9575 16.6535 23.2061 18.4905 21.9122C19.4085 21.2863 20.2016 20.5345 20.9113 19.6581C19.3252 12.3124 12.1878 7.97126 12.1878 7.97126Z" fill="white"/>
<path d="M13.1065 11.2683C13.1898 11.3521 13.2732 11.4771 13.2732 11.6446C13.2732 11.7692 13.2315 11.9367 13.1065 12.0201C13.0227 12.1034 12.8977 12.1868 12.7306 12.1868C12.4384 12.1868 12.188 11.9367 12.188 11.6446C12.188 11.5192 12.2297 11.3521 12.3551 11.2683C12.4384 11.1849 12.5634 11.1016 12.7306 11.1016C12.8977 11.1016 13.0227 11.1849 13.1065 11.2683Z" fill="#005395"/>
<path d="M12.3967 6.7189C12.4384 6.84433 12.4384 6.96935 12.4384 7.09478C12.4384 7.42859 12.3551 7.72072 12.188 7.97117C11.8121 8.55543 11.1024 8.93091 10.2681 8.93091C10.101 8.93091 9.93386 8.93091 9.76716 8.88965C9.22458 8.76421 8.76534 8.51417 8.47279 8.13787C8.22275 7.84574 8.09731 7.47026 8.09731 7.09478C8.09731 6.80224 8.18066 6.5522 8.3061 6.30133C8.64031 5.67581 9.39128 5.25825 10.2681 5.25825C10.5602 5.25825 10.8523 5.29992 11.1024 5.42494C11.7708 5.67581 12.2713 6.13464 12.3967 6.7189Z" fill="#F2F9FF"/>
<path d="M12.0207 1.00085C12.8138 1.00085 13.5651 1.0842 14.3165 1.20923C11.854 3.17078 11.1443 5.42488 11.1443 5.42488C10.8939 5.34153 10.6017 5.25818 10.3096 5.25818C9.4328 5.25818 8.72352 5.67575 8.34804 6.30127C8.34804 6.30127 5.84309 5.34153 3.00514 5.38321C5.09213 2.71196 8.34805 1.00085 12.0207 1.00085Z" fill="white"/>
<path d="M9.76731 8.88967C9.22472 8.76423 8.76548 8.51419 8.47294 8.13789C8.47294 8.13789 3.33921 11.0183 1.08553 16.027C1.41933 17.1118 1.96193 18.1136 2.58828 19.0321C4.50816 21.7871 7.59655 23.6649 11.1025 23.9158C6.63681 15.3173 9.76731 8.88967 9.76731 8.88967Z" fill="white"/>
<path d="M8.47275 8.13771C8.47275 8.13771 3.33903 11.0182 1.08534 16.0269C0.751128 14.8996 0.542763 13.7311 0.542763 12.4788C0.542763 9.80755 1.46083 7.34508 3.00524 5.42479C5.84319 5.38311 8.34815 6.34326 8.34815 6.34326C8.22271 6.59372 8.13936 6.84417 8.13936 7.1363C8.09727 7.47011 8.26439 7.84558 8.47275 8.13771Z" fill="#F2F9FF"/>
<path d="M6.84533 17.5293C6.92868 17.6126 7.01203 17.7381 7.01203 17.9052C7.01203 18.0723 6.97036 18.1973 6.84533 18.2806C6.76157 18.3644 6.63656 18.4478 6.46945 18.4478C6.17732 18.4478 5.92687 18.1973 5.92687 17.9052C5.92687 17.7801 5.96853 17.6126 6.09397 17.5293C6.17732 17.4459 6.30275 17.3626 6.46945 17.3626C6.63656 17.3626 6.76157 17.4459 6.84533 17.5293Z" fill="#005395"/>
<path d="M3.71508 1.8771C3.79843 1.96045 3.88178 2.08548 3.88178 2.25258C3.88178 2.37761 3.8401 2.54512 3.71508 2.62847C3.58965 2.71182 3.5063 2.79517 3.3392 2.79517C3.04707 2.79517 2.79662 2.54513 2.79662 2.25258C2.79662 2.12756 2.83828 1.96045 2.96372 1.8771C3.04706 1.79334 3.1725 1.70999 3.3392 1.70999C3.5063 1.75208 3.63132 1.79334 3.71508 1.8771Z" fill="#005395"/>
<path d="M2.17022 20.6599C2.25357 20.7432 2.33692 20.8687 2.33692 21.0354C2.33692 21.2029 2.29566 21.3279 2.17022 21.4113C2.04479 21.495 1.96143 21.5784 1.79432 21.5784C1.50219 21.5784 1.25174 21.3279 1.25174 21.0354C1.25174 20.9108 1.29343 20.7432 1.41886 20.6599C1.50221 20.5765 1.62721 20.4932 1.79432 20.4932C1.91934 20.5345 2.08688 20.5765 2.17022 20.6599Z" fill="#005395"/>
<path d="M12.0211 1.50141C8.64053 1.50141 5.51003 3.04623 3.38137 5.71707C1.83655 7.67904 1.0435 9.97481 1.0435 12.479C1.0435 13.6479 1.21061 14.7747 1.5865 15.8599C1.91989 16.9034 2.42081 17.8635 3.00548 18.7399C4.92578 21.4529 7.88874 23.164 11.1867 23.4148C11.4789 23.4565 11.771 23.4565 12.0211 23.4565C14.2331 23.4565 16.4038 22.7885 18.2404 21.4949C19.1167 20.9107 19.8685 20.1589 20.5361 19.3659C22.1218 17.4039 22.9569 14.9831 22.9569 12.479C22.9569 11.3104 22.7902 10.1832 22.4139 9.05633C22.0805 8.01284 21.5796 7.0531 20.9533 6.17671C19.3255 3.88052 16.9047 2.29444 14.1918 1.75227C13.4821 1.58516 12.7724 1.50141 12.0211 1.50141ZM12.0211 24.5C11.7289 24.5 11.3951 24.5 11.1026 24.4583C7.51326 24.1662 4.25775 22.3297 2.21243 19.3659C1.54441 18.4061 1.00183 17.3205 0.626353 16.1941C0.208789 14.9831 0 13.7312 0 12.479C0 9.76603 0.87682 7.2198 2.54625 5.09114C3.63142 3.67175 5.05039 2.54531 6.67856 1.75227C8.3484 0.917145 10.1428 0.499998 12.0211 0.499998C12.8141 0.499998 13.6488 0.58334 14.4006 0.750034C17.4056 1.37638 20.0352 3.08749 21.8297 5.59204C22.5394 6.55219 23.0403 7.63736 23.4162 8.7642C23.7916 9.97481 24.0004 11.2271 24.0004 12.479C24.0004 15.1919 23.0403 17.9052 21.3292 20.0339C20.6195 20.9107 19.7431 21.7033 18.8246 22.3713C16.8214 23.7486 14.4839 24.5 12.0211 24.5Z" fill="#005395"/>
<path d="M10.2679 5.80048C9.64158 5.80048 9.05732 6.09261 8.76519 6.55226C8.68143 6.71896 8.59807 6.88606 8.59807 7.09484C8.59807 7.3453 8.68143 7.59576 8.84854 7.80454C9.09899 8.09667 9.43279 8.30545 9.85035 8.3888C9.97579 8.43006 10.1008 8.43006 10.2258 8.43006C10.8522 8.43006 11.3947 8.13793 11.6869 7.72078C11.8119 7.55368 11.854 7.3453 11.854 7.13652C11.854 7.05317 11.854 6.96942 11.8119 6.88607C11.7286 6.46892 11.3531 6.1347 10.8522 5.92592C10.7267 5.84257 10.518 5.80048 10.2679 5.80048ZM10.2679 9.43188C10.0591 9.43188 9.85036 9.43188 9.68325 9.39062C9.01565 9.26519 8.47263 8.93097 8.09715 8.47215C7.76376 8.05458 7.59626 7.59575 7.59626 7.09484C7.59626 6.71895 7.67961 6.34348 7.88839 6.05135C8.34804 5.25831 9.26609 4.7574 10.3096 4.7574C10.6855 4.7574 11.0189 4.79907 11.3531 4.9241C12.1878 5.21623 12.7721 5.84257 12.9392 6.59394C12.9808 6.76104 12.9808 6.92774 12.9808 7.09484C12.9808 7.51199 12.8554 7.88789 12.647 8.26336C12.1461 9.01473 11.2277 9.43188 10.2679 9.43188Z" fill="#005395"/>
<path d="M12.3968 7.26147C12.1881 7.26147 11.9793 7.13646 11.8959 6.92768C11.8122 6.67722 11.9376 6.34341 12.1881 6.26006C12.3552 6.17672 16.5292 4.6319 21.4541 5.38326C21.7462 5.42494 21.955 5.67581 21.9133 5.96794C21.8717 6.26007 21.6212 6.46885 21.3291 6.42676C16.6959 5.71707 12.6473 7.26147 12.6056 7.26147C12.5219 7.26147 12.4802 7.26147 12.3968 7.26147Z" fill="#005395"/>
<path d="M11.1445 5.96802C11.1024 5.96802 11.0191 5.96802 10.9778 5.92593C10.6857 5.84258 10.5603 5.55045 10.6436 5.25832C10.6857 5.17497 11.4366 2.83752 13.9829 0.792202C14.1917 0.625095 14.4838 0.625095 14.6505 0.833877C14.8593 1.04225 14.8593 1.37646 14.6505 1.58524L14.6088 1.62692C12.313 3.46304 11.6033 5.55045 11.6033 5.59212C11.5621 5.80049 11.3533 5.96802 11.1445 5.96802Z" fill="#005395"/>
<path d="M8.30577 6.84448C8.2641 6.84448 8.18034 6.84448 8.13908 6.8024C8.09699 6.8024 5.71829 5.88433 3.00496 5.92601C2.71241 5.92601 2.46238 5.67596 2.46238 5.38342C2.46238 5.09129 2.71241 4.84084 3.00496 4.84084C5.92666 4.79916 8.43121 5.71722 8.51456 5.75931C8.76501 5.84266 8.93213 6.17687 8.80669 6.42691C8.72334 6.71904 8.51456 6.84448 8.30577 6.84448Z" fill="#005395"/>
<path d="M1.0851 16.5276C1.04301 16.5276 0.959669 16.5276 0.917995 16.4863C0.625866 16.4026 0.500427 16.1104 0.583775 15.8183V15.7766C1.79438 13.1054 3.79804 11.0184 5.25868 9.76611C6.84518 8.38881 8.13911 7.67912 8.18037 7.63745C8.43124 7.51201 8.76505 7.59577 8.89007 7.84582C9.01551 8.09669 8.93216 8.43007 8.68129 8.55551C8.68129 8.63886 3.71468 11.4772 1.58601 16.2355C1.50225 16.4026 1.29346 16.5276 1.0851 16.5276Z" fill="#005395"/>
<path d="M11.1445 24.4583C10.9357 24.4583 10.769 24.3749 10.6857 24.1661C8.30612 19.6167 8.05607 15.651 8.26444 13.1469C8.51489 10.3919 9.30794 8.72205 9.30794 8.68079C9.43296 8.42992 9.72509 8.30531 10.0172 8.42992C10.2681 8.55536 10.3931 8.84748 10.2681 9.13961C10.2681 9.1817 9.51672 10.7261 9.30794 13.3136C9.09916 15.651 9.34961 19.3658 11.6033 23.6652C11.7287 23.9157 11.6454 24.2495 11.3949 24.3749C11.3112 24.4166 11.2278 24.4583 11.1445 24.4583Z" fill="#005395"/>
<path d="M20.9528 20.2009C20.7023 20.2009 20.4935 20.0338 20.4523 19.825V19.7834C19.6592 16.1103 17.4051 13.2302 15.6519 11.4358C13.7316 9.47383 11.9789 8.42992 11.9372 8.38866C11.6867 8.22156 11.603 7.92943 11.7705 7.67897C11.9372 7.42852 12.2293 7.34517 12.4798 7.51186C12.5631 7.55354 14.358 8.6387 16.3612 10.684C18.2398 12.5622 20.6189 15.6094 21.4953 19.5746C21.537 19.8667 21.3703 20.1176 21.1199 20.2009C21.0365 20.2009 20.9944 20.2009 20.9528 20.2009Z" fill="#005395"/>
<path d="M18.5323 22.4546C18.2402 22.4546 17.9897 22.2041 17.9897 21.912C17.9897 17.4459 13.8995 13.3136 13.8574 13.2719C13.6486 13.0635 13.6486 12.7293 13.8574 12.521C14.0662 12.3122 14.4004 12.3122 14.6088 12.521C14.6504 12.5622 15.7356 13.6478 16.8212 15.3172C17.8226 16.9033 19.0749 19.2824 19.0332 21.8703C19.0332 22.2041 18.8244 22.4546 18.5323 22.4546Z" fill="#005395"/>
<path d="M2.5882 19.5747C2.54611 19.5747 2.5461 19.5747 2.50443 19.5747C2.2123 19.533 2.00352 19.2826 2.0452 18.9905V18.9488C2.88032 14.1068 5.96872 11.9781 6.09415 11.8948C6.3442 11.7281 6.63674 11.8114 6.80343 12.0202C6.97054 12.2702 6.8872 12.5624 6.67842 12.7295C6.67842 12.7295 5.96873 13.2304 5.17569 14.2743C4.42432 15.234 3.50625 16.8197 3.0891 19.1159C3.0891 19.408 2.88033 19.5747 2.5882 19.5747Z" fill="#005395"/>
<path d="M22.9146 9.43188C22.79 9.43188 22.6645 9.39062 22.5812 9.30686C20.6192 7.38698 17.0299 8.09667 17.0299 8.09667C16.7378 8.13793 16.4869 7.97124 16.4035 7.67911C16.3614 7.38698 16.529 7.13652 16.8211 7.05317C16.9878 7.01108 20.953 6.26013 23.2904 8.51424C23.4992 8.72219 23.4992 9.05641 23.2904 9.26519C23.2071 9.39062 23.0821 9.43188 22.9146 9.43188Z" fill="#005395"/>
</svg>
