<svg width="24" height="25" viewBox="0 0 24 25" fill="none" xmlns="http://www.w3.org/2000/svg">
<path d="M21.518 10.1987L23.1795 12.0729L21.518 13.9878L22.3069 16.351L20.0225 17.4514L19.8561 19.9367L17.3225 20.1405L16.1591 22.3817L13.7499 21.6075L11.8388 23.1965L9.88659 21.6075L7.47736 22.3817L6.314 20.1405L3.78035 19.9367L3.61404 17.4514L1.32964 16.351L2.11848 13.9878L0.457027 12.0729L2.11848 10.1987L1.32964 7.83506L3.61404 6.69435L3.78035 4.20869L6.314 4.04596L7.47736 1.80479L9.88659 2.57897L11.8388 0.949259L13.7499 2.57897L16.1591 1.80479L17.3225 4.04596L19.8561 4.20869L20.0225 6.69435L22.3069 7.83506L21.518 10.1987Z" fill="white"/>
<path d="M23.3051 4.29006C23.3881 4.37142 23.4714 4.49347 23.4714 4.65661C23.4714 4.77865 23.4299 4.94179 23.3051 5.02315C23.2222 5.10492 23.0973 5.18628 22.9314 5.18628C22.6407 5.18628 22.3914 4.9418 22.3914 4.6973C22.3914 4.57525 22.4329 4.41211 22.5577 4.33075C22.6407 4.24938 22.7655 4.16762 22.9314 4.16762C23.0973 4.12694 23.2222 4.20829 23.3051 4.29006Z" fill="#005395"/>
<path d="M19.6493 21.607C19.7322 21.6883 19.8152 21.8108 19.8152 21.9735C19.8152 22.0959 19.7737 22.2587 19.6493 22.3404C19.5659 22.4218 19.4415 22.5032 19.2752 22.5032C18.9845 22.5032 18.7352 22.2587 18.7352 21.9735C18.7352 21.8514 18.7767 21.6883 18.9015 21.607C18.9845 21.5256 19.1089 21.4438 19.2752 21.4438C19.4415 21.4438 19.5659 21.5256 19.6493 21.607Z" fill="#005395"/>
<path d="M19.1508 1.72341C19.2342 1.80477 19.3172 1.92682 19.3172 2.08995C19.3172 2.212 19.2757 2.37514 19.1508 2.4565C19.0679 2.53787 18.9435 2.61963 18.7772 2.61963C18.4864 2.61963 18.2372 2.37514 18.2372 2.08995C18.2372 1.9675 18.2786 1.80477 18.4035 1.72341C18.4864 1.64164 18.6113 1.56028 18.7772 1.56028C18.9435 1.60096 19.0679 1.64164 19.1508 1.72341Z" fill="#005395"/>
<path d="M3.5713 1.72341C3.65425 1.80477 3.73761 1.92682 3.73761 2.08995C3.73761 2.212 3.69572 2.37514 3.5713 2.4565C3.48835 2.53787 3.36352 2.61963 3.19721 2.61963C2.90647 2.61963 2.65721 2.37514 2.65721 2.08995C2.65721 1.9675 2.69868 1.80477 2.82352 1.72341C2.90647 1.64164 3.03131 1.56028 3.19721 1.56028C3.36352 1.56028 3.48835 1.64164 3.5713 1.72341Z" fill="#005395"/>
<path d="M1.99473 19.5697C2.07767 19.6511 2.16063 19.7735 2.16063 19.9362C2.16063 20.0587 2.11915 20.2218 1.99473 20.3032C1.91178 20.3845 1.78695 20.4663 1.62105 20.4663C1.33031 20.4663 1.08105 20.2218 1.08105 19.9362C1.08105 19.8142 1.12252 19.6511 1.24695 19.5697C1.33031 19.4883 1.45474 19.4065 1.62105 19.4065C1.78695 19.4065 1.91178 19.4883 1.99473 19.5697Z" fill="#005395"/>
<path d="M11.8395 19.2034C7.85172 19.2034 4.57028 15.9842 4.57028 12.0727C4.57028 8.1607 7.81024 4.94194 11.8395 4.94194C15.8276 4.94194 19.1091 8.1607 19.1091 12.0727C19.1091 12.3578 18.8598 12.6023 18.5691 12.6023C18.2783 12.6023 18.0295 12.3578 18.0295 12.0727C18.0295 8.69078 15.2457 5.96061 11.798 5.96061C8.35024 5.96061 5.56691 8.69078 5.56691 12.0727C5.56691 15.4545 8.35024 18.1847 11.798 18.1847C13.0858 18.1847 14.2906 17.8178 15.3291 17.0843C15.5784 16.9215 15.8691 16.9622 16.0354 17.2067C16.2013 17.4512 16.1598 17.7364 15.9106 17.8995C14.7472 18.7957 13.2935 19.2034 11.8395 19.2034Z" fill="#005395"/>
<path d="M15.9942 12.6021C15.703 12.6021 15.4538 12.3576 15.4538 12.0724C15.4538 10.1164 13.8338 8.48668 11.7982 8.48668C11.5075 8.48668 11.2997 8.24216 11.2997 7.95698C11.2997 7.6718 11.549 7.42731 11.7982 7.42731C14.3738 7.42731 16.4923 9.46466 16.4923 12.0317C16.4923 12.3575 16.243 12.6021 15.9942 12.6021Z" fill="#005395"/>
<path d="M9.88651 21.0773C10.0113 21.0773 10.1358 21.118 10.2187 21.1997L11.7972 22.5439L13.3757 21.1997C13.5006 21.0773 13.7084 21.0366 13.8743 21.118L15.8683 21.7701L16.8239 19.9362C16.9068 19.7734 17.0727 19.6917 17.2395 19.651L19.3161 19.4882L19.4824 17.4509C19.4824 17.2878 19.6068 17.125 19.7731 17.0433L21.6424 16.1064L20.9775 14.1504C20.9365 13.9872 20.9775 13.7834 21.0605 13.6614L22.4316 12.113L21.1024 10.524C20.9775 10.4015 20.9365 10.1981 21.0194 10.035L21.6838 8.07902L19.8146 7.14211C19.6487 7.06034 19.5653 6.89762 19.5239 6.73449L19.3576 4.69714L17.2805 4.53441C17.1146 4.53441 16.9483 4.41196 16.8654 4.24923L15.9098 2.4153L13.9161 3.06742C13.7498 3.10811 13.542 3.06742 13.4176 2.98565L11.8387 1.64112L10.2606 2.98565C10.1358 3.1081 9.92798 3.14879 9.76208 3.06742L7.76801 2.4153L6.81245 4.24923C6.7295 4.41196 6.56318 4.49332 6.39728 4.53441L4.32027 4.69714L4.15395 6.73449C4.15395 6.89762 4.02953 7.06034 3.86322 7.14211L1.99397 8.07902L2.65839 10.035C2.69986 10.1981 2.65839 10.4015 2.57544 10.524L1.16325 12.0724L2.53397 13.6207C2.6584 13.7428 2.69986 13.9466 2.61691 14.1097L1.9525 16.0653L3.82174 17.0026C3.98805 17.084 4.071 17.2471 4.11248 17.4102L4.27879 19.4472L6.3554 19.6103C6.52171 19.6103 6.68802 19.7327 6.77097 19.8955L7.72654 21.729L9.7206 21.0773C9.80355 21.0773 9.84503 21.0773 9.88651 21.0773ZM11.8387 23.7261C11.7143 23.7261 11.5894 23.685 11.5065 23.6036L9.80356 22.1773L7.68506 22.8701C7.4358 22.9515 7.18653 22.8295 7.0617 22.6256L5.98172 20.629L3.73879 20.4662C3.48953 20.4662 3.28175 20.2624 3.24028 19.9772L3.11544 17.7768L1.12177 16.7988C0.872512 16.6767 0.789149 16.4322 0.872509 16.1877L1.57841 14.1097L0.124732 12.4393C-0.0415775 12.2355 -0.0415775 11.9499 0.124732 11.7872L1.57841 10.1164L0.830623 7.99766C0.747673 7.75316 0.872512 7.50867 1.0803 7.38662L3.07396 6.40862L3.24028 4.20814C3.24028 3.96364 3.44765 3.76022 3.73879 3.71914L5.98172 3.55641L6.97876 1.60042C7.10359 1.35592 7.35244 1.27457 7.6017 1.35593L9.7206 2.04875L11.4235 0.62244C11.6313 0.459307 11.9221 0.459307 12.0884 0.62244L13.7913 2.04875L15.9098 1.35593C16.1591 1.27457 16.4083 1.39661 16.5332 1.60042L17.5302 3.55641L19.7731 3.71914C20.0224 3.71914 20.2302 3.92296 20.2712 4.20814L20.438 6.40862L22.4316 7.38662C22.6809 7.50867 22.7642 7.75316 22.6809 7.99766L21.9746 10.0757L23.4286 11.7465C23.5945 11.9499 23.5945 12.2355 23.4286 12.3982L21.9746 14.069L22.6809 16.147C22.7642 16.3915 22.6394 16.6356 22.4316 16.7581L20.5209 17.7768L20.3546 19.9772C20.3546 20.2217 20.1472 20.4255 19.8561 20.4662L17.6542 20.629L16.6576 22.5849C16.5332 22.8294 16.2839 22.9108 16.0346 22.8294L13.9161 22.1366L12.2128 23.5629C12.0465 23.685 11.9221 23.7261 11.8387 23.7261Z" fill="#005395"/>
<path d="M23.4684 21.4438C23.3851 21.4438 23.2611 21.4032 23.1777 21.3625L21.5992 20.3438C21.3499 20.1807 21.3085 19.8548 21.4744 19.651C21.6407 19.4065 21.9729 19.3658 22.1807 19.5289L23.7592 20.5476C24.0084 20.7108 24.0503 21.0366 23.8836 21.2404C23.8006 21.3625 23.6347 21.4438 23.4684 21.4438Z" fill="#005395"/>
<path d="M0.624126 24.4998C0.457816 24.4998 0.291501 24.4184 0.208552 24.2553C0.0422419 24.0112 0.125603 23.6849 0.332978 23.5628L3.44852 21.5255C3.69778 21.3624 4.0304 21.4437 4.15482 21.6475C4.32113 21.892 4.23818 22.2179 4.0304 22.3404L0.914854 24.3777C0.790019 24.4998 0.707076 24.4998 0.624126 24.4998Z" fill="#005395"/>
<path d="M21.3931 4.1272C21.2683 4.1272 21.1439 4.08652 21.0194 3.96407C20.8117 3.76066 20.8117 3.4344 21.0194 3.23058L23.0961 1.19362C23.3039 0.989808 23.6365 0.989808 23.8443 1.19362C24.052 1.39704 24.052 1.72331 23.8443 1.92672L21.7668 3.96407C21.6424 4.08652 21.518 4.1272 21.3931 4.1272Z" fill="#005395"/>
</svg>
