<svg width="25" height="25" viewBox="0 0 25 25" fill="none" xmlns="http://www.w3.org/2000/svg">
<g clip-path="url(#clip0_152_40048)">
<path fill-rule="evenodd" clip-rule="evenodd" d="M13.7079 15.3529L15.9119 13.1489C16.5206 12.5402 16.6715 11.6102 16.2865 10.8402L16.1617 10.5905C15.7767 9.8205 15.9276 8.89056 16.5363 8.28184L19.2691 5.54903C19.4644 5.35377 19.7809 5.35377 19.9762 5.54903C20.0142 5.58704 20.0458 5.63091 20.0699 5.67898L21.1738 7.88693C22.0184 9.57604 21.6873 11.6161 20.352 12.9514L14.3532 18.9503C12.8996 20.4038 10.7496 20.9113 8.79947 20.2613L6.38499 19.4565C6.12302 19.3692 5.98144 19.086 6.06876 18.824C6.09331 18.7504 6.13466 18.6835 6.18955 18.6286L8.84082 15.9773C9.44954 15.3686 10.3795 15.2177 11.1495 15.6027L11.3992 15.7275C12.1692 16.1125 13.0991 15.9616 13.7079 15.3529Z" fill="#005395"/>
<path opacity="0.3" d="M14.776 6.57572L14.5846 8.56655C13.1061 8.42441 11.6376 8.93753 10.5673 10.0079C9.50039 11.0748 8.98704 12.5371 9.12457 14.0112L7.13321 14.197C6.94097 12.1364 7.66076 10.086 9.15305 8.5937C10.6502 7.0965 12.7092 6.37704 14.776 6.57572ZM15.126 2.59088L14.941 4.5823C12.2898 4.33594 9.65793 5.26039 7.73884 7.17949C5.8224 9.09593 4.89778 11.7232 5.14067 14.371L3.14903 14.5537C2.85243 11.3203 3.98355 8.10635 6.32462 5.76527C8.66894 3.42095 11.8885 2.29005 15.126 2.59088Z" fill="#005395"/>
</g>
<defs>
<clipPath id="clip0_152_40048">
<rect width="24" height="24" fill="white" transform="translate(0.62793 0.568604)"/>
</clipPath>
</defs>
</svg>
