<svg width="17" height="20" viewBox="0 0 17 20" fill="none" xmlns="http://www.w3.org/2000/svg">
<path d="M2.07088 5.88562C1.78438 3.99862 3.11488 2.30362 5.14738 1.68262C5.50806 1.57235 5.89722 1.60374 6.23556 1.7704C6.57391 1.93706 6.83598 2.22646 6.96838 2.57962L7.62088 4.31962C7.72592 4.59954 7.74491 4.90447 7.67542 5.19526C7.60593 5.48605 7.45112 5.74944 7.23088 5.95162L5.28988 7.72912C5.1942 7.81692 5.12291 7.92801 5.08295 8.05157C5.04299 8.17512 5.03573 8.30693 5.06188 8.43412L5.07988 8.51212L5.12638 8.70712C5.36777 9.65459 5.73557 10.5653 6.21988 11.4146C6.74744 12.3172 7.40215 13.1391 8.16388 13.8551L8.22388 13.9091C8.32078 13.9951 8.43831 14.0546 8.56502 14.0816C8.69172 14.1087 8.82328 14.1025 8.94688 14.0636L11.4564 13.2731C11.7416 13.1836 12.047 13.1813 12.3335 13.2665C12.62 13.3518 12.8745 13.5207 13.0644 13.7516L14.2524 15.1931C14.7474 15.7931 14.6874 16.6751 14.1189 17.2046C12.5634 18.6551 10.4244 18.9521 8.93638 17.7566C7.11242 16.2854 5.57481 14.491 4.40038 12.4631C3.21641 10.4368 2.42707 8.20527 2.07088 5.88562ZM6.63538 8.53312L8.24338 7.05712C8.68413 6.65293 8.99402 6.12623 9.13328 5.54463C9.27253 4.96304 9.23478 4.3531 9.02488 3.79312L8.37388 2.05312C8.10739 1.34249 7.57998 0.760213 6.8991 0.424931C6.21822 0.0896486 5.43513 0.0265965 4.70938 0.248623C2.18488 1.02112 0.158376 3.28462 0.587376 6.11212C0.887376 8.08612 1.57888 10.5971 3.10438 13.2191C4.37144 15.4057 6.03006 17.3404 7.99738 18.9266C10.2294 20.7191 13.2084 20.1071 15.1434 18.3041C15.697 17.7886 16.0331 17.0812 16.083 16.3264C16.1329 15.5715 15.8929 14.826 15.4119 14.2421L14.2239 12.7991C13.8438 12.3378 13.3347 12.0006 12.7617 11.8306C12.1887 11.6606 11.578 11.6657 11.0079 11.8451L8.92438 12.5006C8.38643 11.946 7.91523 11.3303 7.52038 10.6661C7.13896 9.99466 6.84172 9.27877 6.63538 8.53462V8.53312Z" fill="#005395"/>
</svg>
