<svg width="49" height="48" viewBox="0 0 49 48" fill="none" xmlns="http://www.w3.org/2000/svg">
<path d="M18.0367 4.3841C20.0977 4.1001 21.8307 5.3611 22.6507 7.0001L24.6677 11.0331C25.7867 13.2711 25.1437 15.8971 23.4477 17.5491C22.4457 18.5241 21.4387 19.6381 20.8547 20.6211C20.8158 20.6911 20.8038 20.7729 20.8207 20.8511C21.3607 23.7771 23.3437 26.6681 25.1127 28.7411C25.2019 28.8396 25.318 28.9098 25.4467 28.9431C25.5754 28.9763 25.711 28.9711 25.8367 28.9281L29.8117 27.6861C30.8825 27.3514 32.0323 27.3685 33.0926 27.7349C34.1529 28.1013 35.068 28.7978 35.7037 29.7221L38.5807 33.9071C39.3607 35.0421 39.7557 36.5821 39.1577 38.0631C38.6237 39.3861 37.5907 41.2941 35.7117 42.5631C33.7617 43.8791 31.0907 44.3791 27.5957 43.1811C23.6907 41.8411 20.0017 38.4811 16.9427 34.1841C13.8657 29.8601 11.3327 24.4591 9.7967 18.8271C8.3447 13.5101 9.2207 9.9301 11.2827 7.6251C13.2717 5.4011 16.1217 4.6471 18.0367 4.3841ZM20.4137 8.1181C19.9567 7.2051 19.1417 6.7541 18.3767 6.8591C16.6757 7.0931 14.5457 7.7261 13.1467 9.2911C11.8207 10.7741 10.9027 13.3861 12.2067 18.1691C13.6717 23.5371 16.0837 28.6671 18.9787 32.7341C21.8917 36.8271 25.2017 39.7171 28.4057 40.8161C31.2607 41.7951 33.0957 41.3111 34.3117 40.4911C35.5977 39.6221 36.3887 38.2411 36.8387 37.1271C37.0447 36.6171 36.9557 35.9571 36.5197 35.3231L33.6427 31.1391C33.3098 30.6549 32.8306 30.29 32.2752 30.098C31.7198 29.906 31.1176 29.8969 30.5567 30.0721L26.5817 31.3141C25.3937 31.6851 24.0557 31.3541 23.2107 30.3641C21.3697 28.2071 19.0237 24.8991 18.3607 21.3041C18.2341 20.6304 18.3563 19.9335 18.7047 19.3431C19.4627 18.0691 20.6627 16.7701 21.7017 15.7581C22.7167 14.7701 23.0047 13.3001 22.4307 12.1511L20.4137 8.1181Z" fill="#2CA2FC"/>
</svg>
