<svg width="23" height="24" viewBox="0 0 23 24" fill="none" xmlns="http://www.w3.org/2000/svg">
<path d="M17.0741 15.6411C16.8628 15.4287 16.6116 15.2601 16.3351 15.145C16.0586 15.03 15.7621 14.9708 15.4627 14.9708C15.1633 14.9708 14.8668 15.03 14.5903 15.145C14.3137 15.2601 14.0626 15.4287 13.8512 15.6411L12.7517 16.7427C11.5136 15.9556 10.3666 15.0332 9.33163 13.9926C8.2951 12.9537 7.37463 11.8048 6.5865 10.5662L7.68607 9.46466C7.89816 9.25292 8.06644 9.00132 8.18126 8.72429C8.29608 8.44725 8.35519 8.15024 8.35519 7.85027C8.35519 7.5503 8.29608 7.25328 8.18126 6.97625C8.06644 6.69921 7.89816 6.44761 7.68607 6.23587L5.54001 4.09348C5.33164 3.88029 5.08262 3.71126 4.80775 3.59641C4.53288 3.48156 4.23776 3.42324 3.93994 3.42493C3.64001 3.42419 3.3429 3.48288 3.06569 3.59761C2.78849 3.71235 2.53666 3.88087 2.32471 4.09348L1.29339 5.11909C0.801824 5.64859 0.434947 6.28172 0.21973 6.97194C0.00451258 7.66216 -0.0535739 8.39193 0.0497401 9.1076C0.292404 11.9565 2.15788 15.3828 5.03193 18.2698C7.90598 21.1567 11.3639 23.018 14.2077 23.2915C14.4198 23.3028 14.6325 23.3028 14.8447 23.2915C15.4568 23.3172 16.0679 23.2203 16.6422 23.0063C17.2164 22.7924 17.7423 22.4657 18.1889 22.0455L19.2126 21.0123C19.4248 20.8 19.593 20.5477 19.7076 20.27C19.8221 19.9923 19.8807 19.6946 19.8799 19.3941C19.8816 19.0958 19.8234 18.8001 19.7088 18.5247C19.5941 18.2494 19.4254 17.9999 19.2126 17.7911L17.0741 15.6411ZM18.1434 19.9411L17.112 20.9668C16.7307 21.2851 16.2856 21.5177 15.8067 21.6488C15.3279 21.7799 14.8265 21.8064 14.3366 21.7265C11.872 21.5137 8.73256 19.7664 6.13909 17.1682C3.54562 14.5699 1.80147 11.4475 1.56639 8.97845C1.48461 8.4876 1.51006 7.98483 1.64098 7.5048C1.77189 7.02476 2.00517 6.57888 2.32471 6.19789L3.39395 5.16467C3.46481 5.09426 3.54884 5.03856 3.64124 5.00075C3.73363 4.96294 3.83256 4.94378 3.93236 4.94436C4.03216 4.94378 4.1311 4.96294 4.22349 5.00075C4.31588 5.03856 4.39991 5.09426 4.47077 5.16467L6.61683 7.33746C6.75807 7.4798 6.83735 7.67235 6.83735 7.87306C6.83735 8.07377 6.75807 8.26632 6.61683 8.40866L5.10018 9.92809C4.9815 10.0464 4.90524 10.2007 4.88329 10.367C4.86134 10.5333 4.89494 10.7022 4.97885 10.8473C5.88686 12.396 6.99048 13.8208 8.26239 15.0866C9.52582 16.3608 10.948 17.4664 12.4938 18.3761C12.6387 18.4602 12.8073 18.4938 12.9733 18.4719C13.1393 18.4499 13.2933 18.3735 13.4114 18.2546L14.9281 16.7351C15.0701 16.5936 15.2623 16.5142 15.4627 16.5142C15.663 16.5142 15.8552 16.5936 15.9973 16.7351L18.1434 18.8851C18.2136 18.9561 18.2692 19.0403 18.307 19.1329C18.3447 19.2254 18.3639 19.3245 18.3633 19.4245C18.3585 19.6186 18.2798 19.8034 18.1434 19.9411ZM19.4628 3.83517C18.409 2.77535 17.1561 1.935 15.7765 1.36259C14.3969 0.790177 12.9178 0.497021 11.4246 0.500023C11.2235 0.500023 11.0306 0.580064 10.8884 0.722538C10.7462 0.865012 10.6663 1.05825 10.6663 1.25974C10.6663 1.46123 10.7462 1.65446 10.8884 1.79694C11.0306 1.93941 11.2235 2.01945 11.4246 2.01945C12.7263 2.01941 14.015 2.27761 15.2166 2.77916C16.4181 3.2807 17.5086 4.01567 18.4251 4.94164C19.3416 5.86761 20.066 6.96625 20.5565 8.17416C21.047 9.38207 21.2938 10.6753 21.2828 11.9793C21.2828 12.1808 21.3627 12.374 21.5049 12.5165C21.6471 12.659 21.84 12.739 22.0412 12.739C22.2423 12.739 22.4352 12.659 22.5774 12.5165C22.7196 12.374 22.7995 12.1808 22.7995 11.9793C22.814 10.4674 22.5263 8.96794 21.9532 7.56922C21.3802 6.1705 20.5334 4.90087 19.4628 3.83517Z" fill="#FDA93F"/>
</svg>
