<svg width="40" height="40" viewBox="0 0 40 40" fill="none" xmlns="http://www.w3.org/2000/svg">
<path d="M39.6875 21.25C39.6875 21.4986 39.5887 21.7371 39.4129 21.9129C39.2371 22.0887 38.9986 22.1875 38.75 22.1875H35.9375V25C35.9375 25.2486 35.8387 25.4871 35.6629 25.6629C35.4871 25.8387 35.2486 25.9375 35 25.9375C34.7514 25.9375 34.5129 25.8387 34.3371 25.6629C34.1613 25.4871 34.0625 25.2486 34.0625 25V22.1875H31.25C31.0014 22.1875 30.7629 22.0887 30.5871 21.9129C30.4113 21.7371 30.3125 21.4986 30.3125 21.25C30.3125 21.0014 30.4113 20.7629 30.5871 20.5871C30.7629 20.4113 31.0014 20.3125 31.25 20.3125H34.0625V17.5C34.0625 17.2514 34.1613 17.0129 34.3371 16.8371C34.5129 16.6613 34.7514 16.5625 35 16.5625C35.2486 16.5625 35.4871 16.6613 35.6629 16.8371C35.8387 17.0129 35.9375 17.2514 35.9375 17.5V20.3125H38.75C38.9986 20.3125 39.2371 20.4113 39.4129 20.5871C39.5887 20.7629 39.6875 21.0014 39.6875 21.25ZM30.7172 30.6469C30.8008 30.7404 30.8647 30.8498 30.9053 30.9686C30.9458 31.0873 30.9621 31.213 30.9532 31.3382C30.9443 31.4633 30.9103 31.5854 30.8533 31.6972C30.7963 31.809 30.7175 31.9082 30.6215 31.989C30.5254 32.0698 30.4142 32.1304 30.2943 32.1674C30.1743 32.2044 30.0482 32.2169 29.9234 32.2042C29.7986 32.1915 29.6775 32.1539 29.5675 32.0936C29.4575 32.0333 29.3607 31.9515 29.2828 31.8531C26.0781 28.0391 21.6703 25.9375 16.875 25.9375C12.0797 25.9375 7.67343 28.0391 4.46718 31.8531C4.30476 32.0349 4.07792 32.1463 3.83476 32.1636C3.5916 32.181 3.35125 32.1029 3.16467 31.946C2.9781 31.7891 2.85998 31.5657 2.83536 31.3232C2.81074 31.0807 2.88157 30.8381 3.03281 30.6469C5.49062 27.7203 8.59374 25.7 12.0312 24.7266C10.0001 23.6459 8.38864 21.9171 7.45325 19.8151C6.51786 17.7131 6.31226 15.3586 6.86914 13.1263C7.42602 10.894 8.71341 8.91199 10.5265 7.49564C12.3396 6.07928 14.5743 5.3099 16.875 5.3099C19.1757 5.3099 21.4104 6.07928 23.2235 7.49564C25.0366 8.91199 26.324 10.894 26.8808 13.1263C27.4377 15.3586 27.2321 17.7131 26.2967 19.8151C25.3613 21.9171 23.7499 23.6459 21.7187 24.7266C25.1562 25.7 28.2594 27.7203 30.7172 30.6469ZM16.875 24.0625C18.5438 24.0625 20.1751 23.5676 21.5626 22.6405C22.9502 21.7134 24.0316 20.3956 24.6702 18.8539C25.3088 17.3121 25.4759 15.6156 25.1504 13.9789C24.8248 12.3422 24.0212 10.8388 22.8412 9.65879C21.6612 8.47878 20.1578 7.67519 18.5211 7.34962C16.8844 7.02406 15.1879 7.19115 13.6461 7.82977C12.1044 8.46838 10.7866 9.54984 9.85947 10.9374C8.93234 12.3249 8.43749 13.9562 8.43749 15.625C8.43998 17.862 9.32972 20.0067 10.9115 21.5885C12.4933 23.1703 14.638 24.06 16.875 24.0625Z" fill="#042E3A"/>
</svg>
