<svg width="40" height="40" viewBox="0 0 40 40" fill="none" xmlns="http://www.w3.org/2000/svg">
<path d="M33.75 7.8125H6.25C6.00136 7.8125 5.7629 7.91127 5.58709 8.08709C5.41127 8.2629 5.3125 8.50136 5.3125 8.75V32.5C5.3125 33.0802 5.54297 33.6366 5.9532 34.0468C6.36344 34.457 6.91984 34.6875 7.5 34.6875H13.75C14.3302 34.6875 14.8866 34.457 15.2968 34.0468C15.707 33.6366 15.9375 33.0802 15.9375 32.5V24.6875H24.0625V27.5C24.0625 28.0802 24.293 28.6366 24.7032 29.0468C25.1134 29.457 25.6698 29.6875 26.25 29.6875H32.5C33.0802 29.6875 33.6366 29.457 34.0468 29.0468C34.457 28.6366 34.6875 28.0802 34.6875 27.5V8.75C34.6875 8.50136 34.5887 8.2629 34.4129 8.08709C34.2371 7.91127 33.9986 7.8125 33.75 7.8125ZM32.8125 17.8125H25.9375V9.6875H32.8125V17.8125ZM14.0625 9.6875V17.8125H7.1875V9.6875H14.0625ZM14.0625 32.5C14.0625 32.5829 14.0296 32.6624 13.971 32.721C13.9124 32.7796 13.8329 32.8125 13.75 32.8125H7.5C7.41712 32.8125 7.33763 32.7796 7.27903 32.721C7.22042 32.6624 7.1875 32.5829 7.1875 32.5V19.6875H14.0625V32.5ZM15.9375 22.8125V9.6875H24.0625V22.8125H15.9375ZM32.5 27.8125H26.25C26.1671 27.8125 26.0876 27.7796 26.029 27.721C25.9704 27.6624 25.9375 27.5829 25.9375 27.5V19.6875H32.8125V27.5C32.8125 27.5829 32.7796 27.6624 32.721 27.721C32.6624 27.7796 32.5829 27.8125 32.5 27.8125Z" fill="#042E3A"/>
</svg>
