<svg width="41" height="40" viewBox="0 0 41 40" fill="none" xmlns="http://www.w3.org/2000/svg">
<path d="M33.9375 15C33.9392 12.7292 33.3653 10.495 32.2696 8.50606C31.1738 6.51712 29.5919 4.83831 27.6715 3.62639C25.7511 2.41448 23.555 1.70899 21.2881 1.57582C19.0212 1.44264 16.7575 1.88612 14.7084 2.86485C12.6594 3.84357 10.8917 5.32561 9.57063 7.17256C8.24953 9.01952 7.41803 11.1712 7.15379 13.4265C6.88955 15.6819 7.20118 17.9675 8.05958 20.0698C8.91798 22.1721 10.2952 24.0226 12.0625 25.4484V37.5C12.0627 37.6598 12.1037 37.8168 12.1816 37.9563C12.2596 38.0958 12.3718 38.213 12.5078 38.2969C12.6554 38.389 12.826 38.4378 13 38.4375C13.1453 38.4376 13.2887 38.4039 13.4188 38.3391L20.5 34.7984L27.5828 38.3391C27.7257 38.4101 27.8844 38.4434 28.0438 38.436C28.2031 38.4285 28.358 38.3805 28.4936 38.2965C28.6293 38.2125 28.7413 38.0952 28.8189 37.9558C28.8966 37.8165 28.9374 37.6596 28.9375 37.5V25.4484C30.4985 24.1909 31.7578 22.5997 32.6231 20.7916C33.4883 18.9835 33.9375 17.0045 33.9375 15ZM8.9375 15C8.9375 12.7132 9.61563 10.4777 10.8861 8.57622C12.1566 6.67478 13.9625 5.19278 16.0752 4.31764C18.188 3.44251 20.5128 3.21353 22.7557 3.65967C24.9986 4.10581 27.0589 5.20703 28.6759 6.82408C30.293 8.44112 31.3942 10.5014 31.8403 12.7443C32.2865 14.9872 32.0575 17.312 31.1824 19.4248C30.3072 21.5375 28.8252 23.3434 26.9238 24.6139C25.0223 25.8844 22.7868 26.5625 20.5 26.5625C17.4346 26.5588 14.4958 25.3394 12.3282 23.1718C10.1606 21.0042 8.94122 18.0654 8.9375 15ZM27.0625 35.9828L20.9172 32.9109C20.7871 32.846 20.6438 32.8122 20.4984 32.8122C20.3531 32.8122 20.2097 32.846 20.0797 32.9109L13.9375 35.9828V26.7187C15.9415 27.8446 18.2014 28.4359 20.5 28.4359C22.7986 28.4359 25.0585 27.8446 27.0625 26.7187V35.9828ZM20.5 23.4375C22.1688 23.4375 23.8001 22.9426 25.1876 22.0155C26.5752 21.0884 27.6566 19.7706 28.2952 18.2289C28.9338 16.6871 29.1009 14.9906 28.7754 13.3539C28.4498 11.7172 27.6462 10.2138 26.4662 9.03379C25.2862 7.85378 23.7828 7.05019 22.1461 6.72462C20.5094 6.39906 18.8129 6.56615 17.2711 7.20477C15.7294 7.84338 14.4116 8.92484 13.4845 10.3124C12.5574 11.6999 12.0625 13.3312 12.0625 15C12.065 17.237 12.9547 19.3817 14.5365 20.9635C16.1183 22.5453 18.263 23.435 20.5 23.4375ZM20.5 8.4375C21.7979 8.4375 23.0667 8.82238 24.1459 9.54348C25.2251 10.2646 26.0663 11.2895 26.563 12.4886C27.0597 13.6878 27.1896 15.0073 26.9364 16.2803C26.6832 17.5533 26.0582 18.7226 25.1404 19.6404C24.2226 20.5582 23.0533 21.1832 21.7803 21.4364C20.5073 21.6896 19.1878 21.5597 17.9886 21.063C16.7895 20.5663 15.7646 19.7251 15.0435 18.6459C14.3224 17.5667 13.9375 16.2979 13.9375 15C13.9375 13.2595 14.6289 11.5903 15.8596 10.3596C17.0903 9.1289 18.7595 8.4375 20.5 8.4375Z" fill="#042E3A"/>
</svg>
