<svg width="40" height="40" viewBox="0 0 40 40" fill="none" xmlns="http://www.w3.org/2000/svg">
<path d="M4.4375 19.5C4.63642 19.6492 4.88645 19.7132 5.13259 19.6781C5.37873 19.6429 5.60082 19.5114 5.75 19.3125C6.53593 18.2646 7.55505 17.4141 8.72664 16.8283C9.89823 16.2425 11.1901 15.9375 12.5 15.9375C13.8099 15.9375 15.1018 16.2425 16.2734 16.8283C17.445 17.4141 18.4641 18.2646 19.25 19.3125C19.3994 19.5112 19.6216 19.6424 19.8678 19.6772C20.1139 19.7121 20.3638 19.6478 20.5625 19.4984C20.6335 19.4462 20.6962 19.3835 20.7484 19.3125C21.5344 18.2646 22.5535 17.4141 23.7251 16.8283C24.8967 16.2425 26.1886 15.9375 27.4984 15.9375C28.8083 15.9375 30.1002 16.2425 31.2718 16.8283C32.4434 17.4141 33.4625 18.2646 34.2484 19.3125C34.3978 19.5114 34.6201 19.6428 34.8664 19.6778C35.1127 19.7129 35.3628 19.6486 35.5617 19.4992C35.7606 19.3498 35.8921 19.1275 35.9271 18.8812C35.9621 18.635 35.8978 18.3848 35.7484 18.1859C34.5682 16.6051 32.9577 15.3976 31.1094 14.7078C32.0945 13.9531 32.8184 12.9087 33.1793 11.7213C33.5402 10.534 33.52 9.2634 33.1216 8.08812C32.7231 6.91284 31.9664 5.89195 30.9578 5.16891C29.9492 4.44587 28.7394 4.05703 27.4984 4.05703C26.2575 4.05703 25.0477 4.44587 24.0391 5.16891C23.0305 5.89195 22.2738 6.91284 21.8753 8.08812C21.4769 9.2634 21.4567 10.534 21.8176 11.7213C22.1785 12.9087 22.9024 13.9531 23.8875 14.7078C22.409 15.2587 21.0783 16.145 20 17.2969C18.9213 16.1448 17.59 15.2585 16.1109 14.7078C17.0961 13.9531 17.8199 12.9087 18.1809 11.7213C18.5418 10.534 18.5216 9.2634 18.1231 8.08812C17.7247 6.91284 16.968 5.89195 15.9594 5.16891C14.9508 4.44587 13.741 4.05703 12.5 4.05703C11.259 4.05703 10.0492 4.44587 9.04062 5.16891C8.03203 5.89195 7.27534 6.91284 6.87688 8.08812C6.47843 9.2634 6.45824 10.534 6.81915 11.7213C7.18007 12.9087 7.90395 13.9531 8.88907 14.7078C7.04038 15.3977 5.42974 16.6058 4.25 18.1875C4.10082 18.3864 4.03676 18.6364 4.07193 18.8826C4.10709 19.1287 4.23859 19.3508 4.4375 19.5ZM27.5 5.9375C28.3035 5.9375 29.0889 6.17576 29.757 6.62215C30.4251 7.06855 30.9458 7.70302 31.2533 8.44535C31.5607 9.18767 31.6412 10.0045 31.4844 10.7926C31.3277 11.5806 30.9408 12.3045 30.3726 12.8726C29.8045 13.4408 29.0806 13.8277 28.2926 13.9844C27.5045 14.1412 26.6877 14.0607 25.9454 13.7533C25.203 13.4458 24.5686 12.9251 24.1222 12.257C23.6758 11.5889 23.4375 10.8035 23.4375 10C23.4375 8.92256 23.8655 7.88925 24.6274 7.12738C25.3892 6.36551 26.4226 5.9375 27.5 5.9375ZM12.5 5.9375C13.3035 5.9375 14.0889 6.17576 14.757 6.62215C15.4251 7.06855 15.9458 7.70302 16.2533 8.44535C16.5607 9.18767 16.6412 10.0045 16.4844 10.7926C16.3277 11.5806 15.9408 12.3045 15.3726 12.8726C14.8045 13.4408 14.0806 13.8277 13.2926 13.9844C12.5045 14.1412 11.6877 14.0607 10.9454 13.7533C10.203 13.4458 9.56855 12.9251 9.12216 12.257C8.67577 11.5889 8.4375 10.8035 8.4375 10C8.4375 8.92256 8.86552 7.88925 9.62738 7.12738C10.3892 6.36551 11.4226 5.9375 12.5 5.9375ZM31.1109 30.9578C32.0961 30.2031 32.8199 29.1587 33.1809 27.9713C33.5418 26.784 33.5216 25.5134 33.1231 24.3381C32.7247 23.1628 31.968 22.1419 30.9594 21.4189C29.9508 20.6959 28.741 20.307 27.5 20.307C26.259 20.307 25.0492 20.6959 24.0406 21.4189C23.032 22.1419 22.2753 23.1628 21.8769 24.3381C21.4784 25.5134 21.4582 26.784 21.8192 27.9713C22.1801 29.1587 22.9039 30.2031 23.8891 30.9578C22.41 31.5085 21.0787 32.3948 20 33.5469C18.9213 32.3948 17.59 31.5085 16.1109 30.9578C17.0961 30.2031 17.8199 29.1587 18.1809 27.9713C18.5418 26.784 18.5216 25.5134 18.1231 24.3381C17.7247 23.1628 16.968 22.1419 15.9594 21.4189C14.9508 20.6959 13.741 20.307 12.5 20.307C11.259 20.307 10.0492 20.6959 9.04062 21.4189C8.03203 22.1419 7.27534 23.1628 6.87688 24.3381C6.47843 25.5134 6.45824 26.784 6.81915 27.9713C7.18007 29.1587 7.90395 30.2031 8.88907 30.9578C7.04038 31.6477 5.42974 32.8558 4.25 34.4375C4.17614 34.536 4.12239 34.6481 4.09183 34.7673C4.06128 34.8866 4.05452 35.0107 4.07193 35.1326C4.08934 35.2545 4.13058 35.3717 4.19331 35.4777C4.25603 35.5836 4.33901 35.6761 4.4375 35.75C4.536 35.8239 4.64807 35.8776 4.76733 35.9082C4.8866 35.9387 5.01071 35.9455 5.13259 35.9281C5.25446 35.9107 5.37172 35.8694 5.47765 35.8067C5.58359 35.744 5.67614 35.661 5.75 35.5625C6.53593 34.5146 7.55505 33.6641 8.72664 33.0783C9.89823 32.4925 11.1901 32.1875 12.5 32.1875C13.8099 32.1875 15.1018 32.4925 16.2734 33.0783C17.445 33.6641 18.4641 34.5146 19.25 35.5625C19.3994 35.7612 19.6216 35.8924 19.8678 35.9272C20.1139 35.9621 20.3638 35.8978 20.5625 35.7484C20.6335 35.6962 20.6962 35.6335 20.7484 35.5625C21.5344 34.5146 22.5535 33.6641 23.7251 33.0783C24.8967 32.4925 26.1886 32.1875 27.4984 32.1875C28.8083 32.1875 30.1002 32.4925 31.2718 33.0783C32.4434 33.6641 33.4625 34.5146 34.2484 35.5625C34.3978 35.7614 34.6201 35.8928 34.8664 35.9278C35.1127 35.9629 35.3628 35.8986 35.5617 35.7492C35.7606 35.5998 35.8921 35.3775 35.9271 35.1312C35.9621 34.885 35.8978 34.6349 35.7484 34.4359C34.5686 32.8554 32.9586 31.6479 31.1109 30.9578ZM12.5 22.1875C13.3035 22.1875 14.0889 22.4258 14.757 22.8722C15.4251 23.3185 15.9458 23.953 16.2533 24.6953C16.5607 25.4377 16.6412 26.2545 16.4844 27.0426C16.3277 27.8306 15.9408 28.5545 15.3726 29.1226C14.8045 29.6908 14.0806 30.0777 13.2926 30.2344C12.5045 30.3912 11.6877 30.3107 10.9454 30.0033C10.203 29.6958 9.56855 29.1751 9.12216 28.507C8.67577 27.8389 8.4375 27.0535 8.4375 26.25C8.4375 25.1726 8.86552 24.1392 9.62738 23.3774C10.3892 22.6155 11.4226 22.1875 12.5 22.1875ZM27.5 22.1875C28.3035 22.1875 29.0889 22.4258 29.757 22.8722C30.4251 23.3185 30.9458 23.953 31.2533 24.6953C31.5607 25.4377 31.6412 26.2545 31.4844 27.0426C31.3277 27.8306 30.9408 28.5545 30.3726 29.1226C29.8045 29.6908 29.0806 30.0777 28.2926 30.2344C27.5045 30.3912 26.6877 30.3107 25.9454 30.0033C25.203 29.6958 24.5686 29.1751 24.1222 28.507C23.6758 27.8389 23.4375 27.0535 23.4375 26.25C23.4375 25.1726 23.8655 24.1392 24.6274 23.3774C25.3892 22.6155 26.4226 22.1875 27.5 22.1875Z" fill="#042E3A"/>
</svg>
