<svg width="49" height="48" viewBox="0 0 49 48" fill="none" xmlns="http://www.w3.org/2000/svg">
<path d="M24.5 27C23.0166 27 21.5666 26.5601 20.3332 25.736C19.0999 24.9119 18.1386 23.7406 17.5709 22.3701C17.0032 20.9997 16.8547 19.4917 17.1441 18.0368C17.4335 16.582 18.1478 15.2456 19.1967 14.1967C20.2456 13.1478 21.582 12.4335 23.0368 12.1441C24.4917 11.8547 25.9997 12.0032 27.3701 12.5709C28.7406 13.1386 29.9119 14.0999 30.736 15.3332C31.5601 16.5666 32 18.0166 32 19.5C31.9976 21.4884 31.2067 23.3947 29.8007 24.8007C28.3947 26.2067 26.4884 26.9976 24.5 27ZM24.5 15C23.61 15 22.74 15.2639 21.9999 15.7584C21.2599 16.2529 20.6831 16.9557 20.3425 17.7779C20.002 18.6002 19.9128 19.505 20.0865 20.3779C20.2601 21.2508 20.6887 22.0526 21.318 22.682C21.9474 23.3113 22.7492 23.7399 23.6221 23.9135C24.495 24.0872 25.3998 23.9981 26.2221 23.6575C27.0443 23.3169 27.7472 22.7401 28.2416 22.0001C28.7361 21.26 29 20.39 29 19.5C28.9988 18.3069 28.5243 17.163 27.6807 16.3193C26.837 15.4757 25.6931 15.0012 24.5 15Z" fill="#2CA2FC"/>
<path d="M24.5 45L11.846 30.0765C11.6702 29.8524 11.4962 29.6269 11.324 29.4C9.16357 26.5521 7.99599 23.0746 8.00001 19.5C8.00001 15.1239 9.7384 10.9271 12.8327 7.83274C15.9271 4.73839 20.1239 3 24.5 3C28.8761 3 33.0729 4.73839 36.1673 7.83274C39.2616 10.9271 41 15.1239 41 19.5C41.0035 23.0729 39.8365 26.5486 37.6775 29.3955L37.676 29.4C37.676 29.4 37.226 29.991 37.1585 30.0705L24.5 45ZM13.7195 27.5925C13.7195 27.5925 14.069 28.0545 14.1485 28.1535L24.5 40.362L34.865 28.137C34.931 28.0545 35.282 27.5895 35.2835 27.588C37.0493 25.2617 38.0036 22.4206 38 19.5C38 15.9196 36.5777 12.4858 34.0459 9.95406C31.5142 7.42232 28.0804 6 24.5 6C20.9196 6 17.4858 7.42232 14.9541 9.95406C12.4223 12.4858 11 15.9196 11 19.5C10.9963 22.4224 11.9517 25.2654 13.7195 27.5925Z" fill="#2CA2FC"/>
</svg>
