<svg width="21" height="20" viewBox="0 0 21 20" fill="none" xmlns="http://www.w3.org/2000/svg">
<path d="M6.25012 4C6.05121 4 5.86044 4.07902 5.71979 4.21967C5.57914 4.36032 5.50012 4.55109 5.50012 4.75V5.25C5.50012 5.44891 5.4211 5.63968 5.28045 5.78033C5.1398 5.92098 4.94903 6 4.75012 6C4.55121 6 4.36044 5.92098 4.21979 5.78033C4.07914 5.63968 4.00012 5.44891 4.00012 5.25V4.75C4.00012 4.15326 4.23717 3.58097 4.65913 3.15901C5.08109 2.73705 5.65338 2.5 6.25012 2.5C6.84686 2.5 7.41915 2.73705 7.84111 3.15901C8.26307 3.58097 8.50012 4.15326 8.50012 4.75V7.5H13.5001V4.75C13.5001 4.55109 13.4211 4.36032 13.2804 4.21967C13.1398 4.07902 12.949 4 12.7501 4C12.5512 4 12.3604 4.07902 12.2198 4.21967C12.0791 4.36032 12.0001 4.55109 12.0001 4.75V5.25C12.0001 5.44891 11.9211 5.63968 11.7804 5.78033C11.6398 5.92098 11.449 6 11.2501 6C11.0512 6 10.8604 5.92098 10.7198 5.78033C10.5791 5.63968 10.5001 5.44891 10.5001 5.25V4.75C10.5001 4.15326 10.7372 3.58097 11.1591 3.15901C11.5811 2.73705 12.1534 2.5 12.7501 2.5C13.3469 2.5 13.9192 2.73705 14.3411 3.15901C14.7631 3.58097 15.0001 4.15326 15.0001 4.75V11.781C14.5153 11.935 14.0087 12.0093 13.5001 12.001V9H8.50012V10.229C8.0096 10.1012 7.50665 10.0271 7.00012 10.008V4.75C7.00012 4.55109 6.9211 4.36032 6.78045 4.21967C6.6398 4.07902 6.44903 4 6.25012 4ZM6.31312 12.527C5.7315 12.5871 5.17575 12.7985 4.70112 13.14C4.54133 13.2586 4.34098 13.3088 4.14416 13.2796C3.94735 13.2504 3.77017 13.1443 3.65162 12.9845C3.53307 12.8247 3.48285 12.6244 3.51201 12.4275C3.54117 12.2307 3.64733 12.0536 3.80712 11.935C4.4941 11.4363 5.29995 11.1266 6.14412 11.037C7.28712 10.907 8.71612 11.126 10.3781 12.089C13.3111 13.791 15.6811 12.668 16.3751 12.261C16.5467 12.1603 16.7513 12.132 16.9438 12.1822C17.1363 12.2323 17.301 12.3569 17.4016 12.5285C17.5023 12.7001 17.5306 12.9046 17.4805 13.0972C17.4303 13.2897 17.3057 13.4544 17.1341 13.555C16.2191 14.092 13.2291 15.477 9.62412 13.387C8.21412 12.569 7.10712 12.437 6.31312 12.527ZM6.31312 15.527C5.7315 15.5871 5.17575 15.7985 4.70112 16.14C4.54133 16.2586 4.34098 16.3088 4.14416 16.2796C3.94735 16.2504 3.77017 16.1443 3.65162 15.9845C3.53307 15.8247 3.48285 15.6244 3.51201 15.4275C3.54117 15.2307 3.64733 15.0536 3.80712 14.935C4.4941 14.4363 5.29995 14.1266 6.14412 14.037C7.28712 13.907 8.71612 14.126 10.3781 15.089C13.3111 16.791 15.6811 15.668 16.3751 15.261C16.5467 15.1603 16.7513 15.132 16.9438 15.1822C17.1363 15.2323 17.301 15.3569 17.4016 15.5285C17.5023 15.7001 17.5306 15.9046 17.4805 16.0972C17.4303 16.2897 17.3057 16.4544 17.1341 16.555C16.2191 17.092 13.2291 18.477 9.62412 16.387C8.21412 15.569 7.10712 15.437 6.31312 15.527Z" fill="#FDA93F"/>
</svg>
