<svg width="20" height="20" viewBox="0 0 20 20" fill="none" xmlns="http://www.w3.org/2000/svg">
<path d="M5.75 4C5.55108 4 5.36032 4.07902 5.21967 4.21967C5.07902 4.36032 5 4.55109 5 4.75V5.25C5 5.44891 4.92098 5.63968 4.78033 5.78033C4.63968 5.92098 4.44891 6 4.25 6C4.05109 6 3.86032 5.92098 3.71967 5.78033C3.57902 5.63968 3.5 5.44891 3.5 5.25V4.75C3.5 4.15326 3.73705 3.58097 4.15901 3.15901C4.58096 2.73705 5.15326 2.5 5.75 2.5C6.34673 2.5 6.91903 2.73705 7.34099 3.15901C7.76294 3.58097 8 4.15326 8 4.75V7.5H13V4.75C13 4.55109 12.921 4.36032 12.7803 4.21967C12.6397 4.07902 12.4489 4 12.25 4C12.0511 4 11.8603 4.07902 11.7197 4.21967C11.579 4.36032 11.5 4.55109 11.5 4.75V5.25C11.5 5.44891 11.421 5.63968 11.2803 5.78033C11.1397 5.92098 10.9489 6 10.75 6C10.5511 6 10.3603 5.92098 10.2197 5.78033C10.079 5.63968 10 5.44891 10 5.25V4.75C10 4.15326 10.2371 3.58097 10.659 3.15901C11.081 2.73705 11.6533 2.5 12.25 2.5C12.8467 2.5 13.419 2.73705 13.841 3.15901C14.2629 3.58097 14.5 4.15326 14.5 4.75V11.781C14.0152 11.935 13.5086 12.0093 13 12.001V9H8V10.229C7.50947 10.1012 7.00652 10.0271 6.5 10.008V4.75C6.5 4.55109 6.42098 4.36032 6.28033 4.21967C6.13968 4.07902 5.94891 4 5.75 4ZM5.813 12.527C5.23137 12.5871 4.67562 12.7985 4.201 13.14C4.0412 13.2586 3.84086 13.3088 3.64404 13.2796C3.44722 13.2504 3.27005 13.1443 3.1515 12.9845C3.03295 12.8247 2.98273 12.6244 3.01189 12.4275C3.04105 12.2307 3.1472 12.0536 3.307 11.935C3.99398 11.4363 4.79983 11.1266 5.644 11.037C6.787 10.907 8.216 11.126 9.878 12.089C12.811 13.791 15.181 12.668 15.875 12.261C16.0466 12.1603 16.2511 12.132 16.4436 12.1822C16.6362 12.2323 16.8008 12.3569 16.9015 12.5285C17.0021 12.7001 17.0305 12.9046 16.9803 13.0972C16.9302 13.2897 16.8056 13.4544 16.634 13.555C15.719 14.092 12.729 15.477 9.124 13.387C7.714 12.569 6.607 12.437 5.813 12.527ZM5.813 15.527C5.23137 15.5871 4.67562 15.7985 4.201 16.14C4.0412 16.2586 3.84086 16.3088 3.64404 16.2796C3.44722 16.2504 3.27005 16.1443 3.1515 15.9845C3.03295 15.8247 2.98273 15.6244 3.01189 15.4275C3.04105 15.2307 3.1472 15.0536 3.307 14.935C3.99398 14.4363 4.79983 14.1266 5.644 14.037C6.787 13.907 8.216 14.126 9.878 15.089C12.811 16.791 15.181 15.668 15.875 15.261C16.0466 15.1603 16.2511 15.132 16.4436 15.1822C16.6362 15.2323 16.8008 15.3569 16.9015 15.5285C17.0021 15.7001 17.0305 15.9046 16.9803 16.0972C16.9302 16.2897 16.8056 16.4544 16.634 16.555C15.719 17.092 12.729 18.477 9.124 16.387C7.714 15.569 6.607 15.437 5.813 15.527Z" fill="#005395"/>
</svg>
