<svg width="20" height="20" viewBox="0 0 20 20" fill="none" xmlns="http://www.w3.org/2000/svg">
<path d="M5.75012 4C5.55121 4 5.36044 4.07902 5.21979 4.21967C5.07914 4.36032 5.00012 4.55109 5.00012 4.75V5.25C5.00012 5.44891 4.9211 5.63968 4.78045 5.78033C4.6398 5.92098 4.44903 6 4.25012 6C4.05121 6 3.86044 5.92098 3.71979 5.78033C3.57914 5.63968 3.50012 5.44891 3.50012 5.25V4.75C3.50012 4.15326 3.73717 3.58097 4.15913 3.15901C4.58109 2.73705 5.15338 2.5 5.75012 2.5C6.34686 2.5 6.91915 2.73705 7.34111 3.15901C7.76307 3.58097 8.00012 4.15326 8.00012 4.75V7.5H13.0001V4.75C13.0001 4.55109 12.9211 4.36032 12.7804 4.21967C12.6398 4.07902 12.449 4 12.2501 4C12.0512 4 11.8604 4.07902 11.7198 4.21967C11.5791 4.36032 11.5001 4.55109 11.5001 4.75V5.25C11.5001 5.44891 11.4211 5.63968 11.2804 5.78033C11.1398 5.92098 10.949 6 10.7501 6C10.5512 6 10.3604 5.92098 10.2198 5.78033C10.0791 5.63968 10.0001 5.44891 10.0001 5.25V4.75C10.0001 4.15326 10.2372 3.58097 10.6591 3.15901C11.0811 2.73705 11.6534 2.5 12.2501 2.5C12.8469 2.5 13.4192 2.73705 13.8411 3.15901C14.2631 3.58097 14.5001 4.15326 14.5001 4.75V11.781C14.0153 11.935 13.5087 12.0093 13.0001 12.001V9H8.00012V10.229C7.5096 10.1012 7.00665 10.0271 6.50012 10.008V4.75C6.50012 4.55109 6.4211 4.36032 6.28045 4.21967C6.1398 4.07902 5.94903 4 5.75012 4ZM5.81312 12.527C5.2315 12.5871 4.67575 12.7985 4.20112 13.14C4.04133 13.2586 3.84098 13.3088 3.64416 13.2796C3.44735 13.2504 3.27017 13.1443 3.15162 12.9845C3.03307 12.8247 2.98285 12.6244 3.01201 12.4275C3.04117 12.2307 3.14733 12.0536 3.30712 11.935C3.9941 11.4363 4.79995 11.1266 5.64412 11.037C6.78712 10.907 8.21612 11.126 9.87812 12.089C12.8111 13.791 15.1811 12.668 15.8751 12.261C16.0467 12.1604 16.2513 12.132 16.4438 12.1822C16.6363 12.2323 16.801 12.3569 16.9016 12.5285C17.0023 12.7001 17.0306 12.9046 16.9805 13.0972C16.9303 13.2897 16.8057 13.4544 16.6341 13.555C15.7191 14.092 12.7291 15.477 9.12412 13.387C7.71412 12.569 6.60712 12.437 5.81312 12.527ZM5.81312 15.527C5.2315 15.5871 4.67575 15.7985 4.20112 16.14C4.04133 16.2586 3.84098 16.3088 3.64416 16.2796C3.44735 16.2504 3.27017 16.1443 3.15162 15.9845C3.03307 15.8247 2.98285 15.6244 3.01201 15.4275C3.04117 15.2307 3.14733 15.0536 3.30712 14.935C3.9941 14.4363 4.79995 14.1266 5.64412 14.037C6.78712 13.907 8.21612 14.126 9.87812 15.089C12.8111 16.791 15.1811 15.668 15.8751 15.261C16.0467 15.1604 16.2513 15.132 16.4438 15.1822C16.6363 15.2323 16.801 15.3569 16.9016 15.5285C17.0023 15.7001 17.0306 15.9046 16.9805 16.0972C16.9303 16.2897 16.8057 16.4544 16.6341 16.555C15.7191 17.092 12.7291 18.477 9.12412 16.387C7.71412 15.569 6.60712 15.437 5.81312 15.527Z" fill="#2CA2FC"/>
</svg>
