<svg width="60" height="60" viewBox="0 0 60 60" fill="none" xmlns="http://www.w3.org/2000/svg">
<path d="M56.1418 31.3509H55.8523C55.9488 30.3857 55.9488 29.5179 55.8523 28.5536H56.1418C56.9131 28.5536 57.4922 29.1327 57.4922 29.903C57.4922 30.7718 56.9131 31.3509 56.1418 31.3509ZM42.7333 49.6795L39.936 46.881C39.4533 46.3984 38.6821 46.3984 38.1995 46.881C37.7168 47.3638 37.7168 48.135 38.1995 48.6177L40.5142 50.9324C33.9542 54.2123 26.1413 54.2123 19.5814 50.9324L26.2379 44.2767C33.2795 46.2065 40.4176 42.6368 43.408 36.3665L49.7749 42.6368C47.9419 45.3385 45.5307 47.7498 42.7333 49.6795ZM31.3499 56.1417C31.3499 56.913 30.7717 57.4924 29.9995 57.4924C29.2283 57.4924 28.6491 56.913 28.6491 56.1417V55.8531C29.5179 55.9487 30.4822 55.9487 31.4465 55.8531L31.3499 56.1417ZM10.3216 42.7335L16.591 36.4628C18.0389 39.4535 20.5467 41.9611 23.5371 43.4081L17.1702 49.6795C14.6624 47.9421 12.2502 45.5307 10.3216 42.7335ZM3.85816 31.3509C3.08691 31.3509 2.50776 30.7718 2.50776 30.0005C2.50776 29.2283 3.08691 28.6501 3.85816 28.6501H4.24427C4.24427 29.6135 4.24427 30.4832 4.24427 31.4465L3.85816 31.3509ZM17.2667 10.3216L23.6336 16.591C20.7397 18.0389 18.1354 20.4502 16.6885 23.5371L14.0832 20.9318C13.6016 20.4502 12.8294 20.4502 12.3477 20.9318C11.8651 21.4145 11.8651 22.1867 12.3477 22.6693L15.7232 26.0449C15.0485 28.5536 15.0485 31.1579 15.7232 33.6655L9.06675 40.3221C3.85816 30.0005 7.13814 16.9781 17.2667 10.3216ZM28.6491 3.85818C28.6491 3.08693 29.2283 2.50778 29.9995 2.50778C30.7717 2.50778 31.3499 3.08693 31.3499 3.85818V4.24525C30.3856 4.24525 29.5179 4.24525 28.5536 4.24525L28.6491 3.85818ZM37.1386 14.1798C37.6203 14.6624 38.3925 14.6624 38.8742 14.1798L42.6368 10.4181C45.4341 12.2502 47.7498 14.5659 49.5819 17.3632L43.3115 23.6336C40.3221 17.3632 33.183 13.8902 26.1414 15.7233L19.4858 9.06677C25.9483 5.78775 33.7621 5.69122 40.4176 9.06677L37.1386 12.3477C36.656 12.9269 36.656 13.6972 37.1386 14.1798ZM18.3275 33.7622C16.9771 29.5179 17.9424 24.6945 21.3179 21.2214C24.6944 17.8459 29.5179 16.785 33.8587 18.231C40.3221 20.3536 43.8907 27.2997 41.7681 33.7622C41.576 34.0519 40.9968 36.4628 38.6821 38.6821C32.2187 45.1443 21.1258 42.5404 18.3275 33.7622ZM50.9323 40.4177L44.2768 33.8585C44.9515 31.3509 44.9515 28.7457 44.2768 26.2379L50.9323 19.5814C54.2123 26.0449 54.2123 33.8585 50.9323 40.4177ZM56.1418 26.1423H55.5627C53.9227 14.952 45.048 6.17386 33.8587 4.43734V3.85818C33.8587 1.73652 32.1221 3.8147e-06 29.9995 3.8147e-06C27.8779 3.8147e-06 26.1414 1.73652 26.1414 3.85818V4.43734C14.952 6.17386 6.17384 14.952 4.43732 26.1423H3.85816C1.7365 26.1423 0 27.8779 0 30.0005C0 32.1222 1.7365 33.8585 3.85816 33.8585H4.43732C6.17384 45.0491 14.952 53.9227 26.1414 55.5627V56.1417C26.1414 58.2637 27.8779 60 29.9995 60C32.1221 60 33.8587 58.2637 33.8587 56.1417V55.5627C45.048 53.9227 53.9227 45.0491 55.5627 33.8585H56.1418C58.2635 33.8585 60 32.1222 60 30.0005C60 27.8779 58.2635 26.1423 56.1418 26.1423Z" fill="#010F1A"/>
<path d="M37.9092 31.158C38.5849 31.158 39.1631 30.5788 39.1631 29.9031C39.1631 24.792 35.0153 20.6433 29.9033 20.6433C29.2276 20.6433 28.6484 21.2215 28.6484 21.8972C28.6484 22.5719 29.2276 23.152 29.9033 23.152C33.6649 23.152 36.6553 26.238 36.6553 29.9031C36.6553 30.5788 37.2345 31.158 37.9092 31.158Z" fill="#010F1A"/>
<path d="M5.40256 47.8466C4.82436 48.1351 4.43824 48.8098 4.72687 49.4855C5.01645 50.1601 5.69212 50.4509 6.36685 50.1601C7.04253 49.8715 7.33211 49.1969 7.04253 48.5213C6.75296 47.8466 6.07824 47.5569 5.40256 47.8466Z" fill="#010F1A"/>
<path d="M52.1898 50.2573C51.5141 50.5471 51.2246 51.222 51.5142 51.8974C51.8037 52.5723 52.4785 52.862 53.1541 52.5723C53.8289 52.2827 54.1184 51.608 53.8289 50.9323C53.5402 50.3541 52.8646 50.0644 52.1898 50.2573Z" fill="#010F1A"/>
<path d="M50.6415 8.2965C51.3172 8.00597 51.6067 7.33124 51.3172 6.65555C51.0276 6.07735 50.3529 5.69125 49.6772 5.98083C49.0024 6.27041 48.7129 6.9461 49.0025 7.62082C49.2911 8.19903 49.9668 8.4886 50.6415 8.2965Z" fill="#010F1A"/>
<path d="M38.9695 33.7622C38.6809 33.0865 38.0052 32.7967 37.3305 33.0865C36.6548 33.3762 36.3652 34.0519 36.6548 34.7265C36.9444 35.4022 37.6191 35.6919 38.2948 35.4022C38.9695 35.1125 39.2591 34.3412 38.9695 33.7622Z" fill="#010F1A"/>
<path d="M11.2853 7.04154C11.8645 6.75292 12.2496 6.07723 11.961 5.40155C11.6714 4.82335 10.9958 4.43725 10.321 4.72587C9.74188 5.01545 9.35577 5.69114 9.64535 6.36586C9.93493 6.94598 10.6106 7.33112 11.2853 7.04154Z" fill="#010F1A"/>
<path d="M46.1094 55.6593L47.0737 57.9739L49.2919 57.0096L48.4241 54.6949L46.1094 55.6593Z" fill="#010F1A"/>
<path d="M12.0664 54.7485L14.3945 53.8156L15.3282 56.1429L13.0001 57.0765L12.0664 54.7485Z" fill="#010F1A"/>
</svg>
