<svg width="61" height="60" viewBox="0 0 61 60" fill="none" xmlns="http://www.w3.org/2000/svg">
<path d="M29.9224 57.2245C15.1063 57.2245 3.12704 45.0531 3.12704 29.9995C3.12704 14.9468 15.1063 2.77549 29.9224 2.77549C44.2127 2.77549 55.983 14.3059 56.718 28.6117H50.0978C49.3618 28.6117 48.732 29.2527 48.732 29.9995C48.732 40.4626 40.3253 49.1106 30.027 49.1106C19.7297 49.1106 11.3235 40.5694 11.3235 29.9995C11.3235 19.4306 19.7297 10.9962 30.027 10.9962C30.7631 10.9962 31.3929 10.3552 31.3929 9.60844C31.3929 8.86063 30.7631 8.22071 30.027 8.22071C18.1534 8.22071 8.59109 17.936 8.59109 29.9995C8.59109 42.064 18.2588 51.7793 30.027 51.7793C41.3758 51.7793 50.7287 42.7039 51.4637 31.3883H56.8232C55.983 45.801 44.2127 57.2245 29.9224 57.2245ZM29.9224 0C13.6354 0 0.5 13.3454 0.5 29.9995C0.5 46.6545 13.6354 60 29.9224 60C46.2094 60 59.4498 46.5477 59.4498 29.9995C59.3446 13.4523 46.2094 0 29.9224 0Z" fill="#010F1A"/>
<path d="M27.7134 20.4978C27.3978 19.751 26.6625 19.4305 26.0322 19.6442C25.4019 19.8568 24.9814 20.7115 25.1912 21.3514L28.6593 30.8541C28.8691 31.3882 29.3945 31.7087 29.92 31.7087H39.7982C40.5331 31.7087 41.164 31.0677 41.164 30.3199C41.164 29.5732 40.5331 28.9322 39.7982 28.9322H30.8658L27.7134 20.4978Z" fill="#010F1A"/>
<path d="M53.2487 6.08521C53.9847 6.08521 54.6146 5.44421 54.6146 4.69744C54.6146 3.94963 53.9847 3.30971 53.2487 3.30971C52.5137 3.30971 51.8828 3.94963 51.8828 4.69744C51.8828 5.44421 52.5137 6.08521 53.2487 6.08521Z" fill="#010F1A"/>
<path d="M10.3781 4.69751C11.1133 4.69751 11.7441 4.05654 11.7441 3.30978C11.7441 2.56196 11.1133 1.92201 10.3781 1.92201C9.6424 1.92201 9.01172 2.56196 9.01172 3.30978C9.01172 4.05654 9.6424 4.69751 10.3781 4.69751Z" fill="#010F1A"/>
<path d="M1.75781 52.3134L3.64923 54.2354L5.54106 52.3134L3.64923 50.3915L1.75781 52.3134Z" fill="#010F1A"/>
<path d="M60.501 6.08518L58.6104 4.16326L56.7188 6.08518L58.6104 8.00708L60.501 6.08518Z" fill="#010F1A"/>
<path d="M51.3594 56.4768L53.251 58.3987L55.1426 56.4768L53.251 54.4491L51.3594 56.4768Z" fill="#010F1A"/>
</svg>
