<svg width="33" height="32" viewBox="0 0 33 32" fill="none" xmlns="http://www.w3.org/2000/svg">
<path d="M7.9984 17.0032V14.8851H20.1355V17.0032H7.9984ZM24.0512 3.51217C21.8695 3.51217 20.1355 5.24039 20.1355 7.41434V13.4352H7.9984V7.41434C7.9984 6.02082 9.11726 4.90569 10.5154 4.90569C11.9141 4.90569 13.0324 6.02082 13.0324 7.41434V9.92299C13.0324 10.3135 13.3682 10.6476 13.7594 10.6476C14.1512 10.6476 14.4865 10.3135 14.4865 9.92299V7.41434C14.4865 5.24039 12.7525 3.51217 10.5714 3.51217C8.3902 3.51217 6.65625 5.24039 6.65625 7.41434V20.5712C6.65625 20.9617 6.99152 21.2959 7.38331 21.2959C7.77454 21.2959 8.11034 20.9617 8.11034 20.5712V18.4531H20.248V20.5712C20.248 20.9617 20.5833 21.2959 20.9751 21.2959C21.3663 21.2959 21.7021 20.9617 21.7021 20.5712V7.41434C21.7021 6.02082 22.8204 4.90569 24.2191 4.90569C25.6172 4.90569 26.7361 6.02082 26.7361 7.41434V14.1604C26.7361 14.5504 27.0719 14.8851 27.4631 14.8851C27.8549 14.8851 28.1907 14.5504 28.1907 14.1604V7.41434C27.9663 5.24039 26.2323 3.51217 24.0512 3.51217Z" fill="#2CA2FC"/>
<path d="M7.271 25.5328C6.87922 25.5328 6.54395 25.8675 6.54395 26.2574V29.8255C6.54395 30.216 6.87922 30.5507 7.271 30.5507C7.66224 30.5507 7.99803 30.216 7.99803 29.8255V26.2574C7.99803 25.8675 7.66224 25.5328 7.271 25.5328Z" fill="#2CA2FC"/>
<path d="M20.8624 29.8254C21.2536 29.8254 21.5894 29.4913 21.5894 29.1008V26.2574C21.5894 25.8675 21.2536 25.5328 20.8624 25.5328C20.4706 25.5328 20.1348 25.8675 20.1348 26.2574V29.1008C20.1348 29.4913 20.4706 29.8254 20.8624 29.8254Z" fill="#2CA2FC"/>
<path d="M0.895027 8.47375C1.28681 8.47375 1.62209 8.13905 1.62209 7.74911C1.62209 7.35862 1.28681 7.02446 0.895027 7.02446C0.503793 7.02446 0.167969 7.35862 0.167969 7.74911C0.167969 8.13905 0.447824 8.47375 0.895027 8.47375Z" fill="#2CA2FC"/>
<path d="M17.2827 2.7876C17.6745 2.7876 18.0103 2.4529 18.0103 2.06296C18.0103 1.67246 17.6745 1.33775 17.2827 1.33775C16.8909 1.33775 16.5557 1.67246 16.5557 2.06296C16.5557 2.4529 16.8909 2.7876 17.2827 2.7876Z" fill="#2CA2FC"/>
<path d="M25.1143 18.4531C25.5061 18.4531 25.8414 18.1184 25.8414 17.7279C25.8414 17.338 25.5061 17.0033 25.1143 17.0033C24.7231 17.0033 24.3867 17.338 24.3867 17.7279C24.3867 18.1184 24.7231 18.4531 25.1143 18.4531Z" fill="#2CA2FC"/>
<path d="M2.29297 17.7279C2.29297 18.1184 2.62824 18.4531 3.02003 18.4531C3.41126 18.4531 3.74706 18.1184 3.74706 17.7279C3.74706 17.338 3.41126 17.0033 3.02003 17.0033C2.62824 17.0033 2.29297 17.338 2.29297 17.7279Z" fill="#2CA2FC"/>
<path d="M20.8624 30.5507C20.4706 30.5507 20.1348 30.8849 20.1348 31.2753C20.1348 31.6653 20.4706 32 20.8624 32C21.2536 32 21.5894 31.6653 21.5894 31.2753C21.5335 30.8291 21.2536 30.5507 20.8624 30.5507Z" fill="#2CA2FC"/>
<path d="M28.6944 21.9648C28.3032 21.9648 27.9668 22.2995 27.9668 22.69C27.9668 23.08 28.3026 23.4147 28.6944 23.4147C29.0856 23.4147 29.4215 23.08 29.4215 22.69C29.4215 22.2995 29.0856 21.9648 28.6944 21.9648Z" fill="#2CA2FC"/>
<path d="M31.5454 21.9648C31.1542 21.9648 30.8184 22.2995 30.8184 22.69C30.8184 23.08 31.1542 23.4147 31.5454 23.4147C31.9372 23.4147 32.273 23.08 32.273 22.69C32.273 22.2995 31.9372 21.9648 31.5454 21.9648Z" fill="#2CA2FC"/>
<path d="M26.5119 21.9649C26.1207 21.9649 25.7848 22.2996 25.7848 22.6901C25.7848 23.08 25.449 23.4147 25.0578 23.4147C24.666 23.4147 24.3861 23.08 24.3861 22.6901C24.3861 22.2996 24.0509 21.9649 23.6596 21.9649C23.2679 21.9649 22.932 22.2996 22.932 22.6901C22.932 23.08 22.5968 23.4147 22.2056 23.4147C21.8138 23.4147 21.4779 23.08 21.4779 22.6901C21.4779 22.2996 21.1427 21.9649 20.7509 21.9649C20.3597 21.9649 20.0238 22.2996 20.0238 22.6901C20.0238 23.08 19.688 23.4147 19.2968 23.4147C18.9055 23.4147 18.5692 23.08 18.5692 22.6901C18.5692 22.2996 18.2339 21.9649 17.8427 21.9649C17.4509 21.9649 17.1151 22.2996 17.1151 22.6901C17.1151 23.08 16.7798 23.4147 16.388 23.4147C15.9968 23.4147 15.661 23.08 15.661 22.6901C15.661 22.2996 15.3251 21.9649 14.9339 21.9649C14.5421 21.9649 14.2069 22.2996 14.2069 22.6901C14.2069 23.08 13.8711 23.4147 13.4798 23.4147C13.088 23.4147 12.7528 23.08 12.7528 22.6901C12.7528 22.2996 12.417 21.9649 12.0252 21.9649C11.6339 21.9649 11.2981 22.2996 11.2981 22.6901C11.2981 23.08 10.9628 23.4147 10.5711 23.4147C10.1798 23.4147 9.84399 23.08 9.84399 22.6901C9.84399 22.2996 9.50817 21.9649 9.11694 21.9649C8.72515 21.9649 8.72516 22.2996 8.72516 22.6901C8.72516 23.08 8.38989 23.4147 7.9981 23.4147C7.60687 23.4147 7.27107 23.08 7.27107 22.6901C7.27107 22.2996 6.93524 21.9649 6.54401 21.9649C6.15222 21.9649 5.81695 22.2996 5.81695 22.6901C5.81695 23.08 5.48113 23.4147 5.08989 23.4147C4.69811 23.4147 4.36229 23.08 4.36229 22.6901C4.36229 22.2996 4.02702 21.9649 3.63524 21.9649C3.244 21.9649 2.90821 22.2996 2.90821 22.6901C2.90821 23.08 2.57294 23.4147 2.18115 23.4147C1.78991 23.4147 1.45409 23.08 1.45409 22.6901C1.45409 22.2996 1.11826 21.9649 0.727031 21.9649C0.335243 21.9649 0 22.2996 0 22.6901C0 24.5293 2.18115 25.4771 3.57928 24.2509C4.41827 24.9756 5.59308 24.9756 6.43207 24.2509C7.21509 24.9756 8.44585 24.9756 9.28429 24.2509C10.1238 24.9756 11.3541 24.9756 12.1371 24.2509C12.9761 24.9756 14.2069 24.9756 14.9899 24.2509C15.8289 24.9756 17.0591 24.9756 17.8427 24.2509C18.6811 24.9756 19.9119 24.9756 20.6949 24.2509C21.5339 24.9756 22.7647 24.9756 23.5477 24.2509C24.8904 25.4771 27.1275 24.5293 27.1275 22.6901C27.2395 22.2996 26.9596 21.9649 26.5119 21.9649Z" fill="#2CA2FC"/>
<path d="M4.41816 1.39413C4.80995 1.39413 5.14519 1.72829 5.14519 2.11878C5.14519 2.50873 4.80995 2.84343 4.41816 2.84343C4.02693 2.84343 3.6911 2.45294 3.6911 2.063C3.6911 1.67251 4.02693 1.39413 4.41816 1.39413ZM4.41816 4.23694C5.59297 4.23694 6.54389 3.28916 6.54389 2.11878C6.54389 0.947858 5.59297 6.39388e-05 4.41816 6.39388e-05C3.2439 6.39388e-05 2.29297 0.947858 2.29297 2.11878C2.29297 3.28916 3.2439 4.23694 4.41816 4.23694Z" fill="#2CA2FC"/>
<path d="M31.2108 7.74907C31.0429 7.74907 30.875 7.58171 30.875 7.41436C30.875 7.19177 31.0429 7.0802 31.2108 7.0802C31.3787 7.0802 31.5461 7.24755 31.5461 7.41436C31.5461 7.58171 31.3787 7.74907 31.2108 7.74907ZM31.2108 5.63035C30.2039 5.63035 29.4209 6.41134 29.4209 7.41436C29.4209 8.41793 30.2039 9.19836 31.2108 9.19836C32.2172 9.19836 33.0002 8.41793 33.0002 7.41436C33.0002 6.41134 32.1618 5.63035 31.2108 5.63035Z" fill="#2CA2FC"/>
</svg>
