<svg width="33" height="32" viewBox="0 0 33 32" fill="none" xmlns="http://www.w3.org/2000/svg">
<path d="M31.1962 12.6604L22.7967 18.7477C22.5531 18.9913 22.4313 19.2953 22.5531 19.6607L25.7795 29.5214C25.8404 29.6432 25.7795 29.7041 25.7795 29.7656C25.7185 29.826 25.5967 29.8869 25.5358 29.8869C25.3531 29.8869 25.9007 30.1914 17.014 23.7386C16.7709 23.5565 16.4054 23.5565 16.1009 23.7386C7.21417 30.1914 7.70086 29.8869 7.57905 29.8869C7.45723 29.8869 7.39692 29.826 7.33541 29.7656C7.2751 29.7041 7.2751 29.5829 7.2751 29.5214L10.5009 19.6607C10.6227 19.3568 10.5009 18.9913 10.1964 18.8086L1.79689 12.7219C1.61416 12.6001 1.67445 12.4783 1.67445 12.4173C1.67445 12.3564 1.73595 12.2346 1.97899 12.2346C2.0399 12.2346 12.3879 12.2346 12.327 12.2346C12.6309 12.2346 12.9354 11.991 13.0573 11.687L16.2227 1.82577C16.2837 1.64364 16.4055 1.64364 16.5267 1.64364C16.5882 1.64364 16.7709 1.64364 16.8312 1.82577L19.9967 11.687C20.1179 11.991 20.4225 12.2346 20.727 12.2346C20.7879 12.2346 31.0141 12.2346 31.1359 12.2346C31.3186 12.2346 31.3789 12.3564 31.4404 12.4173C31.3186 12.4173 31.3789 12.6001 31.1962 12.6604ZM31.014 10.5913H21.2143L18.1706 1.27818C17.6833 -0.426071 15.2488 -0.426071 14.7012 1.27818L11.6575 10.5913H1.8572C0.0920346 10.5913 -0.699192 12.9046 0.762027 13.9389L8.67481 19.7216L5.63117 29.0347C5.08359 30.739 7.03144 32.1393 8.49206 31.1044L16.4055 25.3217L24.3183 31.1044C25.7795 32.1393 27.7273 30.739 27.1792 29.0347L24.1355 19.7216L32.1098 13.9389C33.5705 12.9046 32.8401 10.5913 31.014 10.5913Z" fill="#2CA2FC"/>
<path d="M16.4666 5.35612C16.0403 5.35612 15.6748 5.72156 15.6748 6.14733V18.4432C15.6748 18.8695 16.0403 19.235 16.4666 19.235C16.8924 19.235 17.2578 18.8695 17.2578 18.4432V6.14733C17.2578 5.72156 16.8924 5.35612 16.4666 5.35612Z" fill="#2CA2FC"/>
<path d="M26.2669 12.965L20.2411 14.9135C19.8148 15.0347 19.632 15.461 19.7538 15.8868C19.8757 16.1914 20.1802 16.435 20.4848 16.435C20.7278 16.435 20.4848 16.4959 26.7536 14.4262C27.18 14.3044 27.3627 13.8786 27.2409 13.4522C27.1197 13.0265 26.6324 12.7822 26.2669 12.965Z" fill="#2CA2FC"/>
<path d="M18.4754 19.478C18.1099 19.7217 18.049 20.2089 18.2927 20.5738L22.0051 25.6871C22.1884 25.8699 22.3711 25.9917 22.6142 25.9917C23.2233 25.9917 23.6491 25.2608 23.2233 24.7735L19.5705 19.6608C19.3275 19.2953 18.8402 19.235 18.4754 19.478Z" fill="#2CA2FC"/>
<path d="M14.4576 19.478C14.0922 19.235 13.6055 19.2953 13.3619 19.6608L9.64887 24.7735C9.40583 25.1396 9.4661 25.6256 9.83155 25.8699C10.1964 26.1129 10.6837 26.052 10.9267 25.6871L14.6398 20.5738C14.8225 20.2089 14.7622 19.7217 14.4576 19.478Z" fill="#2CA2FC"/>
<path d="M13.1805 15.8869C13.3017 15.4611 13.119 15.0347 12.6932 14.9135L6.72775 12.9047C6.30139 12.7823 5.8756 12.965 5.75378 13.3914C5.63197 13.8172 5.8153 14.2435 6.24106 14.3647L12.2669 16.3735C12.6317 16.496 13.0581 16.3132 13.1805 15.8869Z" fill="#2CA2FC"/>
<path d="M29.9797 26.5393C30.4169 26.5393 30.7709 26.8933 30.7709 27.3299C30.7709 27.7677 30.4169 28.1217 29.9797 28.1217C29.5425 28.1217 29.1885 27.7677 29.1885 27.3299C29.1885 26.8933 29.5425 26.5393 29.9797 26.5393Z" fill="#2CA2FC"/>
<path d="M30.7707 4.80847C31.1964 4.80847 31.5625 4.44302 31.5625 4.01726C31.5625 3.5909 31.1964 3.22604 30.7707 3.22604C30.3443 3.22604 29.9795 3.5909 29.9795 4.01726C29.9795 4.50454 30.3443 4.80847 30.7707 4.80847Z" fill="#2CA2FC"/>
<path d="M3.56206 7.91309C3.98843 7.91309 4.35388 7.54764 4.35388 7.12188C4.35388 6.69551 3.98843 6.33005 3.56206 6.33005C3.1363 6.33005 2.77148 6.69551 2.77148 7.12188C2.77148 7.60855 3.1363 7.91309 3.56206 7.91309Z" fill="#2CA2FC"/>
<path d="M4.35334 20.3917C3.92697 20.3917 3.56152 20.7565 3.56152 21.1823C3.56152 21.6087 3.92697 21.9741 4.35334 21.9741C4.7791 21.9741 5.14456 21.6087 5.14456 21.1823C5.14456 20.695 4.7791 20.3917 4.35334 20.3917Z" fill="#2CA2FC"/>
<path d="M2.80859 26.8873L3.88451 25.8108L4.96095 26.8867L3.88451 27.9625L2.80859 26.8873Z" fill="#2CA2FC"/>
<path d="M14.5674 30.9241L15.6432 29.8477L16.7197 30.9235L15.6438 32L14.5674 30.9241Z" fill="#2CA2FC"/>
<path d="M26.8745 5.29524L25.7794 4.20007L24.6836 5.29524L25.7794 6.3916L26.8745 5.29524Z" fill="#2CA2FC"/>
<path d="M8.24914 3.59101L7.15273 2.49584L6.05762 3.59101L7.15273 4.68738L8.24914 3.59101Z" fill="#2CA2FC"/>
</svg>
