<svg width="31" height="32" viewBox="0 0 31 32" fill="none" xmlns="http://www.w3.org/2000/svg">
<path d="M28.2815 23.2011C27.753 21.5257 26.1672 20.2684 24.2639 20.2684C26.1672 17.7025 28.0699 14.2457 28.1757 11.0503C30.1318 14.7168 30.1847 19.169 28.2815 23.2011ZM19.189 15.1885L26.1672 8.27478C27.6472 10.5273 26.5369 14.8216 23.3123 19.2732C23.2594 17.0212 21.462 15.2409 19.189 15.1885ZM14.1674 10.1604C18.6076 7.01802 22.942 5.91797 25.2156 7.38436L18.2379 14.2976C18.1845 12.0456 16.4399 10.2128 14.1674 10.1604ZM6.39633 11.3124C3.5949 11.3124 1.32137 9.06038 1.32137 6.28483C1.32137 3.50875 3.5949 1.25624 6.39633 1.25624C8.14088 1.25624 9.77964 2.14718 10.6784 3.61357C9.40988 4.08524 8.24667 4.71362 7.08346 5.44681C6.8195 5.65593 6.71371 6.02279 6.87187 6.33672C7.03056 6.65117 7.40085 6.75598 7.71823 6.65117C8.98671 6.12761 10.4668 6.49394 11.2597 7.6464C10.6255 9.7941 8.61643 11.3124 6.39633 11.3124ZM22.4665 5.39441C19.2419 5.4987 15.7528 7.33195 13.1629 9.21761C13.1629 7.43729 11.9468 5.81367 10.2023 5.23718C14.0611 3.50875 18.6076 3.45686 22.4665 5.39441ZM16.176 27.6533C16.176 27.8106 16.0173 27.9678 15.8591 27.9678C12.634 27.9678 6.34343 27.9678 3.06592 27.9678C2.85434 27.9678 2.74906 27.8106 2.74906 27.6533C2.74906 27.4962 2.90776 27.3389 3.06592 27.3389H15.8591C16.0173 27.3389 16.176 27.4962 16.176 27.6533ZM25.5853 30.0106C25.5853 30.3771 25.2685 30.6908 24.8982 30.6908H8.77512C8.40536 30.6908 8.08797 30.3771 8.08797 30.0106C8.08797 29.6433 8.40536 29.3293 8.77512 29.3293C11.0486 29.3293 22.6781 29.3293 24.9511 29.3293C25.3208 29.3293 25.5853 29.6433 25.5853 30.0106ZM27.1712 7.33195L28.1228 6.38964C28.3873 6.1276 28.3873 5.70885 28.1228 5.44681C27.8588 5.18477 27.4357 5.18477 27.1712 5.44681L26.2201 6.38964C22.3607 2.93278 17.0747 1.83273 11.9997 3.24671C10.8894 1.25624 8.72222 0 6.39633 0C2.85434 0 0 2.82796 0 6.33672C0 9.84599 2.85434 12.674 6.39633 12.674C8.51064 12.674 10.5197 11.6268 11.7358 9.7941C11.6295 10.4225 11.3126 10.9984 10.8894 11.4696C10.6255 11.7316 10.6255 12.1509 10.8894 12.4124C11.1539 12.6739 11.5771 12.6739 11.841 12.4124C13.0042 11.2605 14.9075 11.2076 16.0702 12.36C17.2334 13.5125 17.1805 15.3976 16.0173 16.5501L6.39633 25.9772H3.01303C2.06141 25.9772 1.32137 26.7106 1.32137 27.6533C1.32137 28.5962 2.06141 29.3293 3.01303 29.3293H6.8195C6.34343 30.6385 7.34795 32 8.72222 32H24.8982C26.0085 32 26.9072 31.1102 26.9072 30.0106C26.9072 28.9101 26.0085 28.0201 24.8982 28.0201H17.4973C17.7089 26.9724 16.916 26.0297 15.8591 26.0297H8.29956L16.916 17.4923C16.9689 17.4923 17.7089 16.6025 19.0832 16.6025C19.8761 16.6025 20.5632 16.9164 21.1451 17.4404C22.3083 18.5929 22.2549 20.4781 21.0922 21.63C20.8277 21.8921 20.8277 22.3113 21.0922 22.5734C21.3567 22.8349 21.7794 22.8349 22.0438 22.5734C23.2594 21.3686 25.1098 21.3686 26.2724 22.5209C27.1188 23.3584 27.3299 24.6157 26.8543 25.7153C26.6956 26.0297 26.8543 26.3966 27.1712 26.5532C27.4885 26.7106 27.8588 26.6057 28.0699 26.3441C32.1403 20.3732 32.0874 12.5697 27.1712 7.33195Z" fill="#FDA93F"/>
</svg>
