<svg width="32" height="32" viewBox="0 0 32 32" fill="none" xmlns="http://www.w3.org/2000/svg">
<path d="M25.369 30.5384C23.3997 30.5384 21.5951 29.4488 20.6652 27.6511L19.7359 25.7449C19.9542 25.5814 20.0084 25.2543 19.8995 24.9278C18.8601 22.4765 20.0084 19.5892 22.4698 18.554C24.9317 17.5195 27.8303 18.6631 28.8697 21.1143C28.9792 21.3869 29.3075 21.5504 29.5807 21.5504L30.2922 23.5116C31.4952 26.943 28.9792 30.5384 25.369 30.5384ZM18.9149 10.3286C22.033 8.96696 25.5879 10.6011 26.7362 13.7605L28.3776 18.282C26.7915 17.0289 24.6033 16.5388 22.5798 17.1379L21.4857 14.5231C21.3215 14.1421 20.9383 13.9785 20.5557 14.1421C20.1726 14.3051 20.0084 14.6866 20.1726 15.0682L21.2673 17.6824C19.3522 18.7721 18.2586 20.6243 18.0944 22.6395L16.0157 18.282C14.4842 15.2857 15.7973 11.6363 18.9149 10.3286ZM11.3667 19.1536C10.1089 21.6589 7.15497 22.694 4.58471 21.6049C2.0681 20.5153 0.755607 17.6285 1.68552 15.0682L2.39595 13.1069C2.66961 13.1069 2.998 12.9434 3.10746 12.6709C4.14684 10.2196 7.04604 9.07543 9.50738 10.1106C11.9682 11.1457 13.117 14.033 12.0782 16.4843C11.9682 16.7563 12.0229 17.0834 12.2418 17.3014L11.3667 19.1536ZM5.29515 5.20801C6.11613 2.86575 8.3038 1.34057 10.8193 1.34057C15.1958 1.34057 17.985 5.91609 16.0157 9.78406L13.8827 14.0876C13.7185 12.0718 12.5702 10.1656 10.7104 9.13049L11.8045 6.51568C11.9682 6.18863 11.8045 5.75309 11.4214 5.58957C11.0388 5.42604 10.6557 5.58957 10.4915 5.97113L9.39738 8.53088C7.37391 7.93183 5.18622 8.36737 3.59952 9.67504L5.29515 5.20801ZM31.6047 23.0756L28.0492 13.2699C26.5725 9.07544 21.6499 7.22376 17.7113 9.34798C18.8054 5.97113 17.2193 2.04866 13.6638 0.577997C9.78051 -1.05619 5.35043 0.90451 3.98266 4.82699L0.37248 14.6866C-0.775819 17.955 0.810334 21.6049 4.03738 22.9666C5.45934 23.5656 6.66237 23.5116 6.66237 23.5116C9.17898 23.5116 11.4761 22.1495 12.6244 19.8617L14.1017 16.9199C14.2111 17.6285 14.4295 18.282 14.8126 18.9901L19.4622 28.3592C21.0478 31.5191 24.8222 32.8262 27.9945 31.4645C31.1668 29.9939 32.8083 26.3985 31.6047 23.0756Z" fill="#FDA93F"/>
<path d="M19.7356 13.4881C20.1181 13.6516 20.5013 13.4881 20.6649 13.1071C20.8291 12.78 20.6649 12.3445 20.2818 12.181C19.8992 12.0175 19.5161 12.181 19.3519 12.562C19.2424 12.9436 19.4066 13.3796 19.7356 13.4881Z" fill="#FDA93F"/>
<path d="M12.2963 5.04519C12.6794 4.88166 12.8436 4.50009 12.6794 4.11853C12.5152 3.79202 12.1321 3.57399 11.749 3.73752C11.3664 3.90105 11.2022 4.2826 11.3664 4.66363C11.5306 4.99068 11.9137 5.15367 12.2963 5.04519Z" fill="#FDA93F"/>
<path d="M20.3915 3.41049C20.774 3.2475 20.9382 2.86594 20.774 2.48492C20.6104 2.15787 20.2278 1.93983 19.8447 2.10335C19.4621 2.26688 19.2979 2.6479 19.4621 3.02946C19.6257 3.35597 20.0636 3.52004 20.3915 3.41049Z" fill="#FDA93F"/>
<path d="M1.73948 25.745C1.41163 25.9079 1.19323 26.2895 1.35689 26.6711C1.52109 27.0521 1.90368 27.2156 2.28681 27.0521C2.6152 26.8886 2.8336 26.5075 2.6694 26.126C2.50574 25.7449 2.12315 25.5814 1.73948 25.745Z" fill="#FDA93F"/>
<path d="M12.8979 24.3284C12.5701 24.4919 12.3511 24.8735 12.5148 25.2545C12.6795 25.6361 13.0621 25.7996 13.4447 25.6361C13.8278 25.4726 13.992 25.091 13.8278 24.71C13.6636 24.3829 13.2805 24.1649 12.8979 24.3284Z" fill="#FDA93F"/>
<path d="M29.4729 9.77222L30.793 9.24494L31.3219 10.5596L30.0023 11.0869L29.4729 9.77222Z" fill="#FDA93F"/>
<path d="M7.26402 27.7604C7.04563 27.7604 6.93565 27.5968 6.93565 27.4339C6.93565 27.2703 7.09982 27.1068 7.26402 27.1068C7.42822 27.1068 7.59189 27.2703 7.59189 27.4339C7.59189 27.5968 7.42822 27.7604 7.26402 27.7604ZM7.26402 25.6362C6.27937 25.6362 5.51367 26.3987 5.51367 27.3794C5.51367 28.3594 6.27937 29.1226 7.26402 29.1226C8.24866 29.1226 9.01439 28.3594 9.01439 27.3794C9.01439 26.4532 8.19393 25.6362 7.26402 25.6362Z" fill="#FDA93F"/>
<path d="M27.8309 4.11863C28.214 4.11863 28.5424 4.44569 28.5424 4.82725C28.5424 5.20827 28.214 5.53532 27.8309 5.53532C27.4483 5.53532 27.1199 5.20827 27.1199 4.82725C27.1199 4.44569 27.4483 4.11863 27.8309 4.11863ZM27.8309 6.89697C28.9797 6.89697 29.9096 5.9714 29.9096 4.82725C29.9096 3.6831 28.9797 2.75699 27.8309 2.75699C26.6826 2.75699 25.7527 3.6831 25.7527 4.82725C25.7527 5.9714 26.6826 6.89697 27.8309 6.89697Z" fill="#FDA93F"/>
</svg>
