<svg width="32" height="32" viewBox="0 0 32 32" fill="none" xmlns="http://www.w3.org/2000/svg">
<path d="M26.7955 28.6073C26.3866 28.6073 26.0361 28.9614 26.0361 29.3746C26.0361 29.9642 25.511 30.4948 24.9274 30.4948C24.2854 30.4948 23.8181 29.9642 23.8181 29.3746C23.8181 28.9614 23.4676 28.6073 23.0592 28.6073C22.6503 28.6073 22.3004 28.9614 22.3004 29.3746C22.3004 29.9642 21.7747 30.4948 21.1911 30.4948C20.6075 30.4948 20.0818 29.9642 20.0818 29.3155C20.0818 28.9024 19.7313 28.5488 19.3229 28.5488C18.914 28.5488 18.5641 28.9024 18.5641 29.3155C18.5641 29.9052 18.0389 30.4358 17.4548 30.4358C16.8712 30.4358 16.3455 29.9052 16.3455 29.3155C16.3455 28.9024 15.9955 28.5488 15.5866 28.5488C15.1783 28.5488 14.8278 28.9024 14.8278 29.3155C14.8278 29.9052 14.3026 30.4358 13.7185 30.4358C13.0765 30.4358 12.6097 29.9052 12.6097 29.3155C12.6097 28.9024 12.2592 28.5488 11.8509 28.5488C11.442 28.5488 11.0921 28.9024 11.0921 29.3155C11.0921 29.9052 10.5663 30.4358 9.98275 30.4358C9.34018 30.4358 8.87343 29.9052 8.87343 29.3155C8.87343 28.9024 8.52293 28.5488 8.1146 28.5488C7.70569 28.5488 7.35578 28.9024 7.35578 29.3155C7.35578 29.9052 6.83003 30.4358 6.24644 30.4358C5.60445 30.4358 5.13713 29.9052 5.13713 29.3155C5.13713 28.9024 4.78722 28.5488 4.3783 28.5488C3.96939 28.5488 3.7363 28.9024 3.7363 29.3155C3.7363 29.9052 3.21056 30.4358 2.62698 30.4358C2.04282 30.4358 1.51766 29.9052 1.51766 29.3155C1.51766 28.9024 1.16716 28.5488 0.758828 28.5488C0.349917 28.5488 0 28.9024 0 29.3155C0 30.79 1.16716 31.9698 2.62698 31.9698C3.38581 31.9698 4.02781 31.6747 4.49514 31.2031C5.54604 32.265 7.18052 32.265 8.23143 31.2031C9.28234 32.265 10.9163 32.265 11.9672 31.2031C13.0181 32.265 14.6525 32.265 15.7035 31.2031C16.7544 32.265 18.3889 32.265 19.4398 31.2031C20.4907 32.265 22.1252 32.265 23.1761 31.2031C23.6428 31.6747 24.2854 31.9698 25.0442 31.9698C26.5035 31.9698 27.6712 30.79 27.6712 29.3155C27.5544 28.9024 27.2039 28.6073 26.7955 28.6073Z" fill="#FDA93F"/>
<path d="M7.06325 27.8405C7.82208 27.8405 8.46466 27.5453 8.93141 27.0737C9.98232 28.1356 11.6168 28.1356 12.6677 27.0737C13.1345 27.5453 13.777 27.8405 14.5359 27.8405C15.9951 27.8405 17.1628 26.6612 17.1628 25.1862C17.1628 24.7736 16.8123 24.4194 16.404 24.4194C15.9951 24.4194 15.6446 24.7736 15.6446 25.1862C15.6446 25.8354 15.1194 26.307 14.5359 26.307C13.9517 26.307 13.4265 25.7764 13.4265 25.1862C13.4265 24.7736 13.076 24.4194 12.6677 24.4194C12.2588 24.4194 11.9089 24.7736 11.9089 25.1862C11.9089 25.8354 11.3831 26.307 10.7996 26.307C10.2154 26.307 9.69023 25.7764 9.69023 25.1862C9.69023 24.7736 9.33974 24.4194 8.93141 24.4194C8.5225 24.4194 8.17257 24.7736 8.17257 25.1862C8.17257 25.8354 7.64683 26.307 7.06325 26.307C6.4791 26.307 5.95393 25.7764 5.95393 25.1862C5.95393 24.7736 5.60401 24.4194 5.1951 24.4194C4.78677 24.4194 4.43628 24.7736 4.43628 25.1862C4.43628 26.6612 5.60401 27.8405 7.06325 27.8405Z" fill="#FDA93F"/>
<path d="M7.82235 23.2988C8.58118 23.2988 9.22376 23.0037 9.69051 22.5321C10.1573 23.0037 10.7998 23.2988 11.5587 23.2988C13.0179 23.2988 14.1856 22.1195 14.1856 20.6445C14.1856 20.2319 13.8352 19.8778 13.4268 19.8778C13.0179 19.8778 12.668 20.2319 12.668 20.6445C12.668 21.2348 12.1422 21.7654 11.5587 21.7654C10.9161 21.7654 10.4493 21.2348 10.4493 20.6445C10.4493 20.2319 10.0994 19.8778 9.69051 19.8778C9.28218 19.8778 8.93169 20.2319 8.93169 20.6445C8.93169 21.2348 8.40594 21.7654 7.82235 21.7654C7.18036 21.8244 6.65462 21.2938 6.65462 20.7035C6.65462 20.2904 6.30471 19.9368 5.8958 19.9368C5.48747 19.9368 5.13696 20.2904 5.13696 20.7035C5.19538 22.1195 6.36311 23.2988 7.82235 23.2988Z" fill="#FDA93F"/>
<path d="M20.0814 25.186C20.0814 24.7734 19.7309 24.4193 19.3225 24.4193C18.9136 24.4193 18.5637 24.7734 18.5637 25.186C18.5637 26.661 19.7309 27.8403 21.1907 27.8403C22.6499 27.8403 23.8177 26.661 23.8177 25.186C23.8177 24.7734 23.4672 24.4193 23.0589 24.4193C22.6499 24.4193 22.3 24.7734 22.3 25.186C22.3 25.8353 21.7743 26.3069 21.1907 26.3069C20.6071 26.3069 20.0814 25.8353 20.0814 25.186Z" fill="#FDA93F"/>
<path d="M10.6827 4.48262C11.0916 4.30555 11.2663 3.89296 11.0916 3.47979C10.9158 3.12624 10.5075 2.89014 10.0991 3.06721C9.69023 3.24428 9.51498 3.65687 9.69023 4.07003C9.86547 4.42359 10.3322 4.60066 10.6827 4.48262Z" fill="#FDA93F"/>
<path d="M3.03568 10.0861C3.21093 10.4993 3.61984 10.6757 4.02817 10.4993C4.37867 10.3222 4.61176 9.90902 4.43709 9.49644C4.26184 9.1423 3.85292 8.90621 3.44459 9.08328C3.03567 9.26035 2.86101 9.67293 3.03568 10.0861Z" fill="#FDA93F"/>
<path d="M7.19287 15.3835L8.60122 14.8126L9.16628 16.2362L7.75737 16.8071L7.19287 15.3835Z" fill="#FDA93F"/>
<path d="M2.97653 3.65677L2.39294 2.24138L1.05054 2.83103L1.5757 4.18799L2.97653 3.65677Z" fill="#FDA93F"/>
<path d="M26.3276 18.9337L26.9118 20.29L28.3126 19.7594L27.729 18.344L26.3276 18.9337Z" fill="#FDA93F"/>
<path d="M2.68555 20.3497C2.33506 20.5262 2.10197 20.9394 2.27664 21.352C2.45189 21.7651 2.8608 21.9422 3.26913 21.7651C3.61962 21.5881 3.85271 21.1755 3.67804 20.7623C3.5028 20.4087 3.09388 20.2317 2.68555 20.3497Z" fill="#FDA93F"/>
<path d="M25.3354 25.8354C25.5107 26.248 25.9196 26.4251 26.3279 26.248C26.7368 26.071 26.9121 25.6584 26.7368 25.2452C26.5616 24.832 26.1532 24.6556 25.7443 24.832C25.3354 25.0097 25.2186 25.4813 25.3354 25.8354Z" fill="#FDA93F"/>
<path d="M28.7214 28.666C28.313 28.8431 28.1378 29.2563 28.313 29.6689C28.4883 30.082 28.8966 30.2591 29.3055 30.082C29.7139 29.9049 29.8891 29.4924 29.7139 29.0792C29.5392 28.666 29.1303 28.4896 28.7214 28.666Z" fill="#FDA93F"/>
<path d="M31.9319 29.0792C31.7566 28.666 31.3483 28.4896 30.9394 28.666C30.5311 28.8431 30.3558 29.2563 30.5311 29.6689C30.7063 30.082 31.1146 30.2591 31.5235 30.082C31.9319 29.9049 32.1071 29.4328 31.9319 29.0792Z" fill="#FDA93F"/>
<path d="M22.2998 5.24909C24.3432 5.24909 26.0355 6.95961 26.0355 9.02426C26.0355 11.0889 24.3432 12.7994 22.2998 12.7994C20.2564 12.7994 18.5635 11.0889 18.5635 9.02426C18.5635 6.95961 20.2564 5.24909 22.2998 5.24909ZM22.2998 14.2744C25.1604 14.2744 27.4953 11.9147 27.4953 9.02426C27.4953 6.13386 25.1604 3.77467 22.2998 3.77467C19.4392 3.77467 17.1042 6.13386 17.1042 9.02426C17.1042 11.9147 19.4392 14.2744 22.2998 14.2744Z" fill="#FDA93F"/>
<path d="M22.3006 8.25758C22.7089 8.25758 23.0594 8.61172 23.0594 9.0243C23.0594 9.43747 23.4093 9.79102 23.8182 9.79102C24.2266 9.79102 24.5771 9.43747 24.5771 9.0243C24.5771 7.78539 23.5846 6.78316 22.3584 6.78316C21.9501 6.78316 21.5996 7.13672 21.5996 7.54989C21.5996 7.96247 21.8917 8.25758 22.3006 8.25758Z" fill="#FDA93F"/>
<path d="M22.2999 3.0083C22.7083 3.0083 23.0588 2.65415 23.0588 2.24157V0.766572C23.0588 0.353992 22.7083 -0.000155783 22.2999 -0.000155783C21.891 -0.000155783 21.5405 0.353992 21.5405 0.766572V2.24157C21.5989 2.65415 21.891 3.0083 22.2999 3.0083Z" fill="#FDA93F"/>
<path d="M23.0588 17.2826V15.8082C23.0588 15.395 22.7083 15.0415 22.2999 15.0415C21.891 15.0415 21.5405 15.395 21.5405 15.8082V17.2826C21.5405 17.6958 21.891 18.0493 22.2999 18.0493C22.7083 18.0493 23.0588 17.6958 23.0588 17.2826Z" fill="#FDA93F"/>
<path d="M27.6123 4.77764L28.6632 3.7158C28.9547 3.42068 28.9547 2.94909 28.6632 2.65397C28.3711 2.35885 27.9038 2.35885 27.6123 2.65397L26.5613 3.7158C26.2693 4.01092 26.2693 4.48252 26.5613 4.77764C26.8528 5.07217 27.3202 5.07217 27.6123 4.77764Z" fill="#FDA93F"/>
<path d="M17.0462 13.2711L15.9959 14.3329C15.5286 14.8051 15.8791 15.6309 16.5211 15.6309C16.6963 15.6309 16.93 15.5718 17.0462 15.3948L18.0971 14.3329C18.3892 14.0384 18.3892 13.5662 18.0971 13.2711C17.8056 12.9765 17.3383 12.9765 17.0462 13.2711Z" fill="#FDA93F"/>
<path d="M31.2319 9.0243C31.2319 8.61172 30.8814 8.25757 30.4731 8.25757H28.9549C28.5465 8.25757 28.196 8.61172 28.196 9.0243C28.196 9.43747 28.5465 9.79102 28.9549 9.79102H30.4731C30.9399 9.79102 31.2319 9.43747 31.2319 9.0243Z" fill="#FDA93F"/>
<path d="M14.1271 9.79102H15.5863C15.9952 9.79102 16.3451 9.43747 16.3451 9.0243C16.3451 8.61172 15.9952 8.25757 15.5863 8.25757H14.0686C13.6597 8.25757 13.3098 8.61172 13.3098 9.0243C13.3682 9.43747 13.7181 9.79102 14.1271 9.79102Z" fill="#FDA93F"/>
<path d="M26.5613 13.2711C26.2693 13.5662 26.2693 14.0384 26.5613 14.3329L27.6123 15.3948C27.7875 15.5718 27.9622 15.6309 28.1374 15.6309C28.78 15.6309 29.1299 14.8051 28.6632 14.3329L27.6123 13.2711C27.3202 12.9765 26.8528 12.9765 26.5613 13.2711Z" fill="#FDA93F"/>
<path d="M17.0458 4.77758C17.2216 4.95465 17.3963 5.01367 17.5715 5.01367C18.2135 5.01367 18.564 4.18793 18.0967 3.71574L17.0458 2.65391C16.7543 2.35879 16.2869 2.35879 15.9954 2.65391C15.7033 2.94903 15.7033 3.42063 15.9954 3.71574L17.0458 4.77758Z" fill="#FDA93F"/>
</svg>
