<svg width="32" height="32" viewBox="0 0 32 32" fill="none" xmlns="http://www.w3.org/2000/svg">
<path d="M16.6929 5.92071C15.9541 6.5075 15.5844 7.46757 15.6902 8.37439H15.6374C12.6817 3.89408 8.88147 1.38767 6.40076 2.66775C11.1511 0.160827 16.7985 1.7077 20.1236 5.97449C19.5956 5.54744 19.0154 5.33443 18.382 5.33443C17.9594 5.33443 17.5373 5.44092 17.115 5.65445C16.9568 5.7077 16.7985 5.81421 16.6929 5.92071Z" fill="white"/>
<path d="M7.45322 10.8281C6.13355 11.5214 5.65866 13.228 6.34491 14.6146C6.13355 14.2414 5.92261 13.9746 5.60611 13.7078H5.71145C3.70579 8.74827 3.75854 4.10822 6.18635 2.72163C6.18635 2.72163 6.18635 2.72163 6.23931 2.72163L11.1478 12.055C10.62 11.0949 9.66982 10.5614 8.66733 10.5614C8.29762 10.5081 7.87552 10.6146 7.45322 10.8281Z" fill="white"/>
<path d="M15.637 8.37446H15.6898C15.7425 8.74773 15.8479 9.06775 16.0065 9.44103C15.4786 8.48096 14.5287 7.94741 13.5259 7.94741C13.1034 7.94741 12.6813 8.05444 12.2589 8.26796C10.9396 8.96126 10.4645 10.6673 11.1507 12.0544L6.24219 2.72109H6.29499C6.29499 2.72109 6.34779 2.72108 6.34779 2.66783C8.8811 1.38774 12.6813 3.89415 15.637 8.37446Z" fill="white"/>
<path d="M5.71595 13.654H5.61061C4.92414 13.121 4.02678 12.9075 3.18243 13.121C2.97149 13.1742 2.81293 13.2275 2.60199 13.334C1.59902 13.8675 1.07138 14.9341 1.17693 16.0544C-0.45923 10.8276 1.49342 5.22798 6.19085 2.66781C3.81584 4.10764 3.71029 8.69445 5.71595 13.654Z" fill="white"/>
<path d="M28.0423 0.694222C29.8893 0.694222 31.3674 2.18731 31.3674 4.05419C31.3674 5.92055 29.8893 7.41418 28.0423 7.41418C26.1948 7.41418 24.7172 5.92055 24.7172 4.05419C24.7172 2.18731 26.1948 0.694222 28.0423 0.694222Z" fill="white"/>
<path d="M12.8376 28.0007L4.92061 31.3607H2.96796L4.92061 28.0007H12.8376Z" fill="white"/>
<path d="M27.3561 28.0007L29.3617 31.3607H27.3561L19.439 28.0007H27.3561Z" fill="white"/>
<path d="M31.3149 24.6943V28.001H1.65234V24.6943H4.60796H21.7616H28.6753H31.3149Z" fill="white"/>
<path d="M28.1965 16.4813C28.8299 17.1214 28.8299 18.188 28.1965 18.828L25.8742 21.1746L23.0771 24.0011L23.0244 24.0543C22.7077 24.3743 22.285 24.6411 21.8103 24.6411H4.60391C4.12906 24.6411 3.7595 24.4814 3.4428 24.1613C3.1261 23.8413 2.96796 23.4681 2.96796 22.9878C2.96796 22.0815 3.70675 21.3344 4.60391 21.3344H21.0715L25.8742 16.4813C26.5076 15.8413 27.5631 15.8413 28.1965 16.4813Z" fill="white"/>
<path d="M29.8348 9.54719C29.9402 9.65422 30.0461 9.81396 30.0461 10.0275C30.0461 10.1872 29.9934 10.4008 29.8348 10.5073C29.7294 10.6138 29.5181 10.667 29.36 10.667C28.9901 10.667 28.6734 10.347 28.6734 9.9737C28.6734 9.81396 28.7266 9.60043 28.8847 9.49393C28.9901 9.38743 29.1487 9.28042 29.36 9.28042C29.5181 9.33419 29.7294 9.38744 29.8348 9.54719Z" fill="#005395"/>
<path d="M25.1921 11.5211C25.2975 11.6276 25.4034 11.7879 25.4034 12.0014C25.4034 12.1612 25.3502 12.3747 25.1921 12.4812C25.0867 12.5877 24.9281 12.6947 24.7173 12.6947C24.3479 12.6947 24.0312 12.3747 24.0312 12.0014C24.0312 11.8411 24.0839 11.6276 24.242 11.5211C24.3479 11.4146 24.506 11.3076 24.7173 11.3076C24.9281 11.3076 25.0867 11.4146 25.1921 11.5211Z" fill="#005395"/>
<path d="M18.1445 10.3665L19.0774 9.42334L20.0103 10.3665L19.0774 11.3092L18.1445 10.3665Z" fill="#005395"/>
<path d="M18.5932 15.5208C18.6991 15.6273 18.8045 15.7875 18.8045 16.001C18.8045 16.214 18.7518 16.3743 18.5932 16.4808C18.4878 16.5873 18.3292 16.6943 18.1184 16.6943C17.7485 16.6943 17.432 16.3743 17.432 16.001C17.432 15.8408 17.485 15.6273 17.6431 15.5208C17.7485 15.4143 17.9071 15.3072 18.1184 15.3072C18.3292 15.3072 18.4878 15.4143 18.5932 15.5208Z" fill="#005395"/>
<path d="M11.3636 18.1879C11.4692 18.2944 11.5745 18.4547 11.5745 18.6676C11.5745 18.8812 11.5218 19.0414 11.3636 19.1479C11.205 19.2544 11.0997 19.3615 10.8885 19.3615C10.519 19.3615 10.2023 19.0414 10.2023 18.6676C10.2023 18.5079 10.2551 18.2944 10.4133 18.1879C10.519 18.0814 10.6772 17.9743 10.8885 17.9743C11.0467 18.0276 11.2578 18.0814 11.3636 18.1879Z" fill="#005395"/>
<path d="M5.61161 16.9614L4.66124 17.8682L3.76404 16.9614L4.66124 16.0018L5.61161 16.9614Z" fill="#005395"/>
<path d="M31.3151 28.6943H27.3566C26.9872 28.6943 26.6705 28.3743 26.6705 28.001C26.6705 27.6278 26.9872 27.3078 27.3566 27.3078H30.6817V25.2811H21.7618C21.3919 25.2811 21.0757 24.9611 21.0757 24.5878C21.0757 24.2146 21.3919 23.8945 21.7618 23.8945H31.3151C31.6845 23.8945 32.0007 24.2146 32.0007 24.5878V27.9478C32.0007 28.3743 31.6845 28.6943 31.3151 28.6943Z" fill="#005395"/>
<path d="M4.92133 28.6943H1.59621C1.22691 28.6943 0.910156 28.3743 0.910156 28.001V24.6411C0.910156 24.2678 1.22691 23.9478 1.59621 23.9478H4.55182C4.92132 23.9478 5.23808 24.2678 5.23808 24.6411C5.23808 25.0144 4.92132 25.3344 4.55182 25.3344H2.28241V27.361H4.92133C5.29104 27.361 5.60779 27.681 5.60779 28.0543C5.60779 28.3743 5.29104 28.6943 4.92133 28.6943Z" fill="#005395"/>
<path d="M19.4392 28.6943H12.8415C12.4722 28.6943 12.1555 28.3743 12.1555 28.001C12.1555 27.6278 12.4722 27.3078 12.8415 27.3078H19.4392C19.8086 27.3078 20.1252 27.6278 20.1252 28.001C20.1252 28.3743 19.8086 28.6943 19.4392 28.6943Z" fill="#005395"/>
<path d="M4.13153 30.6676H4.81774L9.56792 28.641H5.34539L4.13153 30.6676ZM4.92308 32.001H2.91763C2.65368 32.001 2.44253 31.8945 2.33698 31.6809C2.23142 31.4679 2.23142 31.2012 2.33698 30.9876L4.34243 27.6277C4.44824 27.4147 4.65918 27.3077 4.92308 27.3077H12.8401C13.1568 27.3077 13.4207 27.5212 13.4733 27.8412C13.5265 28.1612 13.3679 28.4807 13.104 28.5877L5.18704 31.9477C5.13424 32.001 5.02889 32.001 4.92308 32.001Z" fill="#005395"/>
<path d="M27.5144 30.6676H28.2005L26.9869 28.641H22.7644L27.5144 30.6676ZM29.3619 32.001H27.3563C27.2504 32.001 27.1977 32.001 27.0923 31.9477L19.1753 28.5877C18.8586 28.4807 18.7005 28.1612 18.8059 27.8412C18.8586 27.5212 19.1226 27.3077 19.4393 27.3077H27.3563C27.5671 27.3077 27.7784 27.4147 27.9365 27.6277L29.9421 30.9876C30.048 31.2012 30.048 31.4679 29.9421 31.6809C29.8367 31.8945 29.5727 32.001 29.3619 32.001Z" fill="#005395"/>
<path d="M4.60266 22.0274C4.07481 22.0274 3.59991 22.4544 3.59991 23.0412C3.59991 23.3075 3.70552 23.5743 3.86387 23.7345C4.07481 23.9475 4.28617 24.0008 4.54986 24.0008H21.7031C21.9671 24.0008 22.2311 23.8943 22.4424 23.6808L22.4951 23.6275L22.5478 23.5743L27.6677 18.4007C27.8785 18.1877 27.9839 17.9741 27.9839 17.7074C27.9839 17.4411 27.8785 17.1743 27.7204 17.0141C27.5091 16.8011 27.2983 16.7478 27.0343 16.7478C26.7703 16.7478 26.5063 16.8543 26.3482 17.0141L21.545 21.8676C21.4396 21.9741 21.2283 22.0812 21.0702 22.0812L4.60266 22.0274ZM21.7563 25.3341H4.60266C3.96942 25.3341 3.38876 25.0673 2.96672 24.6408C2.5442 24.2143 2.28046 23.6275 2.28046 22.9875C2.28046 21.7074 3.33601 20.6408 4.60266 20.6408H20.8062L25.3981 16.0013C25.8202 15.5742 26.4009 15.3075 27.0343 15.3075C27.6677 15.3075 28.2479 15.5742 28.67 16.0013C29.0926 16.4278 29.3567 17.0141 29.3567 17.6541C29.3567 18.2941 29.0926 18.8809 28.67 19.3075L23.5506 24.4811L23.4979 24.5343C23.0231 25.0673 22.4424 25.3341 21.7563 25.3341Z" fill="#005395"/>
<path d="M28.7277 25.3341C28.5164 25.3341 28.3578 25.2276 28.1997 25.0673L25.5607 21.7606C25.3494 21.4944 25.4026 21.0673 25.6666 20.8011C25.9301 20.5876 26.3527 20.6408 26.6167 20.9076L29.2552 24.2675C29.4665 24.5343 29.4138 24.9608 29.1498 25.2276C28.9912 25.2809 28.8331 25.3341 28.7277 25.3341Z" fill="#005395"/>
<path d="M21.4437 32.001H4.92349C4.55398 32.001 4.23749 31.681 4.23749 31.3077C4.23749 30.9344 4.55398 30.6144 4.92349 30.6144H21.4437C21.8131 30.6144 22.1298 30.9344 22.1298 31.3077C22.0771 31.681 21.8131 32.001 21.4437 32.001Z" fill="#005395"/>
<path d="M5.71402 14.3474C5.45012 14.3474 5.18617 14.1876 5.08062 13.9209C4.07766 11.4145 3.55022 8.90754 3.60276 6.82766C3.70836 4.53426 4.44737 2.93415 5.87238 2.13435C6.18892 1.97461 6.61118 2.08111 6.76958 2.40113C6.92793 2.72115 6.82254 3.14767 6.50583 3.30742C4.44737 4.48101 4.39457 8.74779 6.29468 13.4411C6.45282 13.7611 6.29468 14.1877 5.92518 14.2941C5.92518 14.3474 5.81963 14.3474 5.71402 14.3474Z" fill="#005395"/>
<path d="M6.29574 3.36072C6.08438 3.36072 5.87343 3.2537 5.76788 3.0407C5.55652 2.72068 5.66228 2.29415 5.92623 2.13388L5.97904 2.08064C5.97904 2.08064 5.97904 2.08064 6.03178 2.08064C6.34854 1.92089 6.71784 2.02739 6.92899 2.34742C7.08734 2.66744 6.98179 3.09396 6.66503 3.2537C6.66503 3.2537 6.66503 3.2537 6.61223 3.2537C6.50689 3.30695 6.40113 3.36072 6.29574 3.36072Z" fill="#005395"/>
<path d="M15.6391 9.01379C15.428 9.01379 15.2168 8.90678 15.1113 8.69378C12.314 4.48024 8.7777 2.13358 6.71923 3.20014C6.40253 3.36042 5.98044 3.2534 5.82208 2.88013C5.66368 2.56011 5.76928 2.13359 6.13858 1.97385C7.56379 1.28055 9.30555 1.54733 11.2583 2.7204C13.0002 3.78696 14.742 5.65383 16.2196 7.89345C16.4307 8.21347 16.3251 8.64053 16.0614 8.80028C15.8501 9.0138 15.7447 9.01379 15.6391 9.01379Z" fill="#005395"/>
<path d="M16.1146 21.9204C15.9035 21.9204 15.6397 21.8139 15.534 21.5471L4.97826 1.60084C4.81991 1.28082 4.92525 0.85376 5.242 0.694014C5.5585 0.533739 5.98101 0.640766 6.13915 0.960789L16.6952 20.9071C16.8536 21.2271 16.748 21.6536 16.4313 21.8139C16.3257 21.9204 16.2202 21.9204 16.1146 21.9204Z" fill="#005395"/>
<path d="M6.61293 3.25487L6.56039 3.30811C2.91852 5.33527 0.965394 9.33529 1.38791 13.6016C1.65165 13.2815 1.96857 13.0153 2.33786 12.855C2.5488 12.7485 2.81276 12.642 3.07666 12.5882C3.34061 12.535 3.65731 12.4817 3.92127 12.4817C4.44912 12.4817 4.97698 12.5882 5.39908 12.855C5.39908 12.6953 5.45188 12.535 5.50462 12.3752C5.76858 11.4684 6.34924 10.7751 7.14104 10.2948C7.61568 10.0286 8.14354 9.92155 8.72419 9.92155C9.25189 9.92155 9.77975 10.0286 10.2548 10.2948C10.413 9.22826 10.9936 8.26873 11.9968 7.73518C12.4717 7.46841 12.9995 7.36191 13.58 7.36191C14.1076 7.36191 14.6355 7.46841 15.058 7.73518C15.1633 6.88161 15.5854 6.08182 16.2718 5.54828C16.43 5.38853 16.6412 5.28203 16.7995 5.175C17.169 4.962 17.5911 4.85497 17.9605 4.80173C16.0079 3.14837 13.6327 2.24155 11.2048 2.24155C9.6216 2.24155 8.091 2.61482 6.66573 3.36189C6.66573 3.25486 6.66573 3.25487 6.61293 3.25487C6.66573 3.25487 6.66573 3.25487 6.61293 3.25487ZM1.22956 16.8018C0.965395 16.8018 0.7017 16.6415 0.596097 16.322C-0.248461 13.6548 -0.195501 10.7751 0.75445 8.21496C1.70461 5.60206 3.49917 3.46838 5.92693 2.13505H5.97973C5.97973 2.13505 5.97973 2.13505 6.03248 2.13505C6.03248 2.13505 6.08507 2.13506 6.08507 2.08181C7.72128 1.22877 9.41045 0.801706 11.2048 0.801706C12.9467 0.801706 14.7413 1.22875 16.3772 2.02855C18.0132 2.82834 19.4913 4.05519 20.6522 5.54828C20.8635 5.81505 20.8635 6.18831 20.5995 6.45508C20.336 6.66808 19.9666 6.72186 19.7026 6.50834C19.3332 6.18832 18.8579 6.02857 18.3299 6.02857C18.0132 6.02857 17.6965 6.13507 17.38 6.24156C17.2746 6.29481 17.169 6.40183 17.0632 6.45508C16.5354 6.8816 16.2189 7.62815 16.3244 8.32197C16.3772 8.58874 16.43 8.85499 16.5354 9.12176C16.5886 9.22826 16.6412 9.3353 16.6412 9.4418C16.6412 9.81507 16.3772 10.0818 16.0607 10.0818C15.7966 10.0818 15.5327 9.97482 15.4273 9.70857C15.058 9.01528 14.3188 8.53497 13.5274 8.53497C13.2107 8.53497 12.8939 8.642 12.577 8.80175C11.5743 9.33529 11.2048 10.6148 11.7326 11.6819C11.7854 11.7884 11.8382 11.895 11.8382 12.002C11.8382 12.3752 11.5743 12.642 11.2576 12.642C10.9936 12.642 10.7297 12.535 10.6243 12.2682C10.2548 11.5749 9.51579 11.0951 8.72419 11.0951C8.4077 11.0951 8.09099 11.2017 7.77424 11.3619C7.29919 11.6282 6.92968 12.0552 6.77133 12.5882C6.61293 13.1218 6.66573 13.708 6.92968 14.1883C6.98249 14.2948 7.03523 14.4013 7.03523 14.5084C7.03523 14.8816 6.77133 15.1484 6.45458 15.1484C6.19068 15.1484 5.92693 15.0419 5.82138 14.7751C5.66298 14.5084 5.50462 14.2416 5.24072 14.0818C4.87122 13.7618 4.39632 13.6016 3.92127 13.6016C3.76286 13.6016 3.55197 13.6015 3.39336 13.6548C3.23522 13.708 3.07666 13.7618 2.97132 13.8151C2.23231 14.1883 1.8628 14.9881 1.91555 15.8417C1.91555 15.8949 1.91555 15.895 1.91555 15.9487C1.91555 16.4818 1.59885 16.7485 1.22956 16.8018Z" fill="#005395"/>
<path d="M28.0405 1.33428C26.5629 1.33428 25.4015 2.50734 25.4015 4.00096C25.4015 5.49404 26.5629 6.6671 28.0405 6.6671C29.5181 6.6671 30.6795 5.49404 30.6795 4.00096C30.6795 2.50734 29.5181 1.33428 28.0405 1.33428ZM28.0405 8.00098C25.8763 8.00098 24.082 6.18734 24.082 4.00096C24.082 1.81405 25.8763 0.000936508 28.0405 0.000936508C30.2042 0.000936508 31.9985 1.81405 31.9985 4.00096C31.9985 6.18734 30.2042 8.00098 28.0405 8.00098Z" fill="#005395"/>
<path d="M29.3606 4.6947C28.9907 4.6947 28.674 4.37469 28.674 4.00141C28.674 3.62762 28.3573 3.30759 27.9879 3.30759C27.6185 3.30759 27.3023 2.98757 27.3023 2.6143C27.3023 2.24103 27.6185 1.92152 27.9879 1.92152C29.0966 1.92152 29.994 2.82782 29.994 3.94764C29.994 4.37468 29.73 4.6947 29.3606 4.6947Z" fill="#005395"/>
</svg>
