<svg width="26" height="32" viewBox="0 0 26 32" fill="none" xmlns="http://www.w3.org/2000/svg">
<path d="M20.4899 18.0992C20.1151 18.0992 19.7939 18.4264 19.7939 18.8077C19.7939 19.1896 20.1151 19.5164 20.4899 19.5164C20.8641 19.5164 21.1852 19.1896 21.1852 18.8077C21.1852 18.4264 20.8641 18.0992 20.4899 18.0992Z" fill="#2CA2FC"/>
<path d="M24.6089 25.7311C24.2347 25.7311 23.9141 26.0584 23.9141 26.4397C23.9141 26.8216 24.2347 27.1483 24.6089 27.1483C24.9836 27.1483 25.3048 26.8216 25.3048 26.4397C25.3048 26.0584 24.9836 25.7311 24.6089 25.7311Z" fill="#2CA2FC"/>
<path d="M6.20576 23.6594C6.20576 23.2781 5.88509 22.9508 5.51036 22.9508C5.13564 22.9508 4.81445 23.2781 4.81445 23.6594C4.81445 24.0412 5.13564 24.3685 5.51036 24.3685C5.88509 24.3685 6.20576 24.0412 6.20576 23.6594Z" fill="#2CA2FC"/>
<path d="M25.3044 9.1044C24.9302 9.1044 24.6084 9.43116 24.6084 9.81301C24.6084 10.1943 24.9302 10.5216 25.3044 10.5216C25.6791 10.5216 25.9997 10.1943 25.9997 9.81301C25.9456 9.37662 25.6791 9.1044 25.3044 9.1044Z" fill="#2CA2FC"/>
<path d="M21.1847 2.12637C20.8099 2.12637 20.4893 2.45366 20.4893 2.83497C20.4893 3.21682 20.8099 3.54358 21.1847 3.54358C21.5588 3.54358 21.88 3.21682 21.88 2.83497C21.88 2.45366 21.5588 2.12637 21.1847 2.12637Z" fill="#2CA2FC"/>
<path d="M2.0861 18.8077C2.0861 18.4264 1.7649 18.0992 1.39071 18.0992C1.01598 18.0992 0.695312 18.4264 0.695312 18.8077C0.695312 19.1896 1.01598 19.5164 1.39071 19.5164C1.7649 19.5164 2.0861 19.1896 2.0861 18.8077Z" fill="#2CA2FC"/>
<path d="M17.4938 25.6221L18.4568 24.6407L17.4938 23.6594L16.5312 24.6407L17.4938 25.6221Z" fill="#2CA2FC"/>
<path d="M9.04102 14.2289L10.0035 15.2102L10.9666 14.2289L10.0035 13.2475L9.04102 14.2289Z" fill="#2CA2FC"/>
<path d="M15.1396 12.157L16.1027 13.1383L17.1187 12.157L16.1027 11.1756L15.1396 12.157Z" fill="#2CA2FC"/>
<path d="M13 13.9561H14.3372V15.3187H13V13.9561Z" fill="#2CA2FC"/>
<path d="M12.8933 17.3905C8.82748 17.7178 5.18945 14.6101 4.86879 10.467H15.0865C15.4607 10.467 15.7819 10.1397 15.7819 9.75842C15.7819 9.37657 15.4607 9.04981 15.0865 9.04981H4.86879C4.97532 8.06846 5.24296 7.14166 5.67122 6.26941C10.3253 6.26941 16.2096 6.26941 19.0452 6.26941C21.4526 11.1211 18.1898 17.0086 12.8933 17.3905ZM15.0335 18.3718C14.8724 19.789 13.7493 20.8795 12.3045 20.8795C10.8607 20.8795 9.73652 19.789 9.57645 18.3718C11.395 18.9713 13.268 18.9713 15.0335 18.3718ZM17.1192 29.9287C17.1192 30.3106 16.7985 30.6373 16.4243 30.6373H7.54379C7.16906 30.6373 6.84788 30.3106 6.84788 29.9287C6.84788 29.5469 7.16906 29.2201 7.54379 29.2201H16.4243C16.7985 29.2201 17.1192 29.5469 17.1192 29.9287ZM20.0083 5.23351C19.9012 5.01586 19.6336 4.90675 19.42 4.90675H12.3045L14.7118 1.41775H17.7615C18.1357 1.41775 18.4569 1.091 18.4569 0.709149C18.4569 0.327303 18.1357 -3.67566e-07 17.7615 -3.67566e-07H14.3376C14.1234 -3.67566e-07 13.9099 0.109641 13.8023 0.272749L10.593 4.8522H10.2183C9.89708 2.5082 7.91796 0.709149 5.51061 0.709149C2.19374 0.709149 -0.107029 4.0345 1.01661 7.19621C1.12368 7.57805 1.55189 7.74116 1.87308 7.63206C2.24728 7.52351 2.40736 7.08712 2.30083 6.76036C1.8731 5.50626 2.19375 4.08905 3.10326 3.16225C5.02936 1.19955 8.3457 2.1809 8.88049 4.90675H5.24296C4.9753 4.90675 4.76172 5.01586 4.65466 5.23351C2.13971 9.64932 3.74515 15.3732 8.23866 17.7718V18.0991C8.23866 20.1709 9.73648 21.8608 11.6626 22.1876V27.8029H7.54379C6.15248 27.8029 5.13591 29.2201 5.6177 30.5828H0.695911C0.321186 30.5828 0 30.9096 0 31.2914C0 31.6733 0.321186 32 0.695911 32C3.95925 32 13.1604 32 16.3708 32C17.4939 32 18.4034 31.0737 18.4034 29.9287C18.4034 28.7838 17.4939 27.8569 16.3708 27.8569H13.0004V22.2421C14.9265 21.9154 16.4243 20.1709 16.4243 18.1536V17.8263C19.2594 16.3 21.1855 13.302 21.1855 9.81297C21.1855 8.17757 20.7572 6.59671 20.0083 5.23351Z" fill="#2CA2FC"/>
</svg>
