<svg width="32" height="32" viewBox="0 0 32 32" fill="none" xmlns="http://www.w3.org/2000/svg">
<path d="M25.369 30.5385C23.3997 30.5385 21.5951 29.4489 20.6652 27.6511L19.7359 25.745C19.9542 25.5814 20.0084 25.2544 19.8995 24.9279C18.8601 22.4766 20.0084 19.5892 22.4698 18.5541C24.9317 17.5195 27.8303 18.6631 28.8697 21.1144C28.9792 21.3869 29.3075 21.5505 29.5807 21.5505L30.2922 23.5117C31.4952 26.9431 28.9792 30.5385 25.369 30.5385ZM18.9149 10.3287C22.033 8.96702 25.5879 10.6012 26.7362 13.7606L28.3776 18.2821C26.7915 17.0289 24.6033 16.5389 22.5798 17.1379L21.4857 14.5231C21.3215 14.1421 20.9383 13.9786 20.5558 14.1421C20.1726 14.3051 20.0084 14.6867 20.1726 15.0682L21.2673 17.6825C19.3522 18.7721 18.2586 20.6244 18.0944 22.6396L16.0157 18.2821C14.4842 15.2857 15.7973 11.6363 18.9149 10.3287ZM11.3667 19.1537C10.1089 21.6589 7.15497 22.6941 4.58471 21.605C2.0681 20.5153 0.755607 17.6285 1.68552 15.0682L2.39595 13.107C2.66961 13.107 2.998 12.9435 3.10746 12.6709C4.14684 10.2197 7.04604 9.0755 9.50738 10.1106C11.9682 11.1458 13.117 14.0331 12.0782 16.4844C11.9682 16.7564 12.0229 17.0834 12.2418 17.3015L11.3667 19.1537ZM5.29514 5.20807C6.11613 2.86581 8.3038 1.34064 10.8193 1.34064C15.1958 1.34064 17.985 5.91615 16.0157 9.78412L13.8827 14.0876C13.7185 12.0719 12.5702 10.1657 10.7104 9.13055L11.8045 6.51575C11.9682 6.18869 11.8045 5.75315 11.4214 5.58963C11.0388 5.4261 10.6557 5.58963 10.4915 5.97119L9.39738 8.53095C7.37391 7.93189 5.18622 8.36743 3.59952 9.6751L5.29514 5.20807ZM31.6047 23.0756L28.0492 13.27C26.5725 9.0755 21.6499 7.22382 17.7113 9.34805C18.8054 5.9712 17.2193 2.04872 13.6638 0.578058C9.78051 -1.05613 5.35043 0.904571 3.98266 4.82705L0.37248 14.6867C-0.775819 17.955 0.810334 21.605 4.03738 22.9666C5.45934 23.5657 6.66237 23.5117 6.66237 23.5117C9.17898 23.5117 11.4761 22.1495 12.6244 19.8618L14.1017 16.9199C14.2111 17.6285 14.4295 18.2821 14.8126 18.9902L19.4622 28.3592C21.0478 31.5191 24.8222 32.8263 27.9945 31.4646C31.1668 29.9939 32.8083 26.3985 31.6047 23.0756Z" fill="#2CA2FC"/>
<path d="M19.7358 13.4881C20.1184 13.6516 20.5015 13.4881 20.6652 13.1071C20.8294 12.78 20.6652 12.3445 20.282 12.181C19.8995 12.0175 19.5163 12.181 19.3521 12.562C19.2427 12.9436 19.4069 13.3796 19.7358 13.4881Z" fill="#2CA2FC"/>
<path d="M12.2961 5.04519C12.6792 4.88166 12.8434 4.50009 12.6792 4.11853C12.515 3.79202 12.1319 3.57399 11.7487 3.73752C11.3661 3.90105 11.2019 4.2826 11.3661 4.66363C11.5303 4.99068 11.9135 5.15367 12.2961 5.04519Z" fill="#2CA2FC"/>
<path d="M20.3912 3.41049C20.7738 3.2475 20.938 2.86594 20.7738 2.48492C20.6101 2.15787 20.2276 1.93983 19.8444 2.10335C19.4619 2.26688 19.2977 2.6479 19.4618 3.02946C19.6255 3.35597 20.0634 3.52004 20.3912 3.41049Z" fill="#2CA2FC"/>
<path d="M1.73899 25.745C1.41114 25.9079 1.19275 26.2895 1.3564 26.6711C1.5206 27.0521 1.90319 27.2156 2.28632 27.0521C2.61472 26.8886 2.83311 26.5075 2.66891 26.126C2.50525 25.7449 2.12266 25.5814 1.73899 25.745Z" fill="#2CA2FC"/>
<path d="M12.8977 24.3284C12.5698 24.4919 12.3509 24.8735 12.5145 25.2545C12.6793 25.6361 13.0619 25.7996 13.4444 25.6361C13.8276 25.4726 13.9918 25.091 13.8276 24.71C13.6634 24.3829 13.2803 24.1649 12.8977 24.3284Z" fill="#2CA2FC"/>
<path d="M29.4727 9.77222L30.7928 9.24494L31.3216 10.5596L30.0021 11.0869L29.4727 9.77222Z" fill="#2CA2FC"/>
<path d="M7.26402 27.7604C7.04563 27.7604 6.93565 27.5968 6.93565 27.4339C6.93565 27.2703 7.09982 27.1068 7.26402 27.1068C7.42822 27.1068 7.59189 27.2703 7.59189 27.4339C7.59189 27.5968 7.42822 27.7604 7.26402 27.7604ZM7.26402 25.6362C6.27937 25.6362 5.51367 26.3987 5.51367 27.3794C5.51367 28.3594 6.27937 29.1226 7.26402 29.1226C8.24866 29.1226 9.01439 28.3594 9.01439 27.3794C9.01439 26.4532 8.19393 25.6362 7.26402 25.6362Z" fill="#2CA2FC"/>
<path d="M27.8311 4.11863C28.2143 4.11863 28.5427 4.44569 28.5427 4.82725C28.5427 5.20827 28.2143 5.53532 27.8311 5.53532C27.4486 5.53532 27.1202 5.20827 27.1202 4.82725C27.1202 4.44569 27.4486 4.11863 27.8311 4.11863ZM27.8311 6.89697C28.98 6.89697 29.9099 5.9714 29.9099 4.82725C29.9099 3.6831 28.98 2.75699 27.8311 2.75699C26.6828 2.75699 25.7529 3.6831 25.7529 4.82725C25.7529 5.9714 26.6828 6.89697 27.8311 6.89697Z" fill="#2CA2FC"/>
</svg>
