<svg width="29" height="32" viewBox="0 0 29 32" fill="none" xmlns="http://www.w3.org/2000/svg">
<path d="M7.08989 13.8175V11.3661H9.19463C9.58217 11.3661 9.91457 11.0316 9.91457 10.6419C9.91457 10.2516 9.58217 9.91766 9.19463 9.91766H7.08989V9.19288C9.13938 9.19288 13.2376 9.19288 17.0033 9.19288C17.3912 9.19288 17.7231 8.85893 17.7231 8.46922C17.7231 8.07895 17.3912 7.74444 17.0033 7.74444H15.6189V3.89978C15.7852 3.89978 18.8864 3.89978 18.7201 3.89978V8.46922C18.7201 8.85893 19.0526 9.19288 19.4406 9.19288H22.708V13.8175C14.7328 10.9764 15.0653 11.1431 15.0093 11.1431C14.899 11.0873 14.7328 11.1431 14.5665 11.1431L7.08989 13.8175ZM9.91457 3.56583H12.0191C12.4066 3.56583 12.7389 3.23132 12.7389 2.84161C12.7389 2.45134 12.4066 2.11739 12.0191 2.11739H9.91457V1.39261H14.1234C14.1234 2.89736 14.1234 6.35176 14.1234 7.8002H9.91457V3.56583ZM18.3882 2.11739H21.9327V7.8002H20.105V3.28706C20.105 2.89735 19.7725 2.5634 19.3851 2.5634H18.3882V2.11739ZM20.4924 27.0223H15.5635V12.8145C19.6063 14.2635 22.708 15.3775 23.6496 15.712C23.4279 16.0459 23.2062 16.4362 22.9292 16.9932L18.9972 15.712C18.6098 15.6005 18.2219 15.7672 18.1111 16.1574C18.0002 16.5477 18.1665 16.938 18.5539 17.0495L22.3201 18.3307C21.434 20.3919 20.5478 23.3451 20.4924 27.0223ZM7.36704 18.2748L11.1329 16.9932C11.5206 16.8822 11.6869 16.4362 11.5759 16.1022C11.4653 15.712 11.0223 15.5447 10.6898 15.6562L6.75766 16.9932C6.48073 16.492 6.25933 16.0459 6.03772 15.712C7.14542 15.3223 12.0747 13.5388 14.1234 12.8145V27.0223H9.19463C9.19463 23.3451 8.30838 20.3919 7.36704 18.2748ZM7.81006 27.6907C7.81006 28.0806 8.14229 28.415 8.53 28.415C8.58552 28.415 21.8219 28.415 21.2677 28.415C21.7111 28.415 21.9876 28.0806 21.9876 27.6345C21.8219 20.559 25.3659 15.8235 25.3659 15.7672C25.643 15.3775 25.4767 14.8205 25.0339 14.6532L24.037 14.3187V8.52442C24.037 8.13471 23.7045 7.8002 23.3171 7.8002V1.44892C23.3171 1.05865 22.9846 0.724144 22.5972 0.724144H17.6683C17.2803 0.724144 16.9478 1.05865 16.9478 1.44892V2.5634H15.5635V0.724144C15.5635 0.333881 15.231 -7.62939e-05 14.8436 -7.62939e-05H9.19463C8.8067 -7.62939e-05 8.47447 0.333881 8.47447 0.724144V7.85595H6.37017C5.98241 7.85595 5.65023 8.19046 5.65023 8.58017V14.3187L4.70867 14.6532C4.2656 14.8205 4.09951 15.3775 4.37622 15.7672C4.43174 15.8235 7.97615 20.6148 7.81006 27.6907Z" fill="#FDA93F"/>
<path d="M25.4769 29.1391C25.0896 29.1391 24.7571 29.4735 24.7571 29.8638C24.7571 30.2537 24.4251 30.5875 24.0372 30.5875C23.6498 30.5875 23.3173 30.2537 23.3173 29.8638C23.3173 29.4735 22.9848 29.1391 22.5974 29.1391C22.2095 29.1391 21.8775 29.4735 21.8775 29.8638C21.8775 30.2537 21.545 30.5875 21.1576 30.5875C20.7697 30.5875 20.4372 30.2537 20.4372 29.8638C20.4372 29.4735 20.1052 29.1391 19.7173 29.1391C19.3299 29.1391 18.9974 29.4735 18.9974 29.8638C18.9974 30.2537 18.6655 30.5875 18.2775 30.5875C17.8902 30.5875 17.5576 30.2537 17.5576 29.8638C17.5576 29.4735 17.2251 29.1391 16.8377 29.1391C16.4498 29.1391 16.1179 29.4735 16.1179 29.8638C16.1179 30.2537 15.7854 30.5875 15.3974 30.5875C15.0095 30.5875 14.6775 30.2537 14.6775 29.8638C14.6775 29.4735 14.3456 29.1391 13.9575 29.1391C13.5701 29.1391 13.2378 29.4735 13.2378 29.8638C13.2378 30.2537 12.9051 30.5875 12.5177 30.5875C12.13 30.5875 11.7977 30.2537 11.7977 29.8638C11.7977 29.4735 11.4655 29.1391 11.0778 29.1391C10.69 29.1391 10.3576 29.4735 10.3576 29.8638C10.3576 30.2537 10.0254 30.5875 9.63789 30.5875C9.25013 30.5875 8.9179 30.2537 8.9179 29.8638C8.9179 29.4735 8.58572 29.1391 8.19774 29.1391C7.81025 29.1391 7.4778 29.4735 7.4778 29.8638C7.4778 30.2537 7.14561 30.5875 6.75785 30.5875C6.37036 30.5875 6.03791 30.2537 6.03791 29.8638C6.03791 29.4735 5.70551 29.1391 5.31819 29.1391C4.93026 29.1391 4.59803 29.4735 4.59803 29.8638C4.59803 30.2537 4.2658 30.5875 3.87809 30.5875C3.49038 30.5875 3.15815 30.2537 3.15815 29.8638C3.15815 29.4735 2.82569 29.1391 2.43798 29.1391C2.05022 29.1391 1.71826 29.4735 1.71826 29.8638C1.71826 31.702 3.87809 32.7051 5.26266 31.4238C6.09322 32.1475 7.31171 32.1475 8.08718 31.4238C8.9179 32.1475 10.1364 32.1475 10.9115 31.4238C11.7422 32.1475 12.9052 32.1475 13.7361 31.4238C14.5113 32.1475 15.7299 32.1475 16.5607 31.4238C17.3914 32.1475 18.61 32.1475 19.3853 31.4238C20.2161 32.1475 21.4342 32.1475 22.2095 31.4238C23.5384 32.6493 25.754 31.702 25.754 29.8638C26.142 29.4735 25.8649 29.1391 25.4769 29.1391Z" fill="#FDA93F"/>
<path d="M25.92 27.078C25.5875 27.2447 25.3659 27.6343 25.5321 28.0246C25.6984 28.4149 26.0863 28.5822 26.4737 28.4149C26.8616 28.2477 27.0273 27.8579 26.8616 27.4676C26.6954 27.078 26.252 26.9107 25.92 27.078Z" fill="#FDA93F"/>
<path d="M2.60401 19.2216C2.27177 19.3889 2.05016 19.7785 2.21652 20.1688C2.38283 20.5584 2.77032 20.7258 3.15808 20.5584C3.49031 20.3913 3.71193 20.0014 3.54578 19.6112C3.37948 19.2774 2.93668 19.1101 2.60401 19.2216Z" fill="#FDA93F"/>
<path d="M28.2462 17.4944C28.0799 17.1048 27.6925 16.9381 27.3046 17.1048C26.9172 17.2719 26.751 17.6622 26.9172 18.052C27.0829 18.4423 27.4709 18.6094 27.8582 18.4423C28.1908 18.275 28.357 17.8847 28.2462 17.4944Z" fill="#FDA93F"/>
<path d="M21.4887 11.3104C21.8766 11.1432 22.0423 10.7529 21.8766 10.3632C21.7104 9.97293 21.3224 9.80623 20.935 9.97293C20.5471 10.1402 20.3814 10.5304 20.5471 10.9202C20.7134 11.3104 21.1013 11.4777 21.4887 11.3104Z" fill="#FDA93F"/>
<path d="M19.3854 11.3104C19.7728 11.1432 19.939 10.7529 19.7728 10.3632C19.6065 9.97293 19.2192 9.80623 18.8312 9.97293C18.4438 10.1402 18.2776 10.5304 18.4438 10.9202C18.6101 11.3104 18.9975 11.4777 19.3854 11.3104Z" fill="#FDA93F"/>
<path d="M28.5226 12.7585C28.91 12.5918 29.0762 12.2015 28.91 11.8113C28.7443 11.4216 28.3563 11.2543 27.969 11.4216C27.581 11.5888 27.4148 11.9785 27.581 12.3688C27.7473 12.7033 28.1901 12.87 28.5226 12.7585Z" fill="#FDA93F"/>
<path d="M2.54828 10.419L1.21924 10.9765L1.77282 12.3135L3.04661 11.7565L2.54828 10.419Z" fill="#FDA93F"/>
<path d="M24.0505 21.153L25.3356 20.6352L25.8508 21.9286L24.5658 22.4463L24.0505 21.153Z" fill="#FDA93F"/>
<path d="M25.4929 4.09381L26.8295 3.55451L27.3656 4.89918L26.029 5.43848L25.4929 4.09381Z" fill="#FDA93F"/>
<path d="M28.9656 27.4676C28.7993 27.078 28.4119 26.9107 28.024 27.078C27.692 27.2447 27.4704 27.6343 27.6366 28.0246C27.8023 28.4149 28.1903 28.5822 28.5776 28.4149C28.9101 28.2477 29.0764 27.8023 28.9656 27.4676Z" fill="#FDA93F"/>
<path d="M0.444248 29.919C0.111794 30.0863 -0.109605 30.4765 0.0564849 30.8662C0.22263 31.2564 0.610338 31.4237 0.9981 31.2564C1.33028 31.0891 1.55168 30.699 1.38581 30.3092C1.21972 29.919 0.831955 29.7518 0.444248 29.919Z" fill="#FDA93F"/>
</svg>
