<svg width="32" height="32" viewBox="0 0 32 32" fill="none" xmlns="http://www.w3.org/2000/svg">
<path d="M26.7955 28.6077C26.3866 28.6077 26.0361 28.9619 26.0361 29.3751C26.0361 29.9647 25.511 30.4953 24.9274 30.4953C24.2854 30.4953 23.8181 29.9647 23.8181 29.3751C23.8181 28.9619 23.4676 28.6077 23.0592 28.6077C22.6503 28.6077 22.3004 28.9619 22.3004 29.3751C22.3004 29.9647 21.7747 30.4953 21.1911 30.4953C20.6075 30.4953 20.0818 29.9647 20.0818 29.316C20.0818 28.9029 19.7313 28.5493 19.3229 28.5493C18.914 28.5493 18.5641 28.9029 18.5641 29.316C18.5641 29.9057 18.0389 30.4363 17.4548 30.4363C16.8712 30.4363 16.3455 29.9057 16.3455 29.316C16.3455 28.9029 15.9955 28.5493 15.5866 28.5493C15.1783 28.5493 14.8278 28.9029 14.8278 29.316C14.8278 29.9057 14.3026 30.4363 13.7185 30.4363C13.0765 30.4363 12.6097 29.9057 12.6097 29.316C12.6097 28.9029 12.2592 28.5493 11.8509 28.5493C11.442 28.5493 11.0921 28.9029 11.0921 29.316C11.0921 29.9057 10.5663 30.4363 9.98275 30.4363C9.34018 30.4363 8.87343 29.9057 8.87343 29.316C8.87343 28.9029 8.52293 28.5493 8.1146 28.5493C7.70569 28.5493 7.35578 28.9029 7.35578 29.316C7.35578 29.9057 6.83003 30.4363 6.24644 30.4363C5.60445 30.4363 5.13713 29.9057 5.13713 29.316C5.13713 28.9029 4.78722 28.5493 4.3783 28.5493C3.96939 28.5493 3.7363 28.9029 3.7363 29.316C3.7363 29.9057 3.21056 30.4363 2.62698 30.4363C2.04282 30.4363 1.51766 29.9057 1.51766 29.316C1.51766 28.9029 1.16716 28.5493 0.758828 28.5493C0.349917 28.5493 0 28.9029 0 29.316C0 30.7905 1.16716 31.9703 2.62698 31.9703C3.38581 31.9703 4.02781 31.6752 4.49514 31.2036C5.54604 32.2655 7.18052 32.2655 8.23143 31.2036C9.28234 32.2655 10.9163 32.2655 11.9672 31.2036C13.0181 32.2655 14.6525 32.2655 15.7035 31.2036C16.7544 32.2655 18.3889 32.2655 19.4398 31.2036C20.4907 32.2655 22.1252 32.2655 23.1761 31.2036C23.6428 31.6752 24.2854 31.9703 25.0442 31.9703C26.5035 31.9703 27.6712 30.7905 27.6712 29.316C27.5544 28.9029 27.2039 28.6077 26.7955 28.6077Z" fill="#2CA2FC"/>
<path d="M7.0635 27.841C7.82233 27.841 8.4649 27.5458 8.93165 27.0742C9.98256 28.1361 11.617 28.1361 12.6679 27.0742C13.1347 27.5458 13.7773 27.841 14.5361 27.841C15.9953 27.841 17.1631 26.6616 17.1631 25.1866C17.1631 24.7741 16.8126 24.4199 16.4043 24.4199C15.9953 24.4199 15.6448 24.7741 15.6448 25.1866C15.6448 25.8359 15.1197 26.3075 14.5361 26.3075C13.9519 26.3075 13.4268 25.7769 13.4268 25.1866C13.4268 24.7741 13.0763 24.4199 12.6679 24.4199C12.259 24.4199 11.9091 24.7741 11.9091 25.1866C11.9091 25.8359 11.3834 26.3075 10.7998 26.3075C10.2156 26.3075 9.69047 25.7769 9.69047 25.1866C9.69047 24.7741 9.33999 24.4199 8.93165 24.4199C8.52274 24.4199 8.17282 24.7741 8.17282 25.1866C8.17282 25.8359 7.64708 26.3075 7.0635 26.3075C6.47934 26.3075 5.95418 25.7769 5.95418 25.1866C5.95418 24.7741 5.60426 24.4199 5.19534 24.4199C4.78701 24.4199 4.43652 24.7741 4.43652 25.1866C4.43652 26.6616 5.60426 27.841 7.0635 27.841Z" fill="#2CA2FC"/>
<path d="M7.82211 23.2991C8.58094 23.2991 9.22352 23.0039 9.69026 22.5323C10.157 23.0039 10.7996 23.2991 11.5584 23.2991C13.0177 23.2991 14.1854 22.1198 14.1854 20.6448C14.1854 20.2322 13.8349 19.878 13.4266 19.878C13.0177 19.878 12.6677 20.2322 12.6677 20.6448C12.6677 21.235 12.142 21.7656 11.5584 21.7656C10.9158 21.7656 10.4491 21.235 10.4491 20.6448C10.4491 20.2322 10.0992 19.878 9.69026 19.878C9.28193 19.878 8.93144 20.2322 8.93144 20.6448C8.93144 21.235 8.40569 21.7656 7.82211 21.7656C7.18011 21.8247 6.65437 21.294 6.65437 20.7038C6.65437 20.2906 6.30446 19.9371 5.89555 19.9371C5.48722 19.9371 5.13672 20.2906 5.13672 20.7038C5.19513 22.1198 6.36287 23.2991 7.82211 23.2991Z" fill="#2CA2FC"/>
<path d="M20.0811 25.1867C20.0811 24.7742 19.7306 24.42 19.3223 24.42C18.9134 24.42 18.5635 24.7742 18.5635 25.1867C18.5635 26.6618 19.7306 27.8411 21.1905 27.8411C22.6497 27.8411 23.8174 26.6618 23.8174 25.1867C23.8174 24.7742 23.4669 24.42 23.0586 24.42C22.6497 24.42 22.2998 24.7742 22.2998 25.1867C22.2998 25.836 21.774 26.3076 21.1905 26.3076C20.6069 26.3076 20.0811 25.836 20.0811 25.1867Z" fill="#2CA2FC"/>
<path d="M10.6822 4.48286C11.0911 4.30579 11.2658 3.8932 11.0911 3.48004C10.9153 3.12648 10.507 2.89038 10.0987 3.06745C9.68974 3.24452 9.51449 3.65711 9.68974 4.07028C9.86499 4.42384 10.3317 4.60091 10.6822 4.48286Z" fill="#2CA2FC"/>
<path d="M3.0352 10.0866C3.21044 10.4997 3.61935 10.6762 4.02768 10.4997C4.37818 10.3227 4.61127 9.90951 4.4366 9.49692C4.26135 9.14278 3.85243 8.9067 3.4441 9.08377C3.03519 9.26084 2.86053 9.67342 3.0352 10.0866Z" fill="#2CA2FC"/>
<path d="M7.19238 15.3842L8.60073 14.8132L9.16579 16.2368L7.75688 16.8077L7.19238 15.3842Z" fill="#2CA2FC"/>
<path d="M2.97677 3.65714L2.39319 2.24174L1.05078 2.8314L1.57594 4.18835L2.97677 3.65714Z" fill="#2CA2FC"/>
<path d="M26.3281 18.9343L26.9123 20.2906L28.3131 19.76L27.7295 18.3446L26.3281 18.9343Z" fill="#2CA2FC"/>
<path d="M2.68506 20.3503C2.33457 20.5268 2.10149 20.94 2.27615 21.3526C2.4514 21.7657 2.86031 21.9428 3.26864 21.7657C3.61914 21.5887 3.85223 21.1761 3.67756 20.7629C3.50231 20.4094 3.0934 20.2323 2.68506 20.3503Z" fill="#2CA2FC"/>
<path d="M25.3359 25.8359C25.5112 26.2485 25.9201 26.4256 26.3284 26.2485C26.7373 26.0714 26.9126 25.6589 26.7373 25.2457C26.5621 24.8325 26.1537 24.656 25.7448 24.8325C25.3359 25.0102 25.2191 25.4818 25.3359 25.8359Z" fill="#2CA2FC"/>
<path d="M28.7211 28.6668C28.3128 28.8438 28.1375 29.257 28.3128 29.6696C28.488 30.0828 28.8964 30.2598 29.3053 30.0827C29.7136 29.9057 29.8889 29.4931 29.7136 29.0799C29.5389 28.6668 29.13 28.4903 28.7211 28.6668Z" fill="#2CA2FC"/>
<path d="M31.9314 29.0799C31.7561 28.6668 31.3478 28.4903 30.9389 28.6668C30.5306 28.8438 30.3553 29.257 30.5306 29.6696C30.7058 30.0828 31.1141 30.2598 31.5231 30.0827C31.9314 29.9057 32.1066 29.4335 31.9314 29.0799Z" fill="#2CA2FC"/>
<path d="M22.3 5.24956C24.3434 5.24956 26.0358 6.96008 26.0358 9.02474C26.0358 11.0894 24.3434 12.7999 22.3 12.7999C20.2566 12.7999 18.5637 11.0894 18.5637 9.02474C18.5637 6.96008 20.2566 5.24956 22.3 5.24956ZM22.3 14.2749C25.1607 14.2749 27.4956 11.9151 27.4956 9.02474C27.4956 6.13434 25.1607 3.77514 22.3 3.77514C19.4394 3.77514 17.1045 6.13434 17.1045 9.02474C17.1045 11.9151 19.4394 14.2749 22.3 14.2749Z" fill="#2CA2FC"/>
<path d="M22.3006 8.25806C22.7089 8.25806 23.0594 8.61221 23.0594 9.02479C23.0594 9.43795 23.4093 9.7915 23.8182 9.7915C24.2266 9.7915 24.5771 9.43795 24.5771 9.02479C24.5771 7.78588 23.5846 6.78364 22.3584 6.78364C21.9501 6.78364 21.5996 7.13721 21.5996 7.55037C21.5996 7.96295 21.8917 8.25806 22.3006 8.25806Z" fill="#2CA2FC"/>
<path d="M22.3004 3.00842C22.7087 3.00842 23.0593 2.65427 23.0593 2.24169V0.76669C23.0593 0.35411 22.7087 -3.86986e-05 22.3004 -3.86986e-05C21.8915 -3.86986e-05 21.541 0.35411 21.541 0.76669V2.24169C21.5994 2.65427 21.8915 3.00842 22.3004 3.00842Z" fill="#2CA2FC"/>
<path d="M23.0593 17.2828V15.8084C23.0593 15.3952 22.7087 15.0417 22.3004 15.0417C21.8915 15.0417 21.541 15.3952 21.541 15.8084V17.2828C21.541 17.696 21.8915 18.0496 22.3004 18.0496C22.7087 18.0496 23.0593 17.696 23.0593 17.2828Z" fill="#2CA2FC"/>
<path d="M27.6118 4.778L28.6627 3.71617C28.9542 3.42105 28.9542 2.94945 28.6627 2.65433C28.3706 2.35921 27.9033 2.35921 27.6118 2.65433L26.5609 3.71617C26.2688 4.01128 26.2688 4.48288 26.5609 4.778C26.8524 5.07253 27.3197 5.07253 27.6118 4.778Z" fill="#2CA2FC"/>
<path d="M17.0462 13.2716L15.9959 14.3334C15.5286 14.8056 15.8791 15.6313 16.5211 15.6313C16.6963 15.6313 16.93 15.5723 17.0462 15.3953L18.0971 14.3334C18.3892 14.0389 18.3892 13.5667 18.0971 13.2716C17.8056 12.977 17.3383 12.977 17.0462 13.2716Z" fill="#2CA2FC"/>
<path d="M31.2322 9.02479C31.2322 8.61221 30.8817 8.25806 30.4734 8.25806H28.9551C28.5468 8.25806 28.1963 8.61221 28.1963 9.02479C28.1963 9.43795 28.5468 9.7915 28.9551 9.7915H30.4734C30.9401 9.7915 31.2322 9.43795 31.2322 9.02479Z" fill="#2CA2FC"/>
<path d="M14.1268 9.7915H15.586C15.995 9.7915 16.3449 9.43795 16.3449 9.02479C16.3449 8.61221 15.995 8.25806 15.586 8.25806H14.0684C13.6595 8.25806 13.3096 8.61221 13.3096 9.02479C13.368 9.43795 13.7179 9.7915 14.1268 9.7915Z" fill="#2CA2FC"/>
<path d="M26.5609 13.2716C26.2688 13.5667 26.2688 14.0389 26.5609 14.3334L27.6118 15.3953C27.787 15.5723 27.9617 15.6313 28.1369 15.6313C28.7795 15.6313 29.1294 14.8056 28.6627 14.3334L27.6118 13.2716C27.3197 12.977 26.8524 12.977 26.5609 13.2716Z" fill="#2CA2FC"/>
<path d="M17.0458 4.77794C17.2216 4.95501 17.3963 5.01404 17.5715 5.01404C18.2135 5.01404 18.564 4.18829 18.0967 3.71611L17.0458 2.65427C16.7543 2.35915 16.2869 2.35915 15.9954 2.65427C15.7033 2.94939 15.7033 3.42099 15.9954 3.71611L17.0458 4.77794Z" fill="#2CA2FC"/>
</svg>
