<svg width="33" height="32" viewBox="0 0 33 32" fill="none" xmlns="http://www.w3.org/2000/svg">
<path d="M16.0276 9.31273C19.7096 9.31273 22.7419 12.3445 22.7419 16.0265C22.7419 19.7086 19.7096 22.7408 16.0276 22.7408C12.2914 22.7408 9.31323 19.7086 9.31323 16.0265C9.31323 12.3445 12.3455 9.31273 16.0276 9.31273Z" fill="white"/>
<path d="M16.028 19.7089C14.5122 19.7089 13.3207 18.5174 13.3207 17.0015C13.3207 16.6226 13.6456 16.2976 14.0245 16.2976C14.4035 16.2976 14.7284 16.6226 14.7284 17.0015C14.7284 17.7594 15.3242 18.3557 16.0821 18.3557C16.84 18.3557 17.4358 17.7594 17.4358 17.0015C17.4358 16.6226 17.7607 16.2976 18.1396 16.2976C18.5191 16.2976 18.8435 16.6226 18.8435 17.0015C18.7354 18.4639 17.5439 19.7089 16.028 19.7089Z" fill="#2CA2FC"/>
<path d="M16.0273 9.96279C12.6702 9.96279 9.96281 12.6701 9.96281 16.0268C9.96281 19.3299 12.6702 22.0372 16.0273 22.0372C19.3304 22.0372 22.0378 19.3299 22.0378 16.0268C22.0918 12.7242 19.3845 9.96279 16.0273 9.96279ZM16.0273 23.4449C11.9663 23.4449 8.60913 20.1424 8.60913 16.0814C8.60913 12.0203 11.9122 8.66317 16.0273 8.66317C20.0884 8.66317 23.3914 11.9657 23.3914 16.0814C23.4455 20.0878 20.0884 23.4449 16.0273 23.4449Z" fill="#2CA2FC"/>
<path d="M16.0279 7.36365C15.6489 7.36365 15.324 7.03875 15.324 6.65978V0.703393C15.324 0.324428 15.6489 5.19753e-05 16.0279 5.19753e-05C16.4068 5.19753e-05 16.7317 0.324428 16.7317 0.703393V6.65978C16.7317 7.03875 16.4068 7.36365 16.0279 7.36365Z" fill="#2CA2FC"/>
<path d="M22.6333 10.071C22.4712 10.071 22.309 10.017 22.1462 9.85426C21.8754 9.58342 21.8754 9.1504 22.1462 8.88009L26.3695 4.65633C26.6403 4.38549 27.0733 4.38549 27.3442 4.65633C27.615 4.92717 27.615 5.3602 27.3442 5.63104L23.121 9.85426C23.0123 10.017 22.7961 10.071 22.6333 10.071Z" fill="#2CA2FC"/>
<path d="M31.3516 16.731H25.3952C25.0162 16.731 24.6913 16.4055 24.6913 16.0266C24.6913 15.6476 25.0162 15.3232 25.3952 15.3232H31.3516C31.7305 15.3232 32.0554 15.6476 32.0554 16.0266C32.0014 16.4055 31.7305 16.731 31.3516 16.731Z" fill="#2CA2FC"/>
<path d="M26.8571 27.5598C26.6944 27.5598 26.5322 27.5058 26.3695 27.3436L22.1462 23.1198C21.8754 22.849 21.8754 22.4165 22.1462 22.1456C22.4171 21.8748 22.8501 21.8748 23.121 22.1456L27.3442 26.3683C27.615 26.6392 27.615 27.0727 27.3442 27.3436C27.182 27.4517 27.0193 27.5598 26.8571 27.5598Z" fill="#2CA2FC"/>
<path d="M16.0279 32C15.6489 32 15.324 31.6751 15.324 31.2961V25.3403C15.324 24.9613 15.6489 24.6364 16.0279 24.6364C16.4068 24.6364 16.7317 24.9613 16.7317 25.3403V31.2961C16.7317 31.7297 16.4068 32 16.0279 32Z" fill="#2CA2FC"/>
<path d="M5.19864 27.5598C5.03646 27.5598 4.87374 27.5058 4.71155 27.3436C4.44071 27.0727 4.44071 26.6392 4.71155 26.3683L8.93477 22.1456C9.20561 21.8748 9.63864 21.8748 9.90948 22.1456C10.1803 22.4165 10.1803 22.849 9.90948 23.1198L5.68573 27.3436C5.52354 27.4517 5.36083 27.5598 5.19864 27.5598Z" fill="#2CA2FC"/>
<path d="M6.65973 16.731H0.70387C0.324905 16.731 0 16.4055 0 16.0266C0 15.6476 0.324905 15.3232 0.70387 15.3232H6.65973C7.03923 15.3232 7.36413 15.6476 7.36413 16.0266C7.36413 16.4055 7.03923 16.731 6.65973 16.731Z" fill="#2CA2FC"/>
<path d="M9.42185 10.071C9.25966 10.071 9.09695 10.017 8.93477 9.85426L4.71155 5.63104C4.44071 5.3602 4.44071 4.92717 4.71155 4.65633C4.98186 4.38549 5.41542 4.38549 5.68573 4.65633L9.90948 8.88009C10.1803 9.1504 10.1803 9.58342 9.90948 9.85426C9.74676 10.017 9.58457 10.071 9.42185 10.071Z" fill="#2CA2FC"/>
<path d="M18.4643 7.68823C18.4103 7.68823 18.3562 7.68823 18.3022 7.68823C17.9232 7.58011 17.7064 7.20114 17.8145 6.8757L18.573 4.00617C18.6811 3.6272 19.0601 3.41095 19.385 3.51907C19.764 3.6272 19.9802 4.00617 19.8721 4.33107L19.1141 7.20114C19.006 7.47198 18.7352 7.68823 18.4643 7.68823Z" fill="#2CA2FC"/>
<path d="M20.6842 8.60913C20.5761 8.60913 20.468 8.55453 20.3593 8.50101C20.035 8.33829 19.9263 7.90473 20.089 7.58036L21.6049 4.98113C21.7676 4.65622 22.2006 4.5481 22.5255 4.71082C22.8504 4.87247 22.9586 5.30603 22.7964 5.63093L21.28 8.23016C21.1719 8.501 20.9551 8.60913 20.6842 8.60913Z" fill="#2CA2FC"/>
<path d="M24.1494 12.0203C23.9326 12.0203 23.6617 11.9121 23.5536 11.6948C23.3914 11.3705 23.4996 10.9369 23.8245 10.7747L26.4237 9.25885C26.7481 9.09613 27.1816 9.20425 27.3438 9.52915C27.506 9.85406 27.3979 10.2871 27.073 10.4498L24.4737 11.9657C24.3656 11.9657 24.2575 12.0203 24.1494 12.0203Z" fill="#2CA2FC"/>
<path d="M25.0707 14.2948C24.7453 14.2948 24.4744 14.078 24.4204 13.8072C24.3122 13.4282 24.529 13.0492 24.908 12.9946L27.7775 12.2367C28.1565 12.1286 28.536 12.3448 28.5901 12.7243C28.6982 13.1033 28.4814 13.4823 28.1024 13.5363L25.2329 14.2948C25.1788 14.2948 25.1248 14.2948 25.0707 14.2948Z" fill="#2CA2FC"/>
<path d="M27.9402 19.8716C27.8862 19.8716 27.8316 19.8716 27.7775 19.8716L24.908 19.1137C24.529 19.0055 24.3122 18.6266 24.4204 18.3011C24.529 17.9222 24.908 17.7059 25.2329 17.814L28.1024 18.572C28.4814 18.6801 28.6982 19.0591 28.5901 19.3845C28.536 19.7089 28.2111 19.8716 27.9402 19.8716Z" fill="#2CA2FC"/>
<path d="M26.6942 22.9041C26.5861 22.9041 26.478 22.8495 26.3693 22.7959L23.7706 21.2795C23.4457 21.1173 23.3371 20.6838 23.4998 20.3589C23.662 20.034 24.095 19.9259 24.4199 20.088L27.0191 21.6044C27.344 21.7672 27.4522 22.1996 27.29 22.5251C27.1818 22.7413 26.9651 22.9041 26.6942 22.9041Z" fill="#2CA2FC"/>
<path d="M22.2006 27.3975C21.9844 27.3975 21.7136 27.2893 21.6049 27.0731L20.089 24.4739C19.9263 24.149 20.035 23.7159 20.3593 23.5537C20.6842 23.391 21.1178 23.4992 21.28 23.8241L22.7964 26.4233C22.9586 26.7477 22.8504 27.1812 22.5255 27.3439C22.4174 27.3439 22.3093 27.3975 22.2006 27.3975Z" fill="#2CA2FC"/>
<path d="M19.2223 28.5889C18.8979 28.5889 18.6271 28.3726 18.573 28.1018L17.8145 25.2317C17.7064 24.8527 17.9232 24.4738 18.3022 24.4197C18.6811 24.3116 19.0601 24.5278 19.1141 24.9073L19.8721 27.7769C19.9802 28.1558 19.764 28.5348 19.385 28.5889C19.3309 28.5889 19.2769 28.5889 19.2223 28.5889Z" fill="#2CA2FC"/>
<path d="M12.8328 28.5889C12.7787 28.5889 12.7247 28.5889 12.6706 28.5889C12.2917 28.4807 12.0749 28.1018 12.1835 27.7769L12.9415 24.9073C13.0496 24.5278 13.4286 24.3116 13.7535 24.4197C14.1324 24.5278 14.3492 24.9073 14.2411 25.2317L13.4826 28.1018C13.4286 28.4267 13.1577 28.5889 12.8328 28.5889Z" fill="#2CA2FC"/>
<path d="M9.85518 27.3975C9.74652 27.3975 9.63839 27.3439 9.53027 27.2893C9.20537 27.1272 9.09671 26.6941 9.25943 26.3687L10.7758 23.77C10.938 23.4451 11.371 23.337 11.6959 23.4991C12.0208 23.6619 12.129 24.0949 11.9668 24.4198L10.4509 27.0185C10.2882 27.2893 10.0714 27.3975 9.85518 27.3975Z" fill="#2CA2FC"/>
<path d="M5.36025 22.9041C5.14401 22.9041 4.87316 22.7959 4.76504 22.5786C4.60232 22.2542 4.71098 21.8207 5.03588 21.6585L7.63458 20.1426C7.95948 19.9799 8.39304 20.088 8.55523 20.4129C8.71741 20.7378 8.60928 21.1709 8.28438 21.3336L5.68515 22.7959C5.57703 22.8495 5.46891 22.9041 5.36025 22.9041Z" fill="#2CA2FC"/>
<path d="M4.11571 19.8716C3.7908 19.8716 3.51996 19.6548 3.4659 19.3845C3.35777 19.0055 3.57455 18.6266 3.95352 18.572L6.82306 17.814C7.20203 17.7059 7.58099 17.9222 7.63505 18.3011C7.74371 18.6801 7.52692 19.0591 7.14796 19.1137L4.27842 19.8716C4.22382 19.8716 4.16977 19.8716 4.11571 19.8716Z" fill="#2CA2FC"/>
<path d="M6.98577 14.2948C6.93117 14.2948 6.87712 14.2948 6.82306 14.2948L3.95352 13.5363C3.57455 13.4282 3.35777 13.0492 3.4659 12.7243C3.57456 12.3448 3.95352 12.1286 4.27842 12.2367L7.14796 12.9946C7.52692 13.1033 7.74371 13.4823 7.63505 13.8072C7.58099 14.078 7.31067 14.2948 6.98577 14.2948Z" fill="#2CA2FC"/>
<path d="M7.90542 12.0203C7.7973 12.0203 7.68917 11.9657 7.58052 11.9121L4.98128 10.3957C4.65692 10.2336 4.54826 9.8 4.71098 9.47509C4.87317 9.15019 5.30619 9.04206 5.63109 9.20425L8.23032 10.7206C8.55522 10.8834 8.66335 11.3159 8.50116 11.6413C8.39304 11.9121 8.17627 12.0203 7.90542 12.0203Z" fill="#2CA2FC"/>
<path d="M11.371 8.60913C11.1548 8.60913 10.8839 8.501 10.7758 8.28369L9.25943 5.68499C9.09671 5.36009 9.20537 4.92706 9.53027 4.76434C9.85517 4.60162 10.2882 4.71082 10.4509 5.03519L11.9668 7.63389C12.129 7.95932 12.0208 8.39235 11.6959 8.55453C11.5878 8.55453 11.4797 8.60913 11.371 8.60913Z" fill="#2CA2FC"/>
<path d="M13.5913 7.68823C13.2664 7.68823 12.9955 7.47198 12.9415 7.20114L12.1835 4.33107C12.0749 3.95211 12.2917 3.57313 12.6706 3.51907C13.0496 3.41095 13.4286 3.6272 13.4826 4.00617L14.2411 6.8757C14.3492 7.25466 14.1324 7.63364 13.7535 7.68823C13.6994 7.63364 13.6453 7.68823 13.5913 7.68823Z" fill="#2CA2FC"/>
<path d="M19.0058 14.9445H17.6522C17.2727 14.9445 16.9478 14.619 16.9478 14.2401C16.9478 13.8611 17.2727 13.5362 17.6522 13.5362H19.0058C19.3848 13.5362 19.7097 13.8611 19.7097 14.2401C19.7097 14.619 19.3848 14.9445 19.0058 14.9445Z" fill="#2CA2FC"/>
<path d="M14.2953 14.9445H12.9417C12.5627 14.9445 12.2378 14.619 12.2378 14.2401C12.2378 13.8611 12.5627 13.5362 12.9417 13.5362H14.2953C14.6743 13.5362 14.9992 13.8611 14.9992 14.2401C14.9992 14.619 14.6202 14.9445 14.2953 14.9445Z" fill="#2CA2FC"/>
</svg>
