<svg width="30" height="32" viewBox="0 0 30 32" fill="none" xmlns="http://www.w3.org/2000/svg">
<path d="M4.33526 4.68842C4.60336 4.96063 5.03316 4.96063 5.30179 4.68842C5.56988 4.41567 5.56988 3.97926 5.30179 3.70651C5.03316 3.43376 4.60336 3.43376 4.33526 3.70651C4.06663 3.97926 4.06663 4.41567 4.33526 4.68842Z" fill="#03C6FE"/>
<path d="M28.7649 14.2285L29.7314 13.2471L28.7649 12.2658L27.7983 13.2471L28.7649 14.2285Z" fill="#03C6FE"/>
<path d="M29.0876 29.383L28.0674 30.365L29.0876 31.3457L30.0004 30.365L29.0876 29.383Z" fill="#03C6FE"/>
<path d="M1.168 12.3745C1.43609 12.1018 1.43609 11.6659 1.168 11.3932C0.899368 11.121 0.469567 11.121 0.201471 11.3932C-0.067157 11.6659 -0.067157 12.1018 0.201471 12.3745C0.469567 12.6473 0.899368 12.6473 1.168 12.3745Z" fill="#03C6FE"/>
<path d="M0.899314 27.3662C0.631218 27.639 0.631218 28.0748 0.899314 28.3476C1.16794 28.6198 1.59721 28.6198 1.86584 28.3476C2.13447 28.0748 2.13447 27.639 1.86584 27.3662C1.59721 27.0936 1.16794 27.0936 0.899314 27.3662Z" fill="#03C6FE"/>
<path d="M21.0337 10.249C21.3023 9.97622 21.3023 9.53981 21.0337 9.2676C20.7656 8.99485 20.3363 8.99485 20.0677 9.2676C19.7991 9.53981 19.7991 9.97622 20.0677 10.249C20.3363 10.5212 20.7656 10.5212 21.0337 10.249Z" fill="#03C6FE"/>
<path d="M26.349 26.4395L25.9729 21.5879C26.4027 21.6969 26.7245 22.0237 26.8325 22.4056L27.423 25.077C27.5304 25.7854 26.9932 26.4395 26.349 26.4395ZM21.5169 30.6377H9.32912C7.39606 30.6377 5.83908 29.0564 5.83908 27.0937C5.83908 26.876 5.8391 26.93 6.00028 25.077H24.8457C25.0069 27.0937 25.0069 26.876 25.0069 27.1488C25.0069 28.0205 23.4499 30.6377 21.5169 30.6377ZM3.47677 25.131L4.0672 22.46C4.17465 22.0237 4.49702 21.6969 4.9263 21.6425C4.9263 21.6969 4.71191 24.532 4.71191 24.3677C4.65819 25.077 4.55075 26.6032 4.55075 26.4942C3.79912 26.4395 3.31559 25.7854 3.47677 25.131ZM10.7249 6.32352C12.9261 6.32352 17.6513 6.32352 20.1748 6.32352C21.9467 6.32352 23.5037 7.74128 23.6643 9.59491L24.5771 20.9338H6.32209L7.12797 10.5212H18.4561C18.8327 10.5212 19.1545 10.1944 19.1545 9.81257C19.1545 9.43126 18.8327 9.10396 18.4561 9.10396H7.28861C7.66469 7.46853 9.0605 6.32352 10.7249 6.32352ZM11.6377 4.68863C11.6377 4.41588 11.8526 4.19713 12.1207 4.19713C14.8054 4.19713 16.8459 4.19713 19.4232 4.19713C19.6918 4.19713 19.9062 4.41588 19.9062 4.68863V4.90628H11.6377V4.68863ZM15.074 2.12584C15.074 1.74399 15.3964 1.41723 15.7725 1.41723C16.148 1.41723 16.4698 1.74399 16.4698 2.12584V2.83445H15.1278L15.074 2.12584ZM6.21518 22.2965H24.6308L24.7383 23.7137H6.10773L6.21518 22.2965ZM28.7113 24.8042L28.1209 22.1328C27.8528 21.0429 26.94 20.2247 25.8123 20.1707L24.9532 9.37616C24.792 7.25032 23.2882 5.45179 21.195 4.96083V4.63354C21.195 3.59762 20.3892 2.7799 19.3689 2.7799H17.7587V2.07129C17.7587 0.926814 16.8459 8.44541e-07 15.7182 8.44541e-07C14.5905 8.44541e-07 13.6782 0.926814 13.6782 2.07129V2.7799H12.0676C11.0473 2.7799 10.2419 3.59762 10.2419 4.63354V4.90628C7.8796 5.12394 6.00026 7.03212 5.83908 9.43126L4.98001 20.2247C3.8523 20.2798 2.94004 21.0429 2.67141 22.1874L2.13467 24.8042C1.97349 25.5673 2.13467 26.3304 2.61767 26.876C3.42302 27.8568 4.49702 27.8022 4.55075 27.8022C4.92629 30.2014 6.96678 32 9.32912 32H21.5169C23.9329 32 25.9197 30.2554 26.2958 27.8022C26.349 27.8022 27.423 27.8568 28.2283 26.876C28.7113 26.3304 28.873 25.5673 28.7113 24.8042Z" fill="#03C6FE"/>
<path d="M15.4502 13.2469C11.8527 13.2469 8.95312 16.1904 8.95312 19.8431C8.95312 20.2245 9.27547 20.5518 9.65155 20.5518C10.0271 20.5518 10.3495 20.2245 10.3495 19.8431C10.3495 16.9541 12.6581 14.6101 15.5034 14.6101C18.3493 14.6101 20.6579 16.9541 20.6579 19.8431C20.6579 20.2245 20.9802 20.5518 21.3563 20.5518C21.7318 20.5518 22.0537 20.2245 22.0537 19.8431C21.9468 16.1904 18.9934 13.2469 15.4502 13.2469Z" fill="#03C6FE"/>
<path d="M27.0463 4.90668C27.2074 4.90668 27.3686 5.07033 27.3686 5.23344C27.3686 5.39709 27.2074 5.56075 27.0463 5.56075C26.8319 5.56075 26.7239 5.39709 26.7239 5.23344C26.7239 5.07033 26.8851 4.90668 27.0463 4.90668ZM27.0463 6.97852C28.0128 6.97852 28.7644 6.21535 28.7644 5.23344C28.7644 4.25262 28.0128 3.48945 27.0463 3.48945C26.0797 3.48945 25.3281 4.25262 25.3281 5.23344C25.3281 6.21535 26.1335 6.97852 27.0463 6.97852Z" fill="#03C6FE"/>
<path d="M2.40272 17.3904C2.56389 17.3904 2.72507 17.5539 2.72507 17.7176C2.72507 17.8807 2.56389 18.0444 2.40272 18.0444C2.18781 18.0444 2.0809 17.8807 2.0809 17.7176C2.0809 17.5539 2.24207 17.3904 2.40272 17.3904ZM2.40272 19.5166C3.36925 19.5166 4.12089 18.7535 4.12089 17.7716C4.12089 16.7908 3.36925 16.0277 2.40272 16.0277C1.43619 16.0277 0.68457 16.7908 0.68457 17.7716C0.68457 18.7535 1.48991 19.5166 2.40272 19.5166Z" fill="#03C6FE"/>
<path d="M20.5502 26.4391H10.2956C9.91948 26.4391 9.59766 26.7665 9.59766 27.1484C9.59766 27.5296 9.91948 27.8564 10.2956 27.8564H20.5502C20.9263 27.8564 21.2481 27.5296 21.2481 27.1484C21.2481 26.7665 20.9263 26.4391 20.5502 26.4391Z" fill="#03C6FE"/>
</svg>
