<svg width="32" height="32" viewBox="0 0 32 32" fill="none" xmlns="http://www.w3.org/2000/svg">
<path d="M24.8001 12.2145C24.9109 12.4352 24.9109 12.4352 25.9629 14.0385L24.6899 15.3094L23.3061 14.3697L22.7522 12.1039C22.8076 12.0486 23.0291 11.4956 23.7482 11.4956C24.0811 11.4956 24.5791 11.7174 24.8001 12.2145ZM21.4792 11.4408C21.313 11.7721 21.2571 12.1039 21.313 12.4911L21.8664 14.8122C21.9772 15.1434 22.1434 15.4194 22.4198 15.6412L23.8595 16.6355C24.4129 16.9668 25.1325 16.9121 25.5751 16.4696L26.904 15.1434C27.3472 14.7016 27.4574 13.9826 27.0702 13.4301L26.0183 11.8274C25.631 10.8325 24.6899 10.2247 23.6379 10.2247C22.088 10.1141 21.4792 11.385 21.4792 11.4408Z" fill="#2CA2FC"/>
<path d="M13.452 26.8048C13.0642 26.8048 12.7324 27.1366 12.7324 27.5237C12.7324 27.9103 13.0642 28.2416 13.452 28.2416C13.8392 28.2416 14.1716 27.9103 14.1716 27.5237C14.1716 27.1366 13.8392 26.8048 13.452 26.8048Z" fill="#2CA2FC"/>
<path d="M17.7147 22.6045C17.3269 22.6045 16.9951 22.9363 16.9951 23.3229C16.9951 23.71 17.3269 24.0413 17.7147 24.0413C18.1019 24.0413 18.4343 23.71 18.4343 23.3229C18.4343 22.9363 18.1019 22.6045 17.7147 22.6045Z" fill="#2CA2FC"/>
<path d="M4.26256 30.5627C3.87534 30.5627 3.54297 30.8945 3.54297 31.2816C3.54297 31.6682 3.87534 32 4.26256 32C4.65032 32 4.98215 31.6682 4.98215 31.2816C4.98215 30.8392 4.65032 30.5627 4.26256 30.5627Z" fill="#2CA2FC"/>
<path d="M10.6287 14.8669C10.2415 14.8669 9.90918 15.1987 9.90918 15.5853C9.90918 15.9724 10.2415 16.3037 10.6287 16.3037C11.0165 16.3037 11.3483 15.9724 11.3483 15.5853C11.3483 15.1434 11.0165 14.8669 10.6287 14.8669Z" fill="#2CA2FC"/>
<path d="M12.7323 9.89279C13.1299 9.89279 13.4518 10.2142 13.4518 10.6112C13.4518 11.0082 13.1299 11.3296 12.7323 11.3296C12.3346 11.3296 12.0127 11.0082 12.0127 10.6112C12.0127 10.2142 12.3346 9.89279 12.7323 9.89279Z" fill="#2CA2FC"/>
<path d="M22.6416 7.07456C22.6416 7.46114 22.9734 7.79297 23.3612 7.79297C23.7484 7.79297 24.0813 7.46114 24.0813 7.07456C24.0813 6.68744 23.7484 6.35617 23.3612 6.35617C22.9734 6.35617 22.6416 6.68744 22.6416 7.07456Z" fill="#2CA2FC"/>
<path d="M7.08678 21.1676C6.69901 21.1676 6.36719 21.4994 6.36719 21.886C6.36719 22.2731 6.69901 22.6044 7.08678 22.6044C7.47399 22.6044 7.80637 22.2731 7.80637 21.886C7.80637 21.4994 7.47399 21.1676 7.08678 21.1676Z" fill="#2CA2FC"/>
<path d="M9.68807 29.1258L11.4042 24.0971C12.6218 22.9362 12.234 20.8911 10.6287 20.3386L9.68753 20.0068L7.97192 18.0728C7.80574 17.9069 7.58417 17.7404 7.36259 17.6857L4.65042 16.8567C4.65042 15.4752 5.20382 14.1484 6.14499 13.1541L8.19297 10.9983C8.30376 10.8877 8.46993 10.7771 8.69151 10.7771C9.79831 10.667 10.6841 9.67156 10.6287 8.56659C10.6287 8.51128 10.6287 8.45543 10.6841 8.40067L11.0718 7.95825C11.3483 7.68173 11.5145 7.24039 11.4591 6.85327L11.4042 6.19018C11.4042 6.13433 11.4591 6.07957 11.4591 6.07957L11.9022 5.91366C11.9576 5.91366 12.013 5.91366 12.013 5.96841C12.4556 6.85327 13.5076 7.07449 14.2825 6.52145L15.0575 5.96841C16.4418 4.91874 17.1614 3.26073 17.0501 1.54741C18.7114 1.65801 20.2613 2.04459 21.7005 2.70769L20.1506 3.64731C19.8182 3.86907 19.5412 4.20034 19.4864 4.64277L19.3202 5.80305C18.0472 5.91366 16.8844 6.63206 16.2757 7.79289C16.2203 7.95825 15.7217 8.51129 16.0541 9.3403C16.2203 9.72742 16.5521 10.0034 16.9399 10.114L16.1649 11.2748C15.1683 12.7116 15.2237 14.5908 16.2757 16.0276L17.9913 18.2387C18.1574 18.4041 18.3236 18.57 18.5452 18.6806L21.4795 19.952L21.1471 22.9362C21.0363 24.1518 21.9775 25.202 23.1397 25.202C24.0814 25.202 24.9112 24.5389 25.1328 23.544L25.299 22.6044L27.9563 21.2229C28.4543 20.9464 28.7313 20.4492 28.6759 19.952L28.7313 18.1829C30.4474 16.083 30.392 16.193 30.6136 15.8617C30.6136 26.86 19.2094 33.7133 9.68807 29.1258ZM1.38433 15.9723C1.38433 8.06885 7.74981 1.60271 15.6669 1.38204C15.8325 2.65293 15.2791 3.92382 14.2272 4.75338C13.4522 5.36062 13.4522 5.36061 13.3968 5.36061L13.3414 5.30586C13.009 4.64276 12.234 4.31095 11.5145 4.53161L11.0718 4.69753C10.4076 4.91874 9.96451 5.52708 10.0199 6.24493C10.0199 6.96388 10.0753 6.96387 10.0199 7.01863L9.63268 7.46106C9.13413 8.0141 9.2449 8.56659 9.2449 8.62189C9.2449 9.00847 8.96795 9.3403 8.52534 9.3956C8.02679 9.4509 7.52876 9.67156 7.14154 10.0587L5.09305 12.2144C3.87546 13.4853 3.21071 15.1433 3.21071 16.912C3.21071 17.5198 3.59848 18.0169 4.15188 18.2387L6.86458 19.1225L8.58072 21.057C8.74691 21.2229 8.91308 21.3335 9.13411 21.4436L10.0753 21.7754C10.6841 21.9966 10.8503 22.7703 10.3522 23.2127C10.1861 23.3781 10.0753 23.544 9.96449 23.7647L8.35914 28.5734C4.20727 25.8651 1.38433 21.2229 1.38433 15.9723ZM30.2818 13.0982C30.0596 13.8166 29.6171 14.9221 29.2298 15.3093L27.5685 17.2991C27.3475 17.5751 27.2367 17.9069 27.2367 18.2387L27.2915 19.6755L24.6348 21.057C24.2476 21.2229 24.0255 21.6095 23.9147 21.9966L23.7485 22.991C23.6382 23.4334 23.0843 23.6546 22.7525 23.3228C22.5863 23.2127 22.5314 22.991 22.5314 22.7703L22.8633 19.7303C22.9187 19.1225 22.5863 18.57 22.0323 18.3488L19.0986 17.0779L17.4384 14.8668C16.7183 13.9825 16.7183 12.7116 17.3825 11.772L18.2134 10.6112C18.7662 9.83748 18.379 8.73195 17.4384 8.51128L17.604 8.23476C17.9913 7.51636 18.7114 7.07448 19.5412 6.96387C20.2059 6.90802 20.7045 6.41084 20.8153 5.80305L20.9809 4.64277L23.3064 3.20597C26.849 5.41647 29.4508 8.89786 30.2818 13.0982ZM30.392 30.5627H22.5863C29.2298 27.5784 33.1047 20.3939 31.721 13.0429C31.721 12.9881 31.721 12.9881 31.721 12.9323C30.2818 5.52707 23.7485 2.53658e-07 15.9987 2.53658e-07C7.14155 2.53658e-07 0 7.18454 0 15.9723C0 22.3832 3.81952 28.0209 9.4111 30.5627H6.36657C5.9788 30.5627 5.64644 30.8945 5.64644 31.2816C5.64644 31.6682 5.9788 32 6.36657 32H30.392C30.7798 32 31.1116 31.6682 31.1116 31.2816C31.1116 30.8392 30.7798 30.5627 30.392 30.5627Z" fill="#2CA2FC"/>
</svg>
