<svg width="33" height="32" viewBox="0 0 33 32" fill="none" xmlns="http://www.w3.org/2000/svg">
<path d="M32.281 12.4006H30.4574C30.0702 12.4006 29.7383 12.733 29.7383 13.1202C29.7383 13.508 30.0702 13.8398 30.4574 13.8398H32.281C32.6682 13.8398 32.9995 13.508 32.9995 13.1202C32.9995 12.733 32.6682 12.4006 32.281 12.4006Z" fill="#2CA2FC"/>
<path d="M27.7489 20.7613C27.9148 21.0932 28.3568 21.2594 28.6887 21.0378C29.02 20.8716 29.1306 20.4289 28.9647 20.0965L28.0802 18.4356C27.9148 18.1038 27.4723 17.993 27.1405 18.1592C26.8086 18.3248 26.6985 18.768 26.8644 19.0999L27.7489 20.7613Z" fill="#2CA2FC"/>
<path d="M27.4729 8.24902C27.7495 8.24902 27.9702 8.08284 28.0808 7.86179L28.9653 6.20091C29.1312 5.86852 29.0206 5.42587 28.6893 5.25967C28.3574 5.09347 27.9154 5.20372 27.7495 5.53667L26.865 7.19699C26.5885 7.69504 26.9204 8.24902 27.4729 8.24902Z" fill="#2CA2FC"/>
<path d="M30.7897 16.2211L29.7946 15.6123C29.4633 15.3913 29.0208 15.5021 28.7995 15.8339C28.5783 16.1663 28.6895 16.6089 29.0208 16.8305L29.9606 17.4394C30.2924 17.661 30.7344 17.5502 30.9556 17.2183C31.1769 16.8305 31.0663 16.4433 30.7897 16.2211Z" fill="#2CA2FC"/>
<path d="M29.4082 10.7402C29.5182 10.7402 29.6842 10.6854 29.7948 10.6294L30.7346 10.0206C31.0659 9.79899 31.1771 9.35635 30.9558 9.02396C30.7346 8.69211 30.3474 8.58131 29.9607 8.80291L29.021 9.41176C28.4684 9.799 28.7444 10.7402 29.4082 10.7402Z" fill="#2CA2FC"/>
<path d="M3.26125 13.1202C3.26125 12.733 2.92992 12.4006 2.54273 12.4006H0.719064C0.331876 12.4006 0 12.733 0 13.1202C0 13.508 0.331876 13.8398 0.719064 13.8398H2.54273C2.98523 13.8398 3.26125 13.508 3.26125 13.1202Z" fill="#2CA2FC"/>
<path d="M5.91522 18.1037C5.58335 17.9375 5.14085 18.0477 4.97491 18.3801L4.09101 20.041C3.92508 20.3734 4.03514 20.816 4.36702 20.9822C4.69889 21.1484 5.14085 21.0376 5.30679 20.7052L6.19124 19.0449C6.41249 18.7125 6.30186 18.2699 5.91522 18.1037Z" fill="#2CA2FC"/>
<path d="M4.97501 7.86178C5.14095 8.19418 5.58344 8.35983 5.91532 8.13823C6.24665 7.97203 6.35727 7.52938 6.19134 7.19699L5.30689 5.53666C5.14095 5.20372 4.69899 5.03806 4.36711 5.25966C4.03524 5.42586 3.86986 5.86851 4.09111 6.20091L4.97501 7.86178Z" fill="#2CA2FC"/>
<path d="M4.20133 15.8339C3.98062 15.5021 3.59343 15.3913 3.20679 15.6123L2.26702 16.2211C1.93515 16.4433 1.82452 16.8859 2.04577 17.2183C2.26702 17.5502 2.65366 17.661 3.04085 17.4394L3.98062 16.8305C4.31194 16.6089 4.42258 16.1663 4.20133 15.8339Z" fill="#2CA2FC"/>
<path d="M2.32234 10.0765L3.26155 10.6859C3.59343 10.9069 4.03539 10.7961 4.25664 10.4637C4.47789 10.1319 4.36726 9.68871 4.03539 9.46767L3.09617 8.85827C2.76429 8.63722 2.32234 8.74748 2.10109 9.07987C1.87984 9.41226 1.93515 9.8549 2.32234 10.0765Z" fill="#2CA2FC"/>
<path d="M20.9496 30.5605H6.74305L6.13516 29.1212H14.0399C14.4271 29.1212 14.7584 28.7889 14.7584 28.4011C14.7584 28.0133 14.4271 27.6814 14.0399 27.6814C6.68829 27.6814 5.6379 27.6814 5.52728 27.6814L5.1954 26.9618C13.0449 26.9618 19.0148 26.9618 26.9196 26.9618L20.9496 30.5605ZM15.8642 2.21432V19.2663H13.3214C12.9342 19.2663 12.6029 19.5986 12.6029 19.9864C12.6029 20.3737 12.9342 20.7055 13.3214 20.7055H21.0597C21.4469 20.7055 21.7782 20.3737 21.7782 19.9864V17.1622C21.7782 16.7749 21.4469 16.4431 21.0597 16.4431C20.6731 16.4431 20.3965 16.7749 20.3965 17.1622V19.2663H17.3012V2.26971C24.1003 8.35977 25.3714 18.104 21.281 25.6333H11.9391C7.84875 18.104 9.1204 8.35978 15.8642 2.21432ZM30.2361 26.1313C30.1808 25.799 29.9042 25.6333 29.5724 25.6333H22.8286C27.1403 16.996 24.8741 6.31111 17.0246 0.166199C16.9146 0.0553989 16.7481 0 16.5827 0C16.4167 0 16.2508 0.0553989 16.1402 0.166199C8.2907 6.25571 6.02453 16.9411 10.3362 25.6333H4.20032C3.70306 25.6333 3.37172 26.1313 3.53711 26.6299L5.6379 31.5566C5.74798 31.8336 6.02453 31.9998 6.3011 31.9998H21.115C21.5022 31.9998 21.115 32.1106 29.9596 26.9618C30.1808 26.7961 30.3462 26.4632 30.2361 26.1313Z" fill="#2CA2FC"/>
<path d="M16.8591 27.7365C16.4725 27.7365 16.1406 28.0689 16.1406 28.4561C16.1406 28.8439 16.4725 29.1758 16.8591 29.1758C17.2463 29.1758 17.5782 28.8439 17.5782 28.4561C17.5782 28.0689 17.2463 27.7365 16.8591 27.7365Z" fill="#2CA2FC"/>
<path d="M30.2923 29.1759C29.9051 29.1759 29.5732 29.5084 29.5732 29.8961C29.5732 30.2834 29.9051 30.6152 30.2923 30.6152C30.679 30.6152 31.0108 30.2834 31.0108 29.8961C31.0108 29.453 30.679 29.1759 30.2923 29.1759Z" fill="#2CA2FC"/>
<path d="M2.10133 29.1759C1.71414 29.1759 1.38281 29.5084 1.38281 29.8961C1.38281 30.2834 1.71414 30.6152 2.10133 30.6152C2.48797 30.6152 2.81984 30.2834 2.81984 29.8961C2.76453 29.453 2.48797 29.1759 2.10133 29.1759Z" fill="#2CA2FC"/>
<path d="M13.3777 14.3385C13.7742 14.3385 14.0962 14.661 14.0962 15.0581C14.0962 15.4558 13.7742 15.7783 13.3777 15.7783C12.9806 15.7783 12.6592 15.4558 12.6592 15.0581C12.6592 14.661 12.9806 14.3385 13.3777 14.3385Z" fill="#2CA2FC"/>
<path d="M20.3972 11.5148C20.0106 11.5148 19.6787 11.8472 19.6787 12.235C19.6787 12.6223 20.0106 12.9541 20.3972 12.9541C20.7844 12.9541 21.1157 12.6223 21.1157 12.235C21.1157 11.7918 20.7844 11.5148 20.3972 11.5148Z" fill="#2CA2FC"/>
<path d="M14.0408 7.2531C14.4378 7.2531 14.7593 7.57508 14.7593 7.9722C14.7593 8.36987 14.4378 8.69238 14.0408 8.69238C13.6437 8.69238 13.3223 8.36987 13.3223 7.9722C13.3223 7.57508 13.6437 7.2531 14.0408 7.2531Z" fill="#2CA2FC"/>
</svg>
